G04 #@! TF.GenerationSoftware,KiCad,Pcbnew,(5.1.4)-1*
G04 #@! TF.CreationDate,2020-01-10T15:49:45+01:00*
G04 #@! TF.ProjectId,KRS-XL_DIM-24CVLED,4b52532d-584c-45f4-9449-4d2d32344356,V01.01*
G04 #@! TF.SameCoordinates,Original*
G04 #@! TF.FileFunction,Other,Fab,Top*
%FSLAX46Y46*%
G04 Gerber Fmt 4.6, Leading zero omitted, Abs format (unit mm)*
G04 Created by KiCad (PCBNEW (5.1.4)-1) date 2020-01-10 15:49:45*
%MOMM*%
%LPD*%
G04 APERTURE LIST*
%ADD10C,0.100000*%
%ADD11C,0.150000*%
%ADD12C,0.120000*%
G04 APERTURE END LIST*
D10*
X53100000Y-115880000D02*
X53100000Y-104380000D01*
X53100000Y-115880000D02*
X61600000Y-115880000D01*
X53100000Y-104380000D02*
X61600000Y-104380000D01*
X61600000Y-115880000D02*
X61600000Y-104380000D01*
X76942000Y-127145000D02*
X77502000Y-127695000D01*
X92222000Y-127145000D02*
X91682000Y-127695000D01*
X76942000Y-135995000D02*
X77502000Y-135445000D01*
X92222000Y-135995000D02*
X91682000Y-135445000D01*
X77502000Y-135445000D02*
X77502000Y-127695000D01*
X76942000Y-135995000D02*
X76942000Y-127145000D01*
X91682000Y-135445000D02*
X91682000Y-127695000D01*
X92222000Y-135995000D02*
X92222000Y-127145000D01*
X82332000Y-127695000D02*
X82332000Y-127145000D01*
X86832000Y-127695000D02*
X86832000Y-127145000D01*
X82332000Y-127695000D02*
X77502000Y-127695000D01*
X91682000Y-127695000D02*
X86832000Y-127695000D01*
X92222000Y-127145000D02*
X76942000Y-127145000D01*
X91682000Y-135445000D02*
X77502000Y-135445000D01*
X92222000Y-135995000D02*
X76942000Y-135995000D01*
X106157500Y-131610000D02*
X102957500Y-131610000D01*
X106157500Y-130010000D02*
X106157500Y-131610000D01*
X102957500Y-130010000D02*
X106157500Y-130010000D01*
X102957500Y-131610000D02*
X102957500Y-130010000D01*
X118110000Y-109220000D02*
X114300000Y-109220000D01*
X118110000Y-111760000D02*
X114300000Y-111760000D01*
X118110000Y-114300000D02*
X114300000Y-114300000D01*
X118110000Y-106760000D02*
X118110000Y-116760000D01*
X127360000Y-106760000D02*
X118110000Y-106760000D01*
X127360000Y-116760000D02*
X127360000Y-106760000D01*
X118110000Y-116760000D02*
X127360000Y-116760000D01*
X127360000Y-106760000D02*
X127360000Y-116760000D01*
X133760000Y-106760000D02*
X127360000Y-106760000D01*
X133760000Y-116760000D02*
X133760000Y-106760000D01*
X127360000Y-116760000D02*
X133760000Y-116760000D01*
X132810000Y-111760000D02*
G75*
G03X132810000Y-111760000I-1850000J0D01*
G01*
X186690000Y-109220000D02*
X182880000Y-109220000D01*
X186690000Y-111760000D02*
X182880000Y-111760000D01*
X186690000Y-114300000D02*
X182880000Y-114300000D01*
X186690000Y-106760000D02*
X186690000Y-116760000D01*
X195940000Y-106760000D02*
X186690000Y-106760000D01*
X195940000Y-116760000D02*
X195940000Y-106760000D01*
X186690000Y-116760000D02*
X195940000Y-116760000D01*
X195940000Y-106760000D02*
X195940000Y-116760000D01*
X202340000Y-106760000D02*
X195940000Y-106760000D01*
X202340000Y-116760000D02*
X202340000Y-106760000D01*
X195940000Y-116760000D02*
X202340000Y-116760000D01*
X201390000Y-111760000D02*
G75*
G03X201390000Y-111760000I-1850000J0D01*
G01*
X181610000Y-93980000D02*
X177800000Y-93980000D01*
X181610000Y-96520000D02*
X177800000Y-96520000D01*
X181610000Y-99060000D02*
X177800000Y-99060000D01*
X181610000Y-91520000D02*
X181610000Y-101520000D01*
X190860000Y-91520000D02*
X181610000Y-91520000D01*
X190860000Y-101520000D02*
X190860000Y-91520000D01*
X181610000Y-101520000D02*
X190860000Y-101520000D01*
X190860000Y-91520000D02*
X190860000Y-101520000D01*
X197260000Y-91520000D02*
X190860000Y-91520000D01*
X197260000Y-101520000D02*
X197260000Y-91520000D01*
X190860000Y-101520000D02*
X197260000Y-101520000D01*
X196310000Y-96520000D02*
G75*
G03X196310000Y-96520000I-1850000J0D01*
G01*
X176530000Y-78740000D02*
X172720000Y-78740000D01*
X176530000Y-81280000D02*
X172720000Y-81280000D01*
X176530000Y-83820000D02*
X172720000Y-83820000D01*
X176530000Y-76280000D02*
X176530000Y-86280000D01*
X185780000Y-76280000D02*
X176530000Y-76280000D01*
X185780000Y-86280000D02*
X185780000Y-76280000D01*
X176530000Y-86280000D02*
X185780000Y-86280000D01*
X185780000Y-76280000D02*
X185780000Y-86280000D01*
X192180000Y-76280000D02*
X185780000Y-76280000D01*
X192180000Y-86280000D02*
X192180000Y-76280000D01*
X185780000Y-86280000D02*
X192180000Y-86280000D01*
X191230000Y-81280000D02*
G75*
G03X191230000Y-81280000I-1850000J0D01*
G01*
X171450000Y-63500000D02*
X167640000Y-63500000D01*
X171450000Y-66040000D02*
X167640000Y-66040000D01*
X171450000Y-68580000D02*
X167640000Y-68580000D01*
X171450000Y-61040000D02*
X171450000Y-71040000D01*
X180700000Y-61040000D02*
X171450000Y-61040000D01*
X180700000Y-71040000D02*
X180700000Y-61040000D01*
X171450000Y-71040000D02*
X180700000Y-71040000D01*
X180700000Y-61040000D02*
X180700000Y-71040000D01*
X187100000Y-61040000D02*
X180700000Y-61040000D01*
X187100000Y-71040000D02*
X187100000Y-61040000D01*
X180700000Y-71040000D02*
X187100000Y-71040000D01*
X186150000Y-66040000D02*
G75*
G03X186150000Y-66040000I-1850000J0D01*
G01*
X163830000Y-109220000D02*
X160020000Y-109220000D01*
X163830000Y-111760000D02*
X160020000Y-111760000D01*
X163830000Y-114300000D02*
X160020000Y-114300000D01*
X163830000Y-106760000D02*
X163830000Y-116760000D01*
X173080000Y-106760000D02*
X163830000Y-106760000D01*
X173080000Y-116760000D02*
X173080000Y-106760000D01*
X163830000Y-116760000D02*
X173080000Y-116760000D01*
X173080000Y-106760000D02*
X173080000Y-116760000D01*
X179480000Y-106760000D02*
X173080000Y-106760000D01*
X179480000Y-116760000D02*
X179480000Y-106760000D01*
X173080000Y-116760000D02*
X179480000Y-116760000D01*
X178530000Y-111760000D02*
G75*
G03X178530000Y-111760000I-1850000J0D01*
G01*
X158750000Y-93980000D02*
X154940000Y-93980000D01*
X158750000Y-96520000D02*
X154940000Y-96520000D01*
X158750000Y-99060000D02*
X154940000Y-99060000D01*
X158750000Y-91520000D02*
X158750000Y-101520000D01*
X168000000Y-91520000D02*
X158750000Y-91520000D01*
X168000000Y-101520000D02*
X168000000Y-91520000D01*
X158750000Y-101520000D02*
X168000000Y-101520000D01*
X168000000Y-91520000D02*
X168000000Y-101520000D01*
X174400000Y-91520000D02*
X168000000Y-91520000D01*
X174400000Y-101520000D02*
X174400000Y-91520000D01*
X168000000Y-101520000D02*
X174400000Y-101520000D01*
X173450000Y-96520000D02*
G75*
G03X173450000Y-96520000I-1850000J0D01*
G01*
X153670000Y-78740000D02*
X149860000Y-78740000D01*
X153670000Y-81280000D02*
X149860000Y-81280000D01*
X153670000Y-83820000D02*
X149860000Y-83820000D01*
X153670000Y-76280000D02*
X153670000Y-86280000D01*
X162920000Y-76280000D02*
X153670000Y-76280000D01*
X162920000Y-86280000D02*
X162920000Y-76280000D01*
X153670000Y-86280000D02*
X162920000Y-86280000D01*
X162920000Y-76280000D02*
X162920000Y-86280000D01*
X169320000Y-76280000D02*
X162920000Y-76280000D01*
X169320000Y-86280000D02*
X169320000Y-76280000D01*
X162920000Y-86280000D02*
X169320000Y-86280000D01*
X168370000Y-81280000D02*
G75*
G03X168370000Y-81280000I-1850000J0D01*
G01*
X148590000Y-63500000D02*
X144780000Y-63500000D01*
X148590000Y-66040000D02*
X144780000Y-66040000D01*
X148590000Y-68580000D02*
X144780000Y-68580000D01*
X148590000Y-61040000D02*
X148590000Y-71040000D01*
X157840000Y-61040000D02*
X148590000Y-61040000D01*
X157840000Y-71040000D02*
X157840000Y-61040000D01*
X148590000Y-71040000D02*
X157840000Y-71040000D01*
X157840000Y-61040000D02*
X157840000Y-71040000D01*
X164240000Y-61040000D02*
X157840000Y-61040000D01*
X164240000Y-71040000D02*
X164240000Y-61040000D01*
X157840000Y-71040000D02*
X164240000Y-71040000D01*
X163290000Y-66040000D02*
G75*
G03X163290000Y-66040000I-1850000J0D01*
G01*
X140970000Y-109220000D02*
X137160000Y-109220000D01*
X140970000Y-111760000D02*
X137160000Y-111760000D01*
X140970000Y-114300000D02*
X137160000Y-114300000D01*
X140970000Y-106760000D02*
X140970000Y-116760000D01*
X150220000Y-106760000D02*
X140970000Y-106760000D01*
X150220000Y-116760000D02*
X150220000Y-106760000D01*
X140970000Y-116760000D02*
X150220000Y-116760000D01*
X150220000Y-106760000D02*
X150220000Y-116760000D01*
X156620000Y-106760000D02*
X150220000Y-106760000D01*
X156620000Y-116760000D02*
X156620000Y-106760000D01*
X150220000Y-116760000D02*
X156620000Y-116760000D01*
X155670000Y-111760000D02*
G75*
G03X155670000Y-111760000I-1850000J0D01*
G01*
X135890000Y-93980000D02*
X132080000Y-93980000D01*
X135890000Y-96520000D02*
X132080000Y-96520000D01*
X135890000Y-99060000D02*
X132080000Y-99060000D01*
X135890000Y-91520000D02*
X135890000Y-101520000D01*
X145140000Y-91520000D02*
X135890000Y-91520000D01*
X145140000Y-101520000D02*
X145140000Y-91520000D01*
X135890000Y-101520000D02*
X145140000Y-101520000D01*
X145140000Y-91520000D02*
X145140000Y-101520000D01*
X151540000Y-91520000D02*
X145140000Y-91520000D01*
X151540000Y-101520000D02*
X151540000Y-91520000D01*
X145140000Y-101520000D02*
X151540000Y-101520000D01*
X150590000Y-96520000D02*
G75*
G03X150590000Y-96520000I-1850000J0D01*
G01*
X130810000Y-78740000D02*
X127000000Y-78740000D01*
X130810000Y-81280000D02*
X127000000Y-81280000D01*
X130810000Y-83820000D02*
X127000000Y-83820000D01*
X130810000Y-76280000D02*
X130810000Y-86280000D01*
X140060000Y-76280000D02*
X130810000Y-76280000D01*
X140060000Y-86280000D02*
X140060000Y-76280000D01*
X130810000Y-86280000D02*
X140060000Y-86280000D01*
X140060000Y-76280000D02*
X140060000Y-86280000D01*
X146460000Y-76280000D02*
X140060000Y-76280000D01*
X146460000Y-86280000D02*
X146460000Y-76280000D01*
X140060000Y-86280000D02*
X146460000Y-86280000D01*
X145510000Y-81280000D02*
G75*
G03X145510000Y-81280000I-1850000J0D01*
G01*
X125730000Y-63500000D02*
X121920000Y-63500000D01*
X125730000Y-66040000D02*
X121920000Y-66040000D01*
X125730000Y-68580000D02*
X121920000Y-68580000D01*
X125730000Y-61040000D02*
X125730000Y-71040000D01*
X134980000Y-61040000D02*
X125730000Y-61040000D01*
X134980000Y-71040000D02*
X134980000Y-61040000D01*
X125730000Y-71040000D02*
X134980000Y-71040000D01*
X134980000Y-61040000D02*
X134980000Y-71040000D01*
X141380000Y-61040000D02*
X134980000Y-61040000D01*
X141380000Y-71040000D02*
X141380000Y-61040000D01*
X134980000Y-71040000D02*
X141380000Y-71040000D01*
X140430000Y-66040000D02*
G75*
G03X140430000Y-66040000I-1850000J0D01*
G01*
X113030000Y-93980000D02*
X109220000Y-93980000D01*
X113030000Y-96520000D02*
X109220000Y-96520000D01*
X113030000Y-99060000D02*
X109220000Y-99060000D01*
X113030000Y-91520000D02*
X113030000Y-101520000D01*
X122280000Y-91520000D02*
X113030000Y-91520000D01*
X122280000Y-101520000D02*
X122280000Y-91520000D01*
X113030000Y-101520000D02*
X122280000Y-101520000D01*
X122280000Y-91520000D02*
X122280000Y-101520000D01*
X128680000Y-91520000D02*
X122280000Y-91520000D01*
X128680000Y-101520000D02*
X128680000Y-91520000D01*
X122280000Y-101520000D02*
X128680000Y-101520000D01*
X127730000Y-96520000D02*
G75*
G03X127730000Y-96520000I-1850000J0D01*
G01*
X107950000Y-78740000D02*
X104140000Y-78740000D01*
X107950000Y-81280000D02*
X104140000Y-81280000D01*
X107950000Y-83820000D02*
X104140000Y-83820000D01*
X107950000Y-76280000D02*
X107950000Y-86280000D01*
X117200000Y-76280000D02*
X107950000Y-76280000D01*
X117200000Y-86280000D02*
X117200000Y-76280000D01*
X107950000Y-86280000D02*
X117200000Y-86280000D01*
X117200000Y-76280000D02*
X117200000Y-86280000D01*
X123600000Y-76280000D02*
X117200000Y-76280000D01*
X123600000Y-86280000D02*
X123600000Y-76280000D01*
X117200000Y-86280000D02*
X123600000Y-86280000D01*
X122650000Y-81280000D02*
G75*
G03X122650000Y-81280000I-1850000J0D01*
G01*
X102870000Y-63500000D02*
X99060000Y-63500000D01*
X102870000Y-66040000D02*
X99060000Y-66040000D01*
X102870000Y-68580000D02*
X99060000Y-68580000D01*
X102870000Y-61040000D02*
X102870000Y-71040000D01*
X112120000Y-61040000D02*
X102870000Y-61040000D01*
X112120000Y-71040000D02*
X112120000Y-61040000D01*
X102870000Y-71040000D02*
X112120000Y-71040000D01*
X112120000Y-61040000D02*
X112120000Y-71040000D01*
X118520000Y-61040000D02*
X112120000Y-61040000D01*
X118520000Y-71040000D02*
X118520000Y-61040000D01*
X112120000Y-71040000D02*
X118520000Y-71040000D01*
X117570000Y-66040000D02*
G75*
G03X117570000Y-66040000I-1850000J0D01*
G01*
X95250000Y-109220000D02*
X91440000Y-109220000D01*
X95250000Y-111760000D02*
X91440000Y-111760000D01*
X95250000Y-114300000D02*
X91440000Y-114300000D01*
X95250000Y-106760000D02*
X95250000Y-116760000D01*
X104500000Y-106760000D02*
X95250000Y-106760000D01*
X104500000Y-116760000D02*
X104500000Y-106760000D01*
X95250000Y-116760000D02*
X104500000Y-116760000D01*
X104500000Y-106760000D02*
X104500000Y-116760000D01*
X110900000Y-106760000D02*
X104500000Y-106760000D01*
X110900000Y-116760000D02*
X110900000Y-106760000D01*
X104500000Y-116760000D02*
X110900000Y-116760000D01*
X109950000Y-111760000D02*
G75*
G03X109950000Y-111760000I-1850000J0D01*
G01*
X90170000Y-93980000D02*
X86360000Y-93980000D01*
X90170000Y-96520000D02*
X86360000Y-96520000D01*
X90170000Y-99060000D02*
X86360000Y-99060000D01*
X90170000Y-91520000D02*
X90170000Y-101520000D01*
X99420000Y-91520000D02*
X90170000Y-91520000D01*
X99420000Y-101520000D02*
X99420000Y-91520000D01*
X90170000Y-101520000D02*
X99420000Y-101520000D01*
X99420000Y-91520000D02*
X99420000Y-101520000D01*
X105820000Y-91520000D02*
X99420000Y-91520000D01*
X105820000Y-101520000D02*
X105820000Y-91520000D01*
X99420000Y-101520000D02*
X105820000Y-101520000D01*
X104870000Y-96520000D02*
G75*
G03X104870000Y-96520000I-1850000J0D01*
G01*
X85090000Y-78740000D02*
X81280000Y-78740000D01*
X85090000Y-81280000D02*
X81280000Y-81280000D01*
X85090000Y-83820000D02*
X81280000Y-83820000D01*
X85090000Y-76280000D02*
X85090000Y-86280000D01*
X94340000Y-76280000D02*
X85090000Y-76280000D01*
X94340000Y-86280000D02*
X94340000Y-76280000D01*
X85090000Y-86280000D02*
X94340000Y-86280000D01*
X94340000Y-76280000D02*
X94340000Y-86280000D01*
X100740000Y-76280000D02*
X94340000Y-76280000D01*
X100740000Y-86280000D02*
X100740000Y-76280000D01*
X94340000Y-86280000D02*
X100740000Y-86280000D01*
X99790000Y-81280000D02*
G75*
G03X99790000Y-81280000I-1850000J0D01*
G01*
X80010000Y-63500000D02*
X76200000Y-63500000D01*
X80010000Y-66040000D02*
X76200000Y-66040000D01*
X80010000Y-68580000D02*
X76200000Y-68580000D01*
X80010000Y-61040000D02*
X80010000Y-71040000D01*
X89260000Y-61040000D02*
X80010000Y-61040000D01*
X89260000Y-71040000D02*
X89260000Y-61040000D01*
X80010000Y-71040000D02*
X89260000Y-71040000D01*
X89260000Y-61040000D02*
X89260000Y-71040000D01*
X95660000Y-61040000D02*
X89260000Y-61040000D01*
X95660000Y-71040000D02*
X95660000Y-61040000D01*
X89260000Y-71040000D02*
X95660000Y-71040000D01*
X94710000Y-66040000D02*
G75*
G03X94710000Y-66040000I-1850000J0D01*
G01*
X72390000Y-109220000D02*
X68580000Y-109220000D01*
X72390000Y-111760000D02*
X68580000Y-111760000D01*
X72390000Y-114300000D02*
X68580000Y-114300000D01*
X72390000Y-106760000D02*
X72390000Y-116760000D01*
X81640000Y-106760000D02*
X72390000Y-106760000D01*
X81640000Y-116760000D02*
X81640000Y-106760000D01*
X72390000Y-116760000D02*
X81640000Y-116760000D01*
X81640000Y-106760000D02*
X81640000Y-116760000D01*
X88040000Y-106760000D02*
X81640000Y-106760000D01*
X88040000Y-116760000D02*
X88040000Y-106760000D01*
X81640000Y-116760000D02*
X88040000Y-116760000D01*
X87090000Y-111760000D02*
G75*
G03X87090000Y-111760000I-1850000J0D01*
G01*
X67310000Y-93980000D02*
X63500000Y-93980000D01*
X67310000Y-96520000D02*
X63500000Y-96520000D01*
X67310000Y-99060000D02*
X63500000Y-99060000D01*
X67310000Y-91520000D02*
X67310000Y-101520000D01*
X76560000Y-91520000D02*
X67310000Y-91520000D01*
X76560000Y-101520000D02*
X76560000Y-91520000D01*
X67310000Y-101520000D02*
X76560000Y-101520000D01*
X76560000Y-91520000D02*
X76560000Y-101520000D01*
X82960000Y-91520000D02*
X76560000Y-91520000D01*
X82960000Y-101520000D02*
X82960000Y-91520000D01*
X76560000Y-101520000D02*
X82960000Y-101520000D01*
X82010000Y-96520000D02*
G75*
G03X82010000Y-96520000I-1850000J0D01*
G01*
X62230000Y-78740000D02*
X58420000Y-78740000D01*
X62230000Y-81280000D02*
X58420000Y-81280000D01*
X62230000Y-83820000D02*
X58420000Y-83820000D01*
X62230000Y-76280000D02*
X62230000Y-86280000D01*
X71480000Y-76280000D02*
X62230000Y-76280000D01*
X71480000Y-86280000D02*
X71480000Y-76280000D01*
X62230000Y-86280000D02*
X71480000Y-86280000D01*
X71480000Y-76280000D02*
X71480000Y-86280000D01*
X77880000Y-76280000D02*
X71480000Y-76280000D01*
X77880000Y-86280000D02*
X77880000Y-76280000D01*
X71480000Y-86280000D02*
X77880000Y-86280000D01*
X76930000Y-81280000D02*
G75*
G03X76930000Y-81280000I-1850000J0D01*
G01*
X57150000Y-63500000D02*
X53340000Y-63500000D01*
X57150000Y-66040000D02*
X53340000Y-66040000D01*
X57150000Y-68580000D02*
X53340000Y-68580000D01*
X57150000Y-61040000D02*
X57150000Y-71040000D01*
X66400000Y-61040000D02*
X57150000Y-61040000D01*
X66400000Y-71040000D02*
X66400000Y-61040000D01*
X57150000Y-71040000D02*
X66400000Y-71040000D01*
X66400000Y-61040000D02*
X66400000Y-71040000D01*
X72800000Y-61040000D02*
X66400000Y-61040000D01*
X72800000Y-71040000D02*
X72800000Y-61040000D01*
X66400000Y-71040000D02*
X72800000Y-71040000D01*
X71850000Y-66040000D02*
G75*
G03X71850000Y-66040000I-1850000J0D01*
G01*
X190262000Y-129445000D02*
X190262000Y-141445000D01*
X190262000Y-141445000D02*
X202422000Y-141445000D01*
X202422000Y-141445000D02*
X202422000Y-129445000D01*
X202422000Y-129445000D02*
X190262000Y-129445000D01*
X194752000Y-129445000D02*
X193802000Y-130945000D01*
X193802000Y-130945000D02*
X192852000Y-129445000D01*
X102957500Y-133185000D02*
X106157500Y-133185000D01*
X102957500Y-134785000D02*
X102957500Y-133185000D01*
X106157500Y-134785000D02*
X102957500Y-134785000D01*
X106157500Y-133185000D02*
X106157500Y-134785000D01*
X126878956Y-133530000D02*
X126878956Y-133030000D01*
X127128956Y-133280000D02*
X126628956Y-133280000D01*
X127745000Y-130430000D02*
X126745000Y-129430000D01*
X127745000Y-133730000D02*
X126745000Y-134730000D01*
X127745000Y-133730000D02*
X127745000Y-130430000D01*
X126745000Y-129430000D02*
X122445000Y-129430000D01*
X126745000Y-134730000D02*
X122445000Y-134730000D01*
X122445000Y-134730000D02*
X122445000Y-129430000D01*
X127595000Y-132080000D02*
G75*
G03X127595000Y-132080000I-2500000J0D01*
G01*
X148502500Y-124930000D02*
X148502500Y-126530000D01*
X148502500Y-126530000D02*
X145302500Y-126530000D01*
X145302500Y-126530000D02*
X145302500Y-124930000D01*
X145302500Y-124930000D02*
X148502500Y-124930000D01*
X149820000Y-132080000D02*
G75*
G03X149820000Y-132080000I-2500000J0D01*
G01*
X144670000Y-134730000D02*
X144670000Y-129430000D01*
X148970000Y-134730000D02*
X144670000Y-134730000D01*
X148970000Y-129430000D02*
X144670000Y-129430000D01*
X149970000Y-133730000D02*
X149970000Y-130430000D01*
X149970000Y-133730000D02*
X148970000Y-134730000D01*
X149970000Y-130430000D02*
X148970000Y-129430000D01*
X149353956Y-133280000D02*
X148853956Y-133280000D01*
X149103956Y-133530000D02*
X149103956Y-133030000D01*
X96250000Y-57880000D02*
X96250000Y-45880000D01*
X96250000Y-45880000D02*
X53610000Y-45880000D01*
X53610000Y-45880000D02*
X53610000Y-57880000D01*
X53610000Y-57880000D02*
X96250000Y-57880000D01*
X91760000Y-57880000D02*
X92710000Y-56380000D01*
X92710000Y-56380000D02*
X93660000Y-57880000D01*
X135890000Y-56380000D02*
X136840000Y-57880000D01*
X134940000Y-57880000D02*
X135890000Y-56380000D01*
X96790000Y-57880000D02*
X139430000Y-57880000D01*
X96790000Y-45880000D02*
X96790000Y-57880000D01*
X139430000Y-45880000D02*
X96790000Y-45880000D01*
X139430000Y-57880000D02*
X139430000Y-45880000D01*
X182610000Y-57880000D02*
X182610000Y-45880000D01*
X182610000Y-45880000D02*
X139970000Y-45880000D01*
X139970000Y-45880000D02*
X139970000Y-57880000D01*
X139970000Y-57880000D02*
X182610000Y-57880000D01*
X178120000Y-57880000D02*
X179070000Y-56380000D01*
X179070000Y-56380000D02*
X180020000Y-57880000D01*
X53610000Y-129445000D02*
X53610000Y-141445000D01*
X53610000Y-141445000D02*
X75930000Y-141445000D01*
X75930000Y-141445000D02*
X75930000Y-129445000D01*
X75930000Y-129445000D02*
X53610000Y-129445000D01*
X58100000Y-129445000D02*
X57150000Y-130945000D01*
X57150000Y-130945000D02*
X56200000Y-129445000D01*
X194945000Y-125095000D02*
X194945000Y-123190000D01*
X194945000Y-123190000D02*
X200025000Y-123190000D01*
X200025000Y-123190000D02*
X200025000Y-125730000D01*
X200025000Y-125730000D02*
X195580000Y-125730000D01*
X195580000Y-125730000D02*
X194945000Y-125095000D01*
X102322500Y-126200000D02*
X105522500Y-126200000D01*
X102322500Y-127800000D02*
X102322500Y-126200000D01*
X105522500Y-127800000D02*
X102322500Y-127800000D01*
X105522500Y-126200000D02*
X105522500Y-127800000D01*
X148502500Y-119850000D02*
X148502500Y-121450000D01*
X148502500Y-121450000D02*
X145302500Y-121450000D01*
X145302500Y-121450000D02*
X145302500Y-119850000D01*
X145302500Y-119850000D02*
X148502500Y-119850000D01*
X54140000Y-71207500D02*
X54140000Y-74407500D01*
X52540000Y-71207500D02*
X54140000Y-71207500D01*
X52540000Y-74407500D02*
X52540000Y-71207500D01*
X54140000Y-74407500D02*
X52540000Y-74407500D01*
X59220000Y-89647500D02*
X57620000Y-89647500D01*
X57620000Y-89647500D02*
X57620000Y-86447500D01*
X57620000Y-86447500D02*
X59220000Y-86447500D01*
X59220000Y-86447500D02*
X59220000Y-89647500D01*
X64300000Y-104887500D02*
X62700000Y-104887500D01*
X62700000Y-104887500D02*
X62700000Y-101687500D01*
X62700000Y-101687500D02*
X64300000Y-101687500D01*
X64300000Y-101687500D02*
X64300000Y-104887500D01*
X69380000Y-116927500D02*
X69380000Y-120127500D01*
X67780000Y-116927500D02*
X69380000Y-116927500D01*
X67780000Y-120127500D02*
X67780000Y-116927500D01*
X69380000Y-120127500D02*
X67780000Y-120127500D01*
X77000000Y-71207500D02*
X77000000Y-74407500D01*
X75400000Y-71207500D02*
X77000000Y-71207500D01*
X75400000Y-74407500D02*
X75400000Y-71207500D01*
X77000000Y-74407500D02*
X75400000Y-74407500D01*
X82080000Y-89647500D02*
X80480000Y-89647500D01*
X80480000Y-89647500D02*
X80480000Y-86447500D01*
X80480000Y-86447500D02*
X82080000Y-86447500D01*
X82080000Y-86447500D02*
X82080000Y-89647500D01*
X87160000Y-101687500D02*
X87160000Y-104887500D01*
X85560000Y-101687500D02*
X87160000Y-101687500D01*
X85560000Y-104887500D02*
X85560000Y-101687500D01*
X87160000Y-104887500D02*
X85560000Y-104887500D01*
X92240000Y-120127500D02*
X90640000Y-120127500D01*
X90640000Y-120127500D02*
X90640000Y-116927500D01*
X90640000Y-116927500D02*
X92240000Y-116927500D01*
X92240000Y-116927500D02*
X92240000Y-120127500D01*
X99860000Y-71207500D02*
X99860000Y-74407500D01*
X98260000Y-71207500D02*
X99860000Y-71207500D01*
X98260000Y-74407500D02*
X98260000Y-71207500D01*
X99860000Y-74407500D02*
X98260000Y-74407500D01*
X104940000Y-89647500D02*
X103340000Y-89647500D01*
X103340000Y-89647500D02*
X103340000Y-86447500D01*
X103340000Y-86447500D02*
X104940000Y-86447500D01*
X104940000Y-86447500D02*
X104940000Y-89647500D01*
X110020000Y-101687500D02*
X110020000Y-104887500D01*
X108420000Y-101687500D02*
X110020000Y-101687500D01*
X108420000Y-104887500D02*
X108420000Y-101687500D01*
X110020000Y-104887500D02*
X108420000Y-104887500D01*
X115100000Y-120127500D02*
X113500000Y-120127500D01*
X113500000Y-120127500D02*
X113500000Y-116927500D01*
X113500000Y-116927500D02*
X115100000Y-116927500D01*
X115100000Y-116927500D02*
X115100000Y-120127500D01*
X122720000Y-71207500D02*
X122720000Y-74407500D01*
X121120000Y-71207500D02*
X122720000Y-71207500D01*
X121120000Y-74407500D02*
X121120000Y-71207500D01*
X122720000Y-74407500D02*
X121120000Y-74407500D01*
X127800000Y-89647500D02*
X126200000Y-89647500D01*
X126200000Y-89647500D02*
X126200000Y-86447500D01*
X126200000Y-86447500D02*
X127800000Y-86447500D01*
X127800000Y-86447500D02*
X127800000Y-89647500D01*
X132880000Y-101687500D02*
X132880000Y-104887500D01*
X131280000Y-101687500D02*
X132880000Y-101687500D01*
X131280000Y-104887500D02*
X131280000Y-101687500D01*
X132880000Y-104887500D02*
X131280000Y-104887500D01*
X137960000Y-120127500D02*
X136360000Y-120127500D01*
X136360000Y-120127500D02*
X136360000Y-116927500D01*
X136360000Y-116927500D02*
X137960000Y-116927500D01*
X137960000Y-116927500D02*
X137960000Y-120127500D01*
X145580000Y-71207500D02*
X145580000Y-74407500D01*
X143980000Y-71207500D02*
X145580000Y-71207500D01*
X143980000Y-74407500D02*
X143980000Y-71207500D01*
X145580000Y-74407500D02*
X143980000Y-74407500D01*
X150660000Y-89647500D02*
X149060000Y-89647500D01*
X149060000Y-89647500D02*
X149060000Y-86447500D01*
X149060000Y-86447500D02*
X150660000Y-86447500D01*
X150660000Y-86447500D02*
X150660000Y-89647500D01*
X155740000Y-101687500D02*
X155740000Y-104887500D01*
X154140000Y-101687500D02*
X155740000Y-101687500D01*
X154140000Y-104887500D02*
X154140000Y-101687500D01*
X155740000Y-104887500D02*
X154140000Y-104887500D01*
X160820000Y-120127500D02*
X159220000Y-120127500D01*
X159220000Y-120127500D02*
X159220000Y-116927500D01*
X159220000Y-116927500D02*
X160820000Y-116927500D01*
X160820000Y-116927500D02*
X160820000Y-120127500D01*
X168440000Y-71207500D02*
X168440000Y-74407500D01*
X166840000Y-71207500D02*
X168440000Y-71207500D01*
X166840000Y-74407500D02*
X166840000Y-71207500D01*
X168440000Y-74407500D02*
X166840000Y-74407500D01*
X173520000Y-89647500D02*
X171920000Y-89647500D01*
X171920000Y-89647500D02*
X171920000Y-86447500D01*
X171920000Y-86447500D02*
X173520000Y-86447500D01*
X173520000Y-86447500D02*
X173520000Y-89647500D01*
X178600000Y-101687500D02*
X178600000Y-104887500D01*
X177000000Y-101687500D02*
X178600000Y-101687500D01*
X177000000Y-104887500D02*
X177000000Y-101687500D01*
X178600000Y-104887500D02*
X177000000Y-104887500D01*
X183680000Y-120127500D02*
X182080000Y-120127500D01*
X182080000Y-120127500D02*
X182080000Y-116927500D01*
X182080000Y-116927500D02*
X183680000Y-116927500D01*
X183680000Y-116927500D02*
X183680000Y-120127500D01*
D11*
X114230000Y-135025000D02*
X110830000Y-135025000D01*
X110830000Y-135025000D02*
X110830000Y-125325000D01*
X110830000Y-125325000D02*
X115230000Y-125325000D01*
X115230000Y-125325000D02*
X115230000Y-134025000D01*
X115230000Y-134025000D02*
X114230000Y-135025000D01*
X160950000Y-134025000D02*
X159950000Y-135025000D01*
X160950000Y-125325000D02*
X160950000Y-134025000D01*
X156550000Y-125325000D02*
X160950000Y-125325000D01*
X156550000Y-135025000D02*
X156550000Y-125325000D01*
X159950000Y-135025000D02*
X156550000Y-135025000D01*
D10*
X95799000Y-129167720D02*
X98724000Y-129167720D01*
X98724000Y-129167720D02*
X98724000Y-134067720D01*
X98724000Y-134067720D02*
X94824000Y-134067720D01*
X94824000Y-134067720D02*
X94824000Y-130142720D01*
X94824000Y-130142720D02*
X95799000Y-129167720D01*
D11*
X63342380Y-114301904D02*
X62866190Y-114635238D01*
X63342380Y-114873333D02*
X62342380Y-114873333D01*
X62342380Y-114492380D01*
X62390000Y-114397142D01*
X62437619Y-114349523D01*
X62532857Y-114301904D01*
X62675714Y-114301904D01*
X62770952Y-114349523D01*
X62818571Y-114397142D01*
X62866190Y-114492380D01*
X62866190Y-114873333D01*
X62961428Y-113873333D02*
X62961428Y-113111428D01*
X62342380Y-112730476D02*
X62342380Y-112063809D01*
X63342380Y-112492380D01*
X62770952Y-111540000D02*
X62723333Y-111635238D01*
X62675714Y-111682857D01*
X62580476Y-111730476D01*
X62532857Y-111730476D01*
X62437619Y-111682857D01*
X62390000Y-111635238D01*
X62342380Y-111540000D01*
X62342380Y-111349523D01*
X62390000Y-111254285D01*
X62437619Y-111206666D01*
X62532857Y-111159047D01*
X62580476Y-111159047D01*
X62675714Y-111206666D01*
X62723333Y-111254285D01*
X62770952Y-111349523D01*
X62770952Y-111540000D01*
X62818571Y-111635238D01*
X62866190Y-111682857D01*
X62961428Y-111730476D01*
X63151904Y-111730476D01*
X63247142Y-111682857D01*
X63294761Y-111635238D01*
X63342380Y-111540000D01*
X63342380Y-111349523D01*
X63294761Y-111254285D01*
X63247142Y-111206666D01*
X63151904Y-111159047D01*
X62961428Y-111159047D01*
X62866190Y-111206666D01*
X62818571Y-111254285D01*
X62770952Y-111349523D01*
X62342380Y-110254285D02*
X62342380Y-110730476D01*
X62818571Y-110778095D01*
X62770952Y-110730476D01*
X62723333Y-110635238D01*
X62723333Y-110397142D01*
X62770952Y-110301904D01*
X62818571Y-110254285D01*
X62913809Y-110206666D01*
X63151904Y-110206666D01*
X63247142Y-110254285D01*
X63294761Y-110301904D01*
X63342380Y-110397142D01*
X63342380Y-110635238D01*
X63294761Y-110730476D01*
X63247142Y-110778095D01*
X63247142Y-109778095D02*
X63294761Y-109730476D01*
X63342380Y-109778095D01*
X63294761Y-109825714D01*
X63247142Y-109778095D01*
X63342380Y-109778095D01*
X62342380Y-109111428D02*
X62342380Y-109016190D01*
X62390000Y-108920952D01*
X62437619Y-108873333D01*
X62532857Y-108825714D01*
X62723333Y-108778095D01*
X62961428Y-108778095D01*
X63151904Y-108825714D01*
X63247142Y-108873333D01*
X63294761Y-108920952D01*
X63342380Y-109016190D01*
X63342380Y-109111428D01*
X63294761Y-109206666D01*
X63247142Y-109254285D01*
X63151904Y-109301904D01*
X62961428Y-109349523D01*
X62723333Y-109349523D01*
X62532857Y-109301904D01*
X62437619Y-109254285D01*
X62390000Y-109206666D01*
X62342380Y-109111428D01*
X62961428Y-108349523D02*
X62961428Y-107587619D01*
X62342380Y-106920952D02*
X62342380Y-106825714D01*
X62390000Y-106730476D01*
X62437619Y-106682857D01*
X62532857Y-106635238D01*
X62723333Y-106587619D01*
X62961428Y-106587619D01*
X63151904Y-106635238D01*
X63247142Y-106682857D01*
X63294761Y-106730476D01*
X63342380Y-106825714D01*
X63342380Y-106920952D01*
X63294761Y-107016190D01*
X63247142Y-107063809D01*
X63151904Y-107111428D01*
X62961428Y-107159047D01*
X62723333Y-107159047D01*
X62532857Y-107111428D01*
X62437619Y-107063809D01*
X62390000Y-107016190D01*
X62342380Y-106920952D01*
X63247142Y-106159047D02*
X63294761Y-106111428D01*
X63342380Y-106159047D01*
X63294761Y-106206666D01*
X63247142Y-106159047D01*
X63342380Y-106159047D01*
X62342380Y-105206666D02*
X62342380Y-105682857D01*
X62818571Y-105730476D01*
X62770952Y-105682857D01*
X62723333Y-105587619D01*
X62723333Y-105349523D01*
X62770952Y-105254285D01*
X62818571Y-105206666D01*
X62913809Y-105159047D01*
X63151904Y-105159047D01*
X63247142Y-105206666D01*
X63294761Y-105254285D01*
X63342380Y-105349523D01*
X63342380Y-105587619D01*
X63294761Y-105682857D01*
X63247142Y-105730476D01*
X57732380Y-110971904D02*
X58541904Y-110971904D01*
X58637142Y-110924285D01*
X58684761Y-110876666D01*
X58732380Y-110781428D01*
X58732380Y-110590952D01*
X58684761Y-110495714D01*
X58637142Y-110448095D01*
X58541904Y-110400476D01*
X57732380Y-110400476D01*
X58065714Y-109495714D02*
X58732380Y-109495714D01*
X57684761Y-109733809D02*
X58399047Y-109971904D01*
X58399047Y-109352857D01*
X76898502Y-135528862D02*
X76850883Y-135576481D01*
X76708026Y-135624100D01*
X76612788Y-135624100D01*
X76469931Y-135576481D01*
X76374693Y-135481243D01*
X76327074Y-135386005D01*
X76279455Y-135195529D01*
X76279455Y-135052672D01*
X76327074Y-134862196D01*
X76374693Y-134766958D01*
X76469931Y-134671720D01*
X76612788Y-134624100D01*
X76708026Y-134624100D01*
X76850883Y-134671720D01*
X76898502Y-134719339D01*
X77469931Y-135624100D02*
X77374693Y-135576481D01*
X77327074Y-135528862D01*
X77279455Y-135433624D01*
X77279455Y-135147910D01*
X77327074Y-135052672D01*
X77374693Y-135005053D01*
X77469931Y-134957434D01*
X77612788Y-134957434D01*
X77708026Y-135005053D01*
X77755645Y-135052672D01*
X77803264Y-135147910D01*
X77803264Y-135433624D01*
X77755645Y-135528862D01*
X77708026Y-135576481D01*
X77612788Y-135624100D01*
X77469931Y-135624100D01*
X78231836Y-134957434D02*
X78231836Y-135624100D01*
X78231836Y-135052672D02*
X78279455Y-135005053D01*
X78374693Y-134957434D01*
X78517550Y-134957434D01*
X78612788Y-135005053D01*
X78660407Y-135100291D01*
X78660407Y-135624100D01*
X79136598Y-134957434D02*
X79136598Y-135624100D01*
X79136598Y-135052672D02*
X79184217Y-135005053D01*
X79279455Y-134957434D01*
X79422312Y-134957434D01*
X79517550Y-135005053D01*
X79565169Y-135100291D01*
X79565169Y-135624100D01*
X79803264Y-135719339D02*
X80565169Y-135719339D01*
X80993740Y-134624100D02*
X81088979Y-134624100D01*
X81184217Y-134671720D01*
X81231836Y-134719339D01*
X81279455Y-134814577D01*
X81327074Y-135005053D01*
X81327074Y-135243148D01*
X81279455Y-135433624D01*
X81231836Y-135528862D01*
X81184217Y-135576481D01*
X81088979Y-135624100D01*
X80993740Y-135624100D01*
X80898502Y-135576481D01*
X80850883Y-135528862D01*
X80803264Y-135433624D01*
X80755645Y-135243148D01*
X80755645Y-135005053D01*
X80803264Y-134814577D01*
X80850883Y-134719339D01*
X80898502Y-134671720D01*
X80993740Y-134624100D01*
X81708026Y-134719339D02*
X81755645Y-134671720D01*
X81850883Y-134624100D01*
X82088979Y-134624100D01*
X82184217Y-134671720D01*
X82231836Y-134719339D01*
X82279455Y-134814577D01*
X82279455Y-134909815D01*
X82231836Y-135052672D01*
X81660407Y-135624100D01*
X82279455Y-135624100D01*
X82612788Y-135624100D02*
X83136598Y-134957434D01*
X82612788Y-134957434D02*
X83136598Y-135624100D01*
X83708026Y-134624100D02*
X83803264Y-134624100D01*
X83898502Y-134671720D01*
X83946121Y-134719339D01*
X83993740Y-134814577D01*
X84041360Y-135005053D01*
X84041360Y-135243148D01*
X83993740Y-135433624D01*
X83946121Y-135528862D01*
X83898502Y-135576481D01*
X83803264Y-135624100D01*
X83708026Y-135624100D01*
X83612788Y-135576481D01*
X83565169Y-135528862D01*
X83517550Y-135433624D01*
X83469931Y-135243148D01*
X83469931Y-135005053D01*
X83517550Y-134814577D01*
X83565169Y-134719339D01*
X83612788Y-134671720D01*
X83708026Y-134624100D01*
X84374693Y-134624100D02*
X84993740Y-134624100D01*
X84660407Y-135005053D01*
X84803264Y-135005053D01*
X84898502Y-135052672D01*
X84946121Y-135100291D01*
X84993740Y-135195529D01*
X84993740Y-135433624D01*
X84946121Y-135528862D01*
X84898502Y-135576481D01*
X84803264Y-135624100D01*
X84517550Y-135624100D01*
X84422312Y-135576481D01*
X84374693Y-135528862D01*
X85184217Y-135719339D02*
X85946121Y-135719339D01*
X86374693Y-134624100D02*
X86565169Y-134624100D01*
X86660407Y-134671720D01*
X86755645Y-134766958D01*
X86803264Y-134957434D01*
X86803264Y-135290767D01*
X86755645Y-135481243D01*
X86660407Y-135576481D01*
X86565169Y-135624100D01*
X86374693Y-135624100D01*
X86279455Y-135576481D01*
X86184217Y-135481243D01*
X86136598Y-135290767D01*
X86136598Y-134957434D01*
X86184217Y-134766958D01*
X86279455Y-134671720D01*
X86374693Y-134624100D01*
X87660407Y-135624100D02*
X87660407Y-134624100D01*
X87660407Y-135576481D02*
X87565169Y-135624100D01*
X87374693Y-135624100D01*
X87279455Y-135576481D01*
X87231836Y-135528862D01*
X87184217Y-135433624D01*
X87184217Y-135147910D01*
X87231836Y-135052672D01*
X87279455Y-135005053D01*
X87374693Y-134957434D01*
X87565169Y-134957434D01*
X87660407Y-135005053D01*
X88565169Y-135624100D02*
X88565169Y-134624100D01*
X88565169Y-135576481D02*
X88469931Y-135624100D01*
X88279455Y-135624100D01*
X88184217Y-135576481D01*
X88136598Y-135528862D01*
X88088979Y-135433624D01*
X88088979Y-135147910D01*
X88136598Y-135052672D01*
X88184217Y-135005053D01*
X88279455Y-134957434D01*
X88469931Y-134957434D01*
X88565169Y-135005053D01*
X88803264Y-135719339D02*
X89565169Y-135719339D01*
X89803264Y-135100291D02*
X90136598Y-135100291D01*
X90279455Y-135624100D02*
X89803264Y-135624100D01*
X89803264Y-134624100D01*
X90279455Y-134624100D01*
X90612788Y-134957434D02*
X90850883Y-135624100D01*
X91088979Y-134957434D01*
X91850883Y-135576481D02*
X91755645Y-135624100D01*
X91565169Y-135624100D01*
X91469931Y-135576481D01*
X91422312Y-135481243D01*
X91422312Y-135100291D01*
X91469931Y-135005053D01*
X91565169Y-134957434D01*
X91755645Y-134957434D01*
X91850883Y-135005053D01*
X91898502Y-135100291D01*
X91898502Y-135195529D01*
X91422312Y-135290767D01*
X92327074Y-134957434D02*
X92327074Y-135624100D01*
X92327074Y-135052672D02*
X92374693Y-135005053D01*
X92469931Y-134957434D01*
X92612788Y-134957434D01*
X92708026Y-135005053D01*
X92755645Y-135100291D01*
X92755645Y-135624100D01*
X84034380Y-132855714D02*
X84748666Y-132855714D01*
X84891523Y-132903333D01*
X84986761Y-132998571D01*
X85034380Y-133141428D01*
X85034380Y-133236666D01*
X85034380Y-131855714D02*
X85034380Y-132427142D01*
X85034380Y-132141428D02*
X84034380Y-132141428D01*
X84177238Y-132236666D01*
X84272476Y-132331904D01*
X84320095Y-132427142D01*
X84034380Y-131236666D02*
X84034380Y-131141428D01*
X84082000Y-131046190D01*
X84129619Y-130998571D01*
X84224857Y-130950952D01*
X84415333Y-130903333D01*
X84653428Y-130903333D01*
X84843904Y-130950952D01*
X84939142Y-130998571D01*
X84986761Y-131046190D01*
X85034380Y-131141428D01*
X85034380Y-131236666D01*
X84986761Y-131331904D01*
X84939142Y-131379523D01*
X84843904Y-131427142D01*
X84653428Y-131474761D01*
X84415333Y-131474761D01*
X84224857Y-131427142D01*
X84129619Y-131379523D01*
X84082000Y-131331904D01*
X84034380Y-131236666D01*
X84129619Y-130522380D02*
X84082000Y-130474761D01*
X84034380Y-130379523D01*
X84034380Y-130141428D01*
X84082000Y-130046190D01*
X84129619Y-129998571D01*
X84224857Y-129950952D01*
X84320095Y-129950952D01*
X84462952Y-129998571D01*
X85034380Y-130570000D01*
X85034380Y-129950952D01*
D12*
X104424166Y-131095714D02*
X104386071Y-131133809D01*
X104271785Y-131171904D01*
X104195595Y-131171904D01*
X104081309Y-131133809D01*
X104005119Y-131057619D01*
X103967023Y-130981428D01*
X103928928Y-130829047D01*
X103928928Y-130714761D01*
X103967023Y-130562380D01*
X104005119Y-130486190D01*
X104081309Y-130410000D01*
X104195595Y-130371904D01*
X104271785Y-130371904D01*
X104386071Y-130410000D01*
X104424166Y-130448095D01*
X105147976Y-130371904D02*
X104767023Y-130371904D01*
X104728928Y-130752857D01*
X104767023Y-130714761D01*
X104843214Y-130676666D01*
X105033690Y-130676666D01*
X105109880Y-130714761D01*
X105147976Y-130752857D01*
X105186071Y-130829047D01*
X105186071Y-131019523D01*
X105147976Y-131095714D01*
X105109880Y-131133809D01*
X105033690Y-131171904D01*
X104843214Y-131171904D01*
X104767023Y-131133809D01*
X104728928Y-131095714D01*
D11*
X112752380Y-114617142D02*
X111752380Y-114617142D01*
X112752380Y-113569523D02*
X112276190Y-113902857D01*
X112752380Y-114140952D02*
X111752380Y-114140952D01*
X111752380Y-113760000D01*
X111800000Y-113664761D01*
X111847619Y-113617142D01*
X111942857Y-113569523D01*
X112085714Y-113569523D01*
X112180952Y-113617142D01*
X112228571Y-113664761D01*
X112276190Y-113760000D01*
X112276190Y-114140952D01*
X112752380Y-112664761D02*
X112752380Y-113140952D01*
X111752380Y-113140952D01*
X111752380Y-112426666D02*
X111752380Y-111760000D01*
X112752380Y-112426666D01*
X112752380Y-111760000D01*
X112085714Y-110950476D02*
X112752380Y-110950476D01*
X111704761Y-111188571D02*
X112419047Y-111426666D01*
X112419047Y-110807619D01*
X112085714Y-109998095D02*
X112752380Y-109998095D01*
X111704761Y-110236190D02*
X112419047Y-110474285D01*
X112419047Y-109855238D01*
X112752380Y-109474285D02*
X111752380Y-109474285D01*
X112752380Y-108902857D01*
X111752380Y-108902857D01*
X135427619Y-112331428D02*
X135380000Y-112426666D01*
X135284761Y-112521904D01*
X135141904Y-112664761D01*
X135094285Y-112760000D01*
X135094285Y-112855238D01*
X135332380Y-112807619D02*
X135284761Y-112902857D01*
X135189523Y-112998095D01*
X134999047Y-113045714D01*
X134665714Y-113045714D01*
X134475238Y-112998095D01*
X134380000Y-112902857D01*
X134332380Y-112807619D01*
X134332380Y-112617142D01*
X134380000Y-112521904D01*
X134475238Y-112426666D01*
X134665714Y-112379047D01*
X134999047Y-112379047D01*
X135189523Y-112426666D01*
X135284761Y-112521904D01*
X135332380Y-112617142D01*
X135332380Y-112807619D01*
X135332380Y-111426666D02*
X135332380Y-111998095D01*
X135332380Y-111712380D02*
X134332380Y-111712380D01*
X134475238Y-111807619D01*
X134570476Y-111902857D01*
X134618095Y-111998095D01*
X134427619Y-111045714D02*
X134380000Y-110998095D01*
X134332380Y-110902857D01*
X134332380Y-110664761D01*
X134380000Y-110569523D01*
X134427619Y-110521904D01*
X134522857Y-110474285D01*
X134618095Y-110474285D01*
X134760952Y-110521904D01*
X135332380Y-111093333D01*
X135332380Y-110474285D01*
X181332380Y-114617142D02*
X180332380Y-114617142D01*
X181332380Y-113569523D02*
X180856190Y-113902857D01*
X181332380Y-114140952D02*
X180332380Y-114140952D01*
X180332380Y-113760000D01*
X180380000Y-113664761D01*
X180427619Y-113617142D01*
X180522857Y-113569523D01*
X180665714Y-113569523D01*
X180760952Y-113617142D01*
X180808571Y-113664761D01*
X180856190Y-113760000D01*
X180856190Y-114140952D01*
X181332380Y-112664761D02*
X181332380Y-113140952D01*
X180332380Y-113140952D01*
X180332380Y-112426666D02*
X180332380Y-111760000D01*
X181332380Y-112426666D01*
X181332380Y-111760000D01*
X180665714Y-110950476D02*
X181332380Y-110950476D01*
X180284761Y-111188571D02*
X180999047Y-111426666D01*
X180999047Y-110807619D01*
X180665714Y-109998095D02*
X181332380Y-109998095D01*
X180284761Y-110236190D02*
X180999047Y-110474285D01*
X180999047Y-109855238D01*
X181332380Y-109474285D02*
X180332380Y-109474285D01*
X181332380Y-108902857D01*
X180332380Y-108902857D01*
X204007619Y-112331428D02*
X203960000Y-112426666D01*
X203864761Y-112521904D01*
X203721904Y-112664761D01*
X203674285Y-112760000D01*
X203674285Y-112855238D01*
X203912380Y-112807619D02*
X203864761Y-112902857D01*
X203769523Y-112998095D01*
X203579047Y-113045714D01*
X203245714Y-113045714D01*
X203055238Y-112998095D01*
X202960000Y-112902857D01*
X202912380Y-112807619D01*
X202912380Y-112617142D01*
X202960000Y-112521904D01*
X203055238Y-112426666D01*
X203245714Y-112379047D01*
X203579047Y-112379047D01*
X203769523Y-112426666D01*
X203864761Y-112521904D01*
X203912380Y-112617142D01*
X203912380Y-112807619D01*
X203007619Y-111998095D02*
X202960000Y-111950476D01*
X202912380Y-111855238D01*
X202912380Y-111617142D01*
X202960000Y-111521904D01*
X203007619Y-111474285D01*
X203102857Y-111426666D01*
X203198095Y-111426666D01*
X203340952Y-111474285D01*
X203912380Y-112045714D01*
X203912380Y-111426666D01*
X203245714Y-110569523D02*
X203912380Y-110569523D01*
X202864761Y-110807619D02*
X203579047Y-111045714D01*
X203579047Y-110426666D01*
X176252380Y-99377142D02*
X175252380Y-99377142D01*
X176252380Y-98329523D02*
X175776190Y-98662857D01*
X176252380Y-98900952D02*
X175252380Y-98900952D01*
X175252380Y-98520000D01*
X175300000Y-98424761D01*
X175347619Y-98377142D01*
X175442857Y-98329523D01*
X175585714Y-98329523D01*
X175680952Y-98377142D01*
X175728571Y-98424761D01*
X175776190Y-98520000D01*
X175776190Y-98900952D01*
X176252380Y-97424761D02*
X176252380Y-97900952D01*
X175252380Y-97900952D01*
X175252380Y-97186666D02*
X175252380Y-96520000D01*
X176252380Y-97186666D01*
X176252380Y-96520000D01*
X175585714Y-95710476D02*
X176252380Y-95710476D01*
X175204761Y-95948571D02*
X175919047Y-96186666D01*
X175919047Y-95567619D01*
X175585714Y-94758095D02*
X176252380Y-94758095D01*
X175204761Y-94996190D02*
X175919047Y-95234285D01*
X175919047Y-94615238D01*
X176252380Y-94234285D02*
X175252380Y-94234285D01*
X176252380Y-93662857D01*
X175252380Y-93662857D01*
X198927619Y-97091428D02*
X198880000Y-97186666D01*
X198784761Y-97281904D01*
X198641904Y-97424761D01*
X198594285Y-97520000D01*
X198594285Y-97615238D01*
X198832380Y-97567619D02*
X198784761Y-97662857D01*
X198689523Y-97758095D01*
X198499047Y-97805714D01*
X198165714Y-97805714D01*
X197975238Y-97758095D01*
X197880000Y-97662857D01*
X197832380Y-97567619D01*
X197832380Y-97377142D01*
X197880000Y-97281904D01*
X197975238Y-97186666D01*
X198165714Y-97139047D01*
X198499047Y-97139047D01*
X198689523Y-97186666D01*
X198784761Y-97281904D01*
X198832380Y-97377142D01*
X198832380Y-97567619D01*
X197927619Y-96758095D02*
X197880000Y-96710476D01*
X197832380Y-96615238D01*
X197832380Y-96377142D01*
X197880000Y-96281904D01*
X197927619Y-96234285D01*
X198022857Y-96186666D01*
X198118095Y-96186666D01*
X198260952Y-96234285D01*
X198832380Y-96805714D01*
X198832380Y-96186666D01*
X197832380Y-95853333D02*
X197832380Y-95234285D01*
X198213333Y-95567619D01*
X198213333Y-95424761D01*
X198260952Y-95329523D01*
X198308571Y-95281904D01*
X198403809Y-95234285D01*
X198641904Y-95234285D01*
X198737142Y-95281904D01*
X198784761Y-95329523D01*
X198832380Y-95424761D01*
X198832380Y-95710476D01*
X198784761Y-95805714D01*
X198737142Y-95853333D01*
X171172380Y-84137142D02*
X170172380Y-84137142D01*
X171172380Y-83089523D02*
X170696190Y-83422857D01*
X171172380Y-83660952D02*
X170172380Y-83660952D01*
X170172380Y-83280000D01*
X170220000Y-83184761D01*
X170267619Y-83137142D01*
X170362857Y-83089523D01*
X170505714Y-83089523D01*
X170600952Y-83137142D01*
X170648571Y-83184761D01*
X170696190Y-83280000D01*
X170696190Y-83660952D01*
X171172380Y-82184761D02*
X171172380Y-82660952D01*
X170172380Y-82660952D01*
X170172380Y-81946666D02*
X170172380Y-81280000D01*
X171172380Y-81946666D01*
X171172380Y-81280000D01*
X170505714Y-80470476D02*
X171172380Y-80470476D01*
X170124761Y-80708571D02*
X170839047Y-80946666D01*
X170839047Y-80327619D01*
X170505714Y-79518095D02*
X171172380Y-79518095D01*
X170124761Y-79756190D02*
X170839047Y-79994285D01*
X170839047Y-79375238D01*
X171172380Y-78994285D02*
X170172380Y-78994285D01*
X171172380Y-78422857D01*
X170172380Y-78422857D01*
X193847619Y-81851428D02*
X193800000Y-81946666D01*
X193704761Y-82041904D01*
X193561904Y-82184761D01*
X193514285Y-82280000D01*
X193514285Y-82375238D01*
X193752380Y-82327619D02*
X193704761Y-82422857D01*
X193609523Y-82518095D01*
X193419047Y-82565714D01*
X193085714Y-82565714D01*
X192895238Y-82518095D01*
X192800000Y-82422857D01*
X192752380Y-82327619D01*
X192752380Y-82137142D01*
X192800000Y-82041904D01*
X192895238Y-81946666D01*
X193085714Y-81899047D01*
X193419047Y-81899047D01*
X193609523Y-81946666D01*
X193704761Y-82041904D01*
X193752380Y-82137142D01*
X193752380Y-82327619D01*
X192847619Y-81518095D02*
X192800000Y-81470476D01*
X192752380Y-81375238D01*
X192752380Y-81137142D01*
X192800000Y-81041904D01*
X192847619Y-80994285D01*
X192942857Y-80946666D01*
X193038095Y-80946666D01*
X193180952Y-80994285D01*
X193752380Y-81565714D01*
X193752380Y-80946666D01*
X192847619Y-80565714D02*
X192800000Y-80518095D01*
X192752380Y-80422857D01*
X192752380Y-80184761D01*
X192800000Y-80089523D01*
X192847619Y-80041904D01*
X192942857Y-79994285D01*
X193038095Y-79994285D01*
X193180952Y-80041904D01*
X193752380Y-80613333D01*
X193752380Y-79994285D01*
X166092380Y-68897142D02*
X165092380Y-68897142D01*
X166092380Y-67849523D02*
X165616190Y-68182857D01*
X166092380Y-68420952D02*
X165092380Y-68420952D01*
X165092380Y-68040000D01*
X165140000Y-67944761D01*
X165187619Y-67897142D01*
X165282857Y-67849523D01*
X165425714Y-67849523D01*
X165520952Y-67897142D01*
X165568571Y-67944761D01*
X165616190Y-68040000D01*
X165616190Y-68420952D01*
X166092380Y-66944761D02*
X166092380Y-67420952D01*
X165092380Y-67420952D01*
X165092380Y-66706666D02*
X165092380Y-66040000D01*
X166092380Y-66706666D01*
X166092380Y-66040000D01*
X165425714Y-65230476D02*
X166092380Y-65230476D01*
X165044761Y-65468571D02*
X165759047Y-65706666D01*
X165759047Y-65087619D01*
X165425714Y-64278095D02*
X166092380Y-64278095D01*
X165044761Y-64516190D02*
X165759047Y-64754285D01*
X165759047Y-64135238D01*
X166092380Y-63754285D02*
X165092380Y-63754285D01*
X166092380Y-63182857D01*
X165092380Y-63182857D01*
X188767619Y-66611428D02*
X188720000Y-66706666D01*
X188624761Y-66801904D01*
X188481904Y-66944761D01*
X188434285Y-67040000D01*
X188434285Y-67135238D01*
X188672380Y-67087619D02*
X188624761Y-67182857D01*
X188529523Y-67278095D01*
X188339047Y-67325714D01*
X188005714Y-67325714D01*
X187815238Y-67278095D01*
X187720000Y-67182857D01*
X187672380Y-67087619D01*
X187672380Y-66897142D01*
X187720000Y-66801904D01*
X187815238Y-66706666D01*
X188005714Y-66659047D01*
X188339047Y-66659047D01*
X188529523Y-66706666D01*
X188624761Y-66801904D01*
X188672380Y-66897142D01*
X188672380Y-67087619D01*
X187767619Y-66278095D02*
X187720000Y-66230476D01*
X187672380Y-66135238D01*
X187672380Y-65897142D01*
X187720000Y-65801904D01*
X187767619Y-65754285D01*
X187862857Y-65706666D01*
X187958095Y-65706666D01*
X188100952Y-65754285D01*
X188672380Y-66325714D01*
X188672380Y-65706666D01*
X188672380Y-64754285D02*
X188672380Y-65325714D01*
X188672380Y-65040000D02*
X187672380Y-65040000D01*
X187815238Y-65135238D01*
X187910476Y-65230476D01*
X187958095Y-65325714D01*
X158472380Y-114617142D02*
X157472380Y-114617142D01*
X158472380Y-113569523D02*
X157996190Y-113902857D01*
X158472380Y-114140952D02*
X157472380Y-114140952D01*
X157472380Y-113760000D01*
X157520000Y-113664761D01*
X157567619Y-113617142D01*
X157662857Y-113569523D01*
X157805714Y-113569523D01*
X157900952Y-113617142D01*
X157948571Y-113664761D01*
X157996190Y-113760000D01*
X157996190Y-114140952D01*
X158472380Y-112664761D02*
X158472380Y-113140952D01*
X157472380Y-113140952D01*
X157472380Y-112426666D02*
X157472380Y-111760000D01*
X158472380Y-112426666D01*
X158472380Y-111760000D01*
X157805714Y-110950476D02*
X158472380Y-110950476D01*
X157424761Y-111188571D02*
X158139047Y-111426666D01*
X158139047Y-110807619D01*
X157805714Y-109998095D02*
X158472380Y-109998095D01*
X157424761Y-110236190D02*
X158139047Y-110474285D01*
X158139047Y-109855238D01*
X158472380Y-109474285D02*
X157472380Y-109474285D01*
X158472380Y-108902857D01*
X157472380Y-108902857D01*
X181147619Y-112331428D02*
X181100000Y-112426666D01*
X181004761Y-112521904D01*
X180861904Y-112664761D01*
X180814285Y-112760000D01*
X180814285Y-112855238D01*
X181052380Y-112807619D02*
X181004761Y-112902857D01*
X180909523Y-112998095D01*
X180719047Y-113045714D01*
X180385714Y-113045714D01*
X180195238Y-112998095D01*
X180100000Y-112902857D01*
X180052380Y-112807619D01*
X180052380Y-112617142D01*
X180100000Y-112521904D01*
X180195238Y-112426666D01*
X180385714Y-112379047D01*
X180719047Y-112379047D01*
X180909523Y-112426666D01*
X181004761Y-112521904D01*
X181052380Y-112617142D01*
X181052380Y-112807619D01*
X180147619Y-111998095D02*
X180100000Y-111950476D01*
X180052380Y-111855238D01*
X180052380Y-111617142D01*
X180100000Y-111521904D01*
X180147619Y-111474285D01*
X180242857Y-111426666D01*
X180338095Y-111426666D01*
X180480952Y-111474285D01*
X181052380Y-112045714D01*
X181052380Y-111426666D01*
X180052380Y-110807619D02*
X180052380Y-110712380D01*
X180100000Y-110617142D01*
X180147619Y-110569523D01*
X180242857Y-110521904D01*
X180433333Y-110474285D01*
X180671428Y-110474285D01*
X180861904Y-110521904D01*
X180957142Y-110569523D01*
X181004761Y-110617142D01*
X181052380Y-110712380D01*
X181052380Y-110807619D01*
X181004761Y-110902857D01*
X180957142Y-110950476D01*
X180861904Y-110998095D01*
X180671428Y-111045714D01*
X180433333Y-111045714D01*
X180242857Y-110998095D01*
X180147619Y-110950476D01*
X180100000Y-110902857D01*
X180052380Y-110807619D01*
X153392380Y-99377142D02*
X152392380Y-99377142D01*
X153392380Y-98329523D02*
X152916190Y-98662857D01*
X153392380Y-98900952D02*
X152392380Y-98900952D01*
X152392380Y-98520000D01*
X152440000Y-98424761D01*
X152487619Y-98377142D01*
X152582857Y-98329523D01*
X152725714Y-98329523D01*
X152820952Y-98377142D01*
X152868571Y-98424761D01*
X152916190Y-98520000D01*
X152916190Y-98900952D01*
X153392380Y-97424761D02*
X153392380Y-97900952D01*
X152392380Y-97900952D01*
X152392380Y-97186666D02*
X152392380Y-96520000D01*
X153392380Y-97186666D01*
X153392380Y-96520000D01*
X152725714Y-95710476D02*
X153392380Y-95710476D01*
X152344761Y-95948571D02*
X153059047Y-96186666D01*
X153059047Y-95567619D01*
X152725714Y-94758095D02*
X153392380Y-94758095D01*
X152344761Y-94996190D02*
X153059047Y-95234285D01*
X153059047Y-94615238D01*
X153392380Y-94234285D02*
X152392380Y-94234285D01*
X153392380Y-93662857D01*
X152392380Y-93662857D01*
X176067619Y-97091428D02*
X176020000Y-97186666D01*
X175924761Y-97281904D01*
X175781904Y-97424761D01*
X175734285Y-97520000D01*
X175734285Y-97615238D01*
X175972380Y-97567619D02*
X175924761Y-97662857D01*
X175829523Y-97758095D01*
X175639047Y-97805714D01*
X175305714Y-97805714D01*
X175115238Y-97758095D01*
X175020000Y-97662857D01*
X174972380Y-97567619D01*
X174972380Y-97377142D01*
X175020000Y-97281904D01*
X175115238Y-97186666D01*
X175305714Y-97139047D01*
X175639047Y-97139047D01*
X175829523Y-97186666D01*
X175924761Y-97281904D01*
X175972380Y-97377142D01*
X175972380Y-97567619D01*
X175972380Y-96186666D02*
X175972380Y-96758095D01*
X175972380Y-96472380D02*
X174972380Y-96472380D01*
X175115238Y-96567619D01*
X175210476Y-96662857D01*
X175258095Y-96758095D01*
X175972380Y-95710476D02*
X175972380Y-95520000D01*
X175924761Y-95424761D01*
X175877142Y-95377142D01*
X175734285Y-95281904D01*
X175543809Y-95234285D01*
X175162857Y-95234285D01*
X175067619Y-95281904D01*
X175020000Y-95329523D01*
X174972380Y-95424761D01*
X174972380Y-95615238D01*
X175020000Y-95710476D01*
X175067619Y-95758095D01*
X175162857Y-95805714D01*
X175400952Y-95805714D01*
X175496190Y-95758095D01*
X175543809Y-95710476D01*
X175591428Y-95615238D01*
X175591428Y-95424761D01*
X175543809Y-95329523D01*
X175496190Y-95281904D01*
X175400952Y-95234285D01*
X148312380Y-84137142D02*
X147312380Y-84137142D01*
X148312380Y-83089523D02*
X147836190Y-83422857D01*
X148312380Y-83660952D02*
X147312380Y-83660952D01*
X147312380Y-83280000D01*
X147360000Y-83184761D01*
X147407619Y-83137142D01*
X147502857Y-83089523D01*
X147645714Y-83089523D01*
X147740952Y-83137142D01*
X147788571Y-83184761D01*
X147836190Y-83280000D01*
X147836190Y-83660952D01*
X148312380Y-82184761D02*
X148312380Y-82660952D01*
X147312380Y-82660952D01*
X147312380Y-81946666D02*
X147312380Y-81280000D01*
X148312380Y-81946666D01*
X148312380Y-81280000D01*
X147645714Y-80470476D02*
X148312380Y-80470476D01*
X147264761Y-80708571D02*
X147979047Y-80946666D01*
X147979047Y-80327619D01*
X147645714Y-79518095D02*
X148312380Y-79518095D01*
X147264761Y-79756190D02*
X147979047Y-79994285D01*
X147979047Y-79375238D01*
X148312380Y-78994285D02*
X147312380Y-78994285D01*
X148312380Y-78422857D01*
X147312380Y-78422857D01*
X170987619Y-81851428D02*
X170940000Y-81946666D01*
X170844761Y-82041904D01*
X170701904Y-82184761D01*
X170654285Y-82280000D01*
X170654285Y-82375238D01*
X170892380Y-82327619D02*
X170844761Y-82422857D01*
X170749523Y-82518095D01*
X170559047Y-82565714D01*
X170225714Y-82565714D01*
X170035238Y-82518095D01*
X169940000Y-82422857D01*
X169892380Y-82327619D01*
X169892380Y-82137142D01*
X169940000Y-82041904D01*
X170035238Y-81946666D01*
X170225714Y-81899047D01*
X170559047Y-81899047D01*
X170749523Y-81946666D01*
X170844761Y-82041904D01*
X170892380Y-82137142D01*
X170892380Y-82327619D01*
X170892380Y-80946666D02*
X170892380Y-81518095D01*
X170892380Y-81232380D02*
X169892380Y-81232380D01*
X170035238Y-81327619D01*
X170130476Y-81422857D01*
X170178095Y-81518095D01*
X170320952Y-80375238D02*
X170273333Y-80470476D01*
X170225714Y-80518095D01*
X170130476Y-80565714D01*
X170082857Y-80565714D01*
X169987619Y-80518095D01*
X169940000Y-80470476D01*
X169892380Y-80375238D01*
X169892380Y-80184761D01*
X169940000Y-80089523D01*
X169987619Y-80041904D01*
X170082857Y-79994285D01*
X170130476Y-79994285D01*
X170225714Y-80041904D01*
X170273333Y-80089523D01*
X170320952Y-80184761D01*
X170320952Y-80375238D01*
X170368571Y-80470476D01*
X170416190Y-80518095D01*
X170511428Y-80565714D01*
X170701904Y-80565714D01*
X170797142Y-80518095D01*
X170844761Y-80470476D01*
X170892380Y-80375238D01*
X170892380Y-80184761D01*
X170844761Y-80089523D01*
X170797142Y-80041904D01*
X170701904Y-79994285D01*
X170511428Y-79994285D01*
X170416190Y-80041904D01*
X170368571Y-80089523D01*
X170320952Y-80184761D01*
X143232380Y-68897142D02*
X142232380Y-68897142D01*
X143232380Y-67849523D02*
X142756190Y-68182857D01*
X143232380Y-68420952D02*
X142232380Y-68420952D01*
X142232380Y-68040000D01*
X142280000Y-67944761D01*
X142327619Y-67897142D01*
X142422857Y-67849523D01*
X142565714Y-67849523D01*
X142660952Y-67897142D01*
X142708571Y-67944761D01*
X142756190Y-68040000D01*
X142756190Y-68420952D01*
X143232380Y-66944761D02*
X143232380Y-67420952D01*
X142232380Y-67420952D01*
X142232380Y-66706666D02*
X142232380Y-66040000D01*
X143232380Y-66706666D01*
X143232380Y-66040000D01*
X142565714Y-65230476D02*
X143232380Y-65230476D01*
X142184761Y-65468571D02*
X142899047Y-65706666D01*
X142899047Y-65087619D01*
X142565714Y-64278095D02*
X143232380Y-64278095D01*
X142184761Y-64516190D02*
X142899047Y-64754285D01*
X142899047Y-64135238D01*
X143232380Y-63754285D02*
X142232380Y-63754285D01*
X143232380Y-63182857D01*
X142232380Y-63182857D01*
X165907619Y-66611428D02*
X165860000Y-66706666D01*
X165764761Y-66801904D01*
X165621904Y-66944761D01*
X165574285Y-67040000D01*
X165574285Y-67135238D01*
X165812380Y-67087619D02*
X165764761Y-67182857D01*
X165669523Y-67278095D01*
X165479047Y-67325714D01*
X165145714Y-67325714D01*
X164955238Y-67278095D01*
X164860000Y-67182857D01*
X164812380Y-67087619D01*
X164812380Y-66897142D01*
X164860000Y-66801904D01*
X164955238Y-66706666D01*
X165145714Y-66659047D01*
X165479047Y-66659047D01*
X165669523Y-66706666D01*
X165764761Y-66801904D01*
X165812380Y-66897142D01*
X165812380Y-67087619D01*
X165812380Y-65706666D02*
X165812380Y-66278095D01*
X165812380Y-65992380D02*
X164812380Y-65992380D01*
X164955238Y-66087619D01*
X165050476Y-66182857D01*
X165098095Y-66278095D01*
X164812380Y-65373333D02*
X164812380Y-64706666D01*
X165812380Y-65135238D01*
X135612380Y-114617142D02*
X134612380Y-114617142D01*
X135612380Y-113569523D02*
X135136190Y-113902857D01*
X135612380Y-114140952D02*
X134612380Y-114140952D01*
X134612380Y-113760000D01*
X134660000Y-113664761D01*
X134707619Y-113617142D01*
X134802857Y-113569523D01*
X134945714Y-113569523D01*
X135040952Y-113617142D01*
X135088571Y-113664761D01*
X135136190Y-113760000D01*
X135136190Y-114140952D01*
X135612380Y-112664761D02*
X135612380Y-113140952D01*
X134612380Y-113140952D01*
X134612380Y-112426666D02*
X134612380Y-111760000D01*
X135612380Y-112426666D01*
X135612380Y-111760000D01*
X134945714Y-110950476D02*
X135612380Y-110950476D01*
X134564761Y-111188571D02*
X135279047Y-111426666D01*
X135279047Y-110807619D01*
X134945714Y-109998095D02*
X135612380Y-109998095D01*
X134564761Y-110236190D02*
X135279047Y-110474285D01*
X135279047Y-109855238D01*
X135612380Y-109474285D02*
X134612380Y-109474285D01*
X135612380Y-108902857D01*
X134612380Y-108902857D01*
X158287619Y-112331428D02*
X158240000Y-112426666D01*
X158144761Y-112521904D01*
X158001904Y-112664761D01*
X157954285Y-112760000D01*
X157954285Y-112855238D01*
X158192380Y-112807619D02*
X158144761Y-112902857D01*
X158049523Y-112998095D01*
X157859047Y-113045714D01*
X157525714Y-113045714D01*
X157335238Y-112998095D01*
X157240000Y-112902857D01*
X157192380Y-112807619D01*
X157192380Y-112617142D01*
X157240000Y-112521904D01*
X157335238Y-112426666D01*
X157525714Y-112379047D01*
X157859047Y-112379047D01*
X158049523Y-112426666D01*
X158144761Y-112521904D01*
X158192380Y-112617142D01*
X158192380Y-112807619D01*
X158192380Y-111426666D02*
X158192380Y-111998095D01*
X158192380Y-111712380D02*
X157192380Y-111712380D01*
X157335238Y-111807619D01*
X157430476Y-111902857D01*
X157478095Y-111998095D01*
X157192380Y-110569523D02*
X157192380Y-110760000D01*
X157240000Y-110855238D01*
X157287619Y-110902857D01*
X157430476Y-110998095D01*
X157620952Y-111045714D01*
X158001904Y-111045714D01*
X158097142Y-110998095D01*
X158144761Y-110950476D01*
X158192380Y-110855238D01*
X158192380Y-110664761D01*
X158144761Y-110569523D01*
X158097142Y-110521904D01*
X158001904Y-110474285D01*
X157763809Y-110474285D01*
X157668571Y-110521904D01*
X157620952Y-110569523D01*
X157573333Y-110664761D01*
X157573333Y-110855238D01*
X157620952Y-110950476D01*
X157668571Y-110998095D01*
X157763809Y-111045714D01*
X130532380Y-99377142D02*
X129532380Y-99377142D01*
X130532380Y-98329523D02*
X130056190Y-98662857D01*
X130532380Y-98900952D02*
X129532380Y-98900952D01*
X129532380Y-98520000D01*
X129580000Y-98424761D01*
X129627619Y-98377142D01*
X129722857Y-98329523D01*
X129865714Y-98329523D01*
X129960952Y-98377142D01*
X130008571Y-98424761D01*
X130056190Y-98520000D01*
X130056190Y-98900952D01*
X130532380Y-97424761D02*
X130532380Y-97900952D01*
X129532380Y-97900952D01*
X129532380Y-97186666D02*
X129532380Y-96520000D01*
X130532380Y-97186666D01*
X130532380Y-96520000D01*
X129865714Y-95710476D02*
X130532380Y-95710476D01*
X129484761Y-95948571D02*
X130199047Y-96186666D01*
X130199047Y-95567619D01*
X129865714Y-94758095D02*
X130532380Y-94758095D01*
X129484761Y-94996190D02*
X130199047Y-95234285D01*
X130199047Y-94615238D01*
X130532380Y-94234285D02*
X129532380Y-94234285D01*
X130532380Y-93662857D01*
X129532380Y-93662857D01*
X153207619Y-97091428D02*
X153160000Y-97186666D01*
X153064761Y-97281904D01*
X152921904Y-97424761D01*
X152874285Y-97520000D01*
X152874285Y-97615238D01*
X153112380Y-97567619D02*
X153064761Y-97662857D01*
X152969523Y-97758095D01*
X152779047Y-97805714D01*
X152445714Y-97805714D01*
X152255238Y-97758095D01*
X152160000Y-97662857D01*
X152112380Y-97567619D01*
X152112380Y-97377142D01*
X152160000Y-97281904D01*
X152255238Y-97186666D01*
X152445714Y-97139047D01*
X152779047Y-97139047D01*
X152969523Y-97186666D01*
X153064761Y-97281904D01*
X153112380Y-97377142D01*
X153112380Y-97567619D01*
X153112380Y-96186666D02*
X153112380Y-96758095D01*
X153112380Y-96472380D02*
X152112380Y-96472380D01*
X152255238Y-96567619D01*
X152350476Y-96662857D01*
X152398095Y-96758095D01*
X152112380Y-95281904D02*
X152112380Y-95758095D01*
X152588571Y-95805714D01*
X152540952Y-95758095D01*
X152493333Y-95662857D01*
X152493333Y-95424761D01*
X152540952Y-95329523D01*
X152588571Y-95281904D01*
X152683809Y-95234285D01*
X152921904Y-95234285D01*
X153017142Y-95281904D01*
X153064761Y-95329523D01*
X153112380Y-95424761D01*
X153112380Y-95662857D01*
X153064761Y-95758095D01*
X153017142Y-95805714D01*
X125452380Y-84137142D02*
X124452380Y-84137142D01*
X125452380Y-83089523D02*
X124976190Y-83422857D01*
X125452380Y-83660952D02*
X124452380Y-83660952D01*
X124452380Y-83280000D01*
X124500000Y-83184761D01*
X124547619Y-83137142D01*
X124642857Y-83089523D01*
X124785714Y-83089523D01*
X124880952Y-83137142D01*
X124928571Y-83184761D01*
X124976190Y-83280000D01*
X124976190Y-83660952D01*
X125452380Y-82184761D02*
X125452380Y-82660952D01*
X124452380Y-82660952D01*
X124452380Y-81946666D02*
X124452380Y-81280000D01*
X125452380Y-81946666D01*
X125452380Y-81280000D01*
X124785714Y-80470476D02*
X125452380Y-80470476D01*
X124404761Y-80708571D02*
X125119047Y-80946666D01*
X125119047Y-80327619D01*
X124785714Y-79518095D02*
X125452380Y-79518095D01*
X124404761Y-79756190D02*
X125119047Y-79994285D01*
X125119047Y-79375238D01*
X125452380Y-78994285D02*
X124452380Y-78994285D01*
X125452380Y-78422857D01*
X124452380Y-78422857D01*
X148127619Y-81851428D02*
X148080000Y-81946666D01*
X147984761Y-82041904D01*
X147841904Y-82184761D01*
X147794285Y-82280000D01*
X147794285Y-82375238D01*
X148032380Y-82327619D02*
X147984761Y-82422857D01*
X147889523Y-82518095D01*
X147699047Y-82565714D01*
X147365714Y-82565714D01*
X147175238Y-82518095D01*
X147080000Y-82422857D01*
X147032380Y-82327619D01*
X147032380Y-82137142D01*
X147080000Y-82041904D01*
X147175238Y-81946666D01*
X147365714Y-81899047D01*
X147699047Y-81899047D01*
X147889523Y-81946666D01*
X147984761Y-82041904D01*
X148032380Y-82137142D01*
X148032380Y-82327619D01*
X148032380Y-80946666D02*
X148032380Y-81518095D01*
X148032380Y-81232380D02*
X147032380Y-81232380D01*
X147175238Y-81327619D01*
X147270476Y-81422857D01*
X147318095Y-81518095D01*
X147365714Y-80089523D02*
X148032380Y-80089523D01*
X146984761Y-80327619D02*
X147699047Y-80565714D01*
X147699047Y-79946666D01*
X120372380Y-68897142D02*
X119372380Y-68897142D01*
X120372380Y-67849523D02*
X119896190Y-68182857D01*
X120372380Y-68420952D02*
X119372380Y-68420952D01*
X119372380Y-68040000D01*
X119420000Y-67944761D01*
X119467619Y-67897142D01*
X119562857Y-67849523D01*
X119705714Y-67849523D01*
X119800952Y-67897142D01*
X119848571Y-67944761D01*
X119896190Y-68040000D01*
X119896190Y-68420952D01*
X120372380Y-66944761D02*
X120372380Y-67420952D01*
X119372380Y-67420952D01*
X119372380Y-66706666D02*
X119372380Y-66040000D01*
X120372380Y-66706666D01*
X120372380Y-66040000D01*
X119705714Y-65230476D02*
X120372380Y-65230476D01*
X119324761Y-65468571D02*
X120039047Y-65706666D01*
X120039047Y-65087619D01*
X119705714Y-64278095D02*
X120372380Y-64278095D01*
X119324761Y-64516190D02*
X120039047Y-64754285D01*
X120039047Y-64135238D01*
X120372380Y-63754285D02*
X119372380Y-63754285D01*
X120372380Y-63182857D01*
X119372380Y-63182857D01*
X143047619Y-66611428D02*
X143000000Y-66706666D01*
X142904761Y-66801904D01*
X142761904Y-66944761D01*
X142714285Y-67040000D01*
X142714285Y-67135238D01*
X142952380Y-67087619D02*
X142904761Y-67182857D01*
X142809523Y-67278095D01*
X142619047Y-67325714D01*
X142285714Y-67325714D01*
X142095238Y-67278095D01*
X142000000Y-67182857D01*
X141952380Y-67087619D01*
X141952380Y-66897142D01*
X142000000Y-66801904D01*
X142095238Y-66706666D01*
X142285714Y-66659047D01*
X142619047Y-66659047D01*
X142809523Y-66706666D01*
X142904761Y-66801904D01*
X142952380Y-66897142D01*
X142952380Y-67087619D01*
X142952380Y-65706666D02*
X142952380Y-66278095D01*
X142952380Y-65992380D02*
X141952380Y-65992380D01*
X142095238Y-66087619D01*
X142190476Y-66182857D01*
X142238095Y-66278095D01*
X141952380Y-65373333D02*
X141952380Y-64754285D01*
X142333333Y-65087619D01*
X142333333Y-64944761D01*
X142380952Y-64849523D01*
X142428571Y-64801904D01*
X142523809Y-64754285D01*
X142761904Y-64754285D01*
X142857142Y-64801904D01*
X142904761Y-64849523D01*
X142952380Y-64944761D01*
X142952380Y-65230476D01*
X142904761Y-65325714D01*
X142857142Y-65373333D01*
X107672380Y-99377142D02*
X106672380Y-99377142D01*
X107672380Y-98329523D02*
X107196190Y-98662857D01*
X107672380Y-98900952D02*
X106672380Y-98900952D01*
X106672380Y-98520000D01*
X106720000Y-98424761D01*
X106767619Y-98377142D01*
X106862857Y-98329523D01*
X107005714Y-98329523D01*
X107100952Y-98377142D01*
X107148571Y-98424761D01*
X107196190Y-98520000D01*
X107196190Y-98900952D01*
X107672380Y-97424761D02*
X107672380Y-97900952D01*
X106672380Y-97900952D01*
X106672380Y-97186666D02*
X106672380Y-96520000D01*
X107672380Y-97186666D01*
X107672380Y-96520000D01*
X107005714Y-95710476D02*
X107672380Y-95710476D01*
X106624761Y-95948571D02*
X107339047Y-96186666D01*
X107339047Y-95567619D01*
X107005714Y-94758095D02*
X107672380Y-94758095D01*
X106624761Y-94996190D02*
X107339047Y-95234285D01*
X107339047Y-94615238D01*
X107672380Y-94234285D02*
X106672380Y-94234285D01*
X107672380Y-93662857D01*
X106672380Y-93662857D01*
X130347619Y-97091428D02*
X130300000Y-97186666D01*
X130204761Y-97281904D01*
X130061904Y-97424761D01*
X130014285Y-97520000D01*
X130014285Y-97615238D01*
X130252380Y-97567619D02*
X130204761Y-97662857D01*
X130109523Y-97758095D01*
X129919047Y-97805714D01*
X129585714Y-97805714D01*
X129395238Y-97758095D01*
X129300000Y-97662857D01*
X129252380Y-97567619D01*
X129252380Y-97377142D01*
X129300000Y-97281904D01*
X129395238Y-97186666D01*
X129585714Y-97139047D01*
X129919047Y-97139047D01*
X130109523Y-97186666D01*
X130204761Y-97281904D01*
X130252380Y-97377142D01*
X130252380Y-97567619D01*
X130252380Y-96186666D02*
X130252380Y-96758095D01*
X130252380Y-96472380D02*
X129252380Y-96472380D01*
X129395238Y-96567619D01*
X129490476Y-96662857D01*
X129538095Y-96758095D01*
X130252380Y-95234285D02*
X130252380Y-95805714D01*
X130252380Y-95520000D02*
X129252380Y-95520000D01*
X129395238Y-95615238D01*
X129490476Y-95710476D01*
X129538095Y-95805714D01*
X102592380Y-84137142D02*
X101592380Y-84137142D01*
X102592380Y-83089523D02*
X102116190Y-83422857D01*
X102592380Y-83660952D02*
X101592380Y-83660952D01*
X101592380Y-83280000D01*
X101640000Y-83184761D01*
X101687619Y-83137142D01*
X101782857Y-83089523D01*
X101925714Y-83089523D01*
X102020952Y-83137142D01*
X102068571Y-83184761D01*
X102116190Y-83280000D01*
X102116190Y-83660952D01*
X102592380Y-82184761D02*
X102592380Y-82660952D01*
X101592380Y-82660952D01*
X101592380Y-81946666D02*
X101592380Y-81280000D01*
X102592380Y-81946666D01*
X102592380Y-81280000D01*
X101925714Y-80470476D02*
X102592380Y-80470476D01*
X101544761Y-80708571D02*
X102259047Y-80946666D01*
X102259047Y-80327619D01*
X101925714Y-79518095D02*
X102592380Y-79518095D01*
X101544761Y-79756190D02*
X102259047Y-79994285D01*
X102259047Y-79375238D01*
X102592380Y-78994285D02*
X101592380Y-78994285D01*
X102592380Y-78422857D01*
X101592380Y-78422857D01*
X125267619Y-81851428D02*
X125220000Y-81946666D01*
X125124761Y-82041904D01*
X124981904Y-82184761D01*
X124934285Y-82280000D01*
X124934285Y-82375238D01*
X125172380Y-82327619D02*
X125124761Y-82422857D01*
X125029523Y-82518095D01*
X124839047Y-82565714D01*
X124505714Y-82565714D01*
X124315238Y-82518095D01*
X124220000Y-82422857D01*
X124172380Y-82327619D01*
X124172380Y-82137142D01*
X124220000Y-82041904D01*
X124315238Y-81946666D01*
X124505714Y-81899047D01*
X124839047Y-81899047D01*
X125029523Y-81946666D01*
X125124761Y-82041904D01*
X125172380Y-82137142D01*
X125172380Y-82327619D01*
X125172380Y-80946666D02*
X125172380Y-81518095D01*
X125172380Y-81232380D02*
X124172380Y-81232380D01*
X124315238Y-81327619D01*
X124410476Y-81422857D01*
X124458095Y-81518095D01*
X124172380Y-80327619D02*
X124172380Y-80232380D01*
X124220000Y-80137142D01*
X124267619Y-80089523D01*
X124362857Y-80041904D01*
X124553333Y-79994285D01*
X124791428Y-79994285D01*
X124981904Y-80041904D01*
X125077142Y-80089523D01*
X125124761Y-80137142D01*
X125172380Y-80232380D01*
X125172380Y-80327619D01*
X125124761Y-80422857D01*
X125077142Y-80470476D01*
X124981904Y-80518095D01*
X124791428Y-80565714D01*
X124553333Y-80565714D01*
X124362857Y-80518095D01*
X124267619Y-80470476D01*
X124220000Y-80422857D01*
X124172380Y-80327619D01*
X97512380Y-68897142D02*
X96512380Y-68897142D01*
X97512380Y-67849523D02*
X97036190Y-68182857D01*
X97512380Y-68420952D02*
X96512380Y-68420952D01*
X96512380Y-68040000D01*
X96560000Y-67944761D01*
X96607619Y-67897142D01*
X96702857Y-67849523D01*
X96845714Y-67849523D01*
X96940952Y-67897142D01*
X96988571Y-67944761D01*
X97036190Y-68040000D01*
X97036190Y-68420952D01*
X97512380Y-66944761D02*
X97512380Y-67420952D01*
X96512380Y-67420952D01*
X96512380Y-66706666D02*
X96512380Y-66040000D01*
X97512380Y-66706666D01*
X97512380Y-66040000D01*
X96845714Y-65230476D02*
X97512380Y-65230476D01*
X96464761Y-65468571D02*
X97179047Y-65706666D01*
X97179047Y-65087619D01*
X96845714Y-64278095D02*
X97512380Y-64278095D01*
X96464761Y-64516190D02*
X97179047Y-64754285D01*
X97179047Y-64135238D01*
X97512380Y-63754285D02*
X96512380Y-63754285D01*
X97512380Y-63182857D01*
X96512380Y-63182857D01*
X120187619Y-66135238D02*
X120140000Y-66230476D01*
X120044761Y-66325714D01*
X119901904Y-66468571D01*
X119854285Y-66563809D01*
X119854285Y-66659047D01*
X120092380Y-66611428D02*
X120044761Y-66706666D01*
X119949523Y-66801904D01*
X119759047Y-66849523D01*
X119425714Y-66849523D01*
X119235238Y-66801904D01*
X119140000Y-66706666D01*
X119092380Y-66611428D01*
X119092380Y-66420952D01*
X119140000Y-66325714D01*
X119235238Y-66230476D01*
X119425714Y-66182857D01*
X119759047Y-66182857D01*
X119949523Y-66230476D01*
X120044761Y-66325714D01*
X120092380Y-66420952D01*
X120092380Y-66611428D01*
X120092380Y-65706666D02*
X120092380Y-65516190D01*
X120044761Y-65420952D01*
X119997142Y-65373333D01*
X119854285Y-65278095D01*
X119663809Y-65230476D01*
X119282857Y-65230476D01*
X119187619Y-65278095D01*
X119140000Y-65325714D01*
X119092380Y-65420952D01*
X119092380Y-65611428D01*
X119140000Y-65706666D01*
X119187619Y-65754285D01*
X119282857Y-65801904D01*
X119520952Y-65801904D01*
X119616190Y-65754285D01*
X119663809Y-65706666D01*
X119711428Y-65611428D01*
X119711428Y-65420952D01*
X119663809Y-65325714D01*
X119616190Y-65278095D01*
X119520952Y-65230476D01*
X89892380Y-114617142D02*
X88892380Y-114617142D01*
X89892380Y-113569523D02*
X89416190Y-113902857D01*
X89892380Y-114140952D02*
X88892380Y-114140952D01*
X88892380Y-113760000D01*
X88940000Y-113664761D01*
X88987619Y-113617142D01*
X89082857Y-113569523D01*
X89225714Y-113569523D01*
X89320952Y-113617142D01*
X89368571Y-113664761D01*
X89416190Y-113760000D01*
X89416190Y-114140952D01*
X89892380Y-112664761D02*
X89892380Y-113140952D01*
X88892380Y-113140952D01*
X88892380Y-112426666D02*
X88892380Y-111760000D01*
X89892380Y-112426666D01*
X89892380Y-111760000D01*
X89225714Y-110950476D02*
X89892380Y-110950476D01*
X88844761Y-111188571D02*
X89559047Y-111426666D01*
X89559047Y-110807619D01*
X89225714Y-109998095D02*
X89892380Y-109998095D01*
X88844761Y-110236190D02*
X89559047Y-110474285D01*
X89559047Y-109855238D01*
X89892380Y-109474285D02*
X88892380Y-109474285D01*
X89892380Y-108902857D01*
X88892380Y-108902857D01*
X112567619Y-111855238D02*
X112520000Y-111950476D01*
X112424761Y-112045714D01*
X112281904Y-112188571D01*
X112234285Y-112283809D01*
X112234285Y-112379047D01*
X112472380Y-112331428D02*
X112424761Y-112426666D01*
X112329523Y-112521904D01*
X112139047Y-112569523D01*
X111805714Y-112569523D01*
X111615238Y-112521904D01*
X111520000Y-112426666D01*
X111472380Y-112331428D01*
X111472380Y-112140952D01*
X111520000Y-112045714D01*
X111615238Y-111950476D01*
X111805714Y-111902857D01*
X112139047Y-111902857D01*
X112329523Y-111950476D01*
X112424761Y-112045714D01*
X112472380Y-112140952D01*
X112472380Y-112331428D01*
X111900952Y-111331428D02*
X111853333Y-111426666D01*
X111805714Y-111474285D01*
X111710476Y-111521904D01*
X111662857Y-111521904D01*
X111567619Y-111474285D01*
X111520000Y-111426666D01*
X111472380Y-111331428D01*
X111472380Y-111140952D01*
X111520000Y-111045714D01*
X111567619Y-110998095D01*
X111662857Y-110950476D01*
X111710476Y-110950476D01*
X111805714Y-110998095D01*
X111853333Y-111045714D01*
X111900952Y-111140952D01*
X111900952Y-111331428D01*
X111948571Y-111426666D01*
X111996190Y-111474285D01*
X112091428Y-111521904D01*
X112281904Y-111521904D01*
X112377142Y-111474285D01*
X112424761Y-111426666D01*
X112472380Y-111331428D01*
X112472380Y-111140952D01*
X112424761Y-111045714D01*
X112377142Y-110998095D01*
X112281904Y-110950476D01*
X112091428Y-110950476D01*
X111996190Y-110998095D01*
X111948571Y-111045714D01*
X111900952Y-111140952D01*
X84812380Y-99377142D02*
X83812380Y-99377142D01*
X84812380Y-98329523D02*
X84336190Y-98662857D01*
X84812380Y-98900952D02*
X83812380Y-98900952D01*
X83812380Y-98520000D01*
X83860000Y-98424761D01*
X83907619Y-98377142D01*
X84002857Y-98329523D01*
X84145714Y-98329523D01*
X84240952Y-98377142D01*
X84288571Y-98424761D01*
X84336190Y-98520000D01*
X84336190Y-98900952D01*
X84812380Y-97424761D02*
X84812380Y-97900952D01*
X83812380Y-97900952D01*
X83812380Y-97186666D02*
X83812380Y-96520000D01*
X84812380Y-97186666D01*
X84812380Y-96520000D01*
X84145714Y-95710476D02*
X84812380Y-95710476D01*
X83764761Y-95948571D02*
X84479047Y-96186666D01*
X84479047Y-95567619D01*
X84145714Y-94758095D02*
X84812380Y-94758095D01*
X83764761Y-94996190D02*
X84479047Y-95234285D01*
X84479047Y-94615238D01*
X84812380Y-94234285D02*
X83812380Y-94234285D01*
X84812380Y-93662857D01*
X83812380Y-93662857D01*
X107487619Y-96615238D02*
X107440000Y-96710476D01*
X107344761Y-96805714D01*
X107201904Y-96948571D01*
X107154285Y-97043809D01*
X107154285Y-97139047D01*
X107392380Y-97091428D02*
X107344761Y-97186666D01*
X107249523Y-97281904D01*
X107059047Y-97329523D01*
X106725714Y-97329523D01*
X106535238Y-97281904D01*
X106440000Y-97186666D01*
X106392380Y-97091428D01*
X106392380Y-96900952D01*
X106440000Y-96805714D01*
X106535238Y-96710476D01*
X106725714Y-96662857D01*
X107059047Y-96662857D01*
X107249523Y-96710476D01*
X107344761Y-96805714D01*
X107392380Y-96900952D01*
X107392380Y-97091428D01*
X106392380Y-96329523D02*
X106392380Y-95662857D01*
X107392380Y-96091428D01*
X79732380Y-84137142D02*
X78732380Y-84137142D01*
X79732380Y-83089523D02*
X79256190Y-83422857D01*
X79732380Y-83660952D02*
X78732380Y-83660952D01*
X78732380Y-83280000D01*
X78780000Y-83184761D01*
X78827619Y-83137142D01*
X78922857Y-83089523D01*
X79065714Y-83089523D01*
X79160952Y-83137142D01*
X79208571Y-83184761D01*
X79256190Y-83280000D01*
X79256190Y-83660952D01*
X79732380Y-82184761D02*
X79732380Y-82660952D01*
X78732380Y-82660952D01*
X78732380Y-81946666D02*
X78732380Y-81280000D01*
X79732380Y-81946666D01*
X79732380Y-81280000D01*
X79065714Y-80470476D02*
X79732380Y-80470476D01*
X78684761Y-80708571D02*
X79399047Y-80946666D01*
X79399047Y-80327619D01*
X79065714Y-79518095D02*
X79732380Y-79518095D01*
X78684761Y-79756190D02*
X79399047Y-79994285D01*
X79399047Y-79375238D01*
X79732380Y-78994285D02*
X78732380Y-78994285D01*
X79732380Y-78422857D01*
X78732380Y-78422857D01*
X102407619Y-81375238D02*
X102360000Y-81470476D01*
X102264761Y-81565714D01*
X102121904Y-81708571D01*
X102074285Y-81803809D01*
X102074285Y-81899047D01*
X102312380Y-81851428D02*
X102264761Y-81946666D01*
X102169523Y-82041904D01*
X101979047Y-82089523D01*
X101645714Y-82089523D01*
X101455238Y-82041904D01*
X101360000Y-81946666D01*
X101312380Y-81851428D01*
X101312380Y-81660952D01*
X101360000Y-81565714D01*
X101455238Y-81470476D01*
X101645714Y-81422857D01*
X101979047Y-81422857D01*
X102169523Y-81470476D01*
X102264761Y-81565714D01*
X102312380Y-81660952D01*
X102312380Y-81851428D01*
X101312380Y-80565714D02*
X101312380Y-80756190D01*
X101360000Y-80851428D01*
X101407619Y-80899047D01*
X101550476Y-80994285D01*
X101740952Y-81041904D01*
X102121904Y-81041904D01*
X102217142Y-80994285D01*
X102264761Y-80946666D01*
X102312380Y-80851428D01*
X102312380Y-80660952D01*
X102264761Y-80565714D01*
X102217142Y-80518095D01*
X102121904Y-80470476D01*
X101883809Y-80470476D01*
X101788571Y-80518095D01*
X101740952Y-80565714D01*
X101693333Y-80660952D01*
X101693333Y-80851428D01*
X101740952Y-80946666D01*
X101788571Y-80994285D01*
X101883809Y-81041904D01*
X74652380Y-68897142D02*
X73652380Y-68897142D01*
X74652380Y-67849523D02*
X74176190Y-68182857D01*
X74652380Y-68420952D02*
X73652380Y-68420952D01*
X73652380Y-68040000D01*
X73700000Y-67944761D01*
X73747619Y-67897142D01*
X73842857Y-67849523D01*
X73985714Y-67849523D01*
X74080952Y-67897142D01*
X74128571Y-67944761D01*
X74176190Y-68040000D01*
X74176190Y-68420952D01*
X74652380Y-66944761D02*
X74652380Y-67420952D01*
X73652380Y-67420952D01*
X73652380Y-66706666D02*
X73652380Y-66040000D01*
X74652380Y-66706666D01*
X74652380Y-66040000D01*
X73985714Y-65230476D02*
X74652380Y-65230476D01*
X73604761Y-65468571D02*
X74319047Y-65706666D01*
X74319047Y-65087619D01*
X73985714Y-64278095D02*
X74652380Y-64278095D01*
X73604761Y-64516190D02*
X74319047Y-64754285D01*
X74319047Y-64135238D01*
X74652380Y-63754285D02*
X73652380Y-63754285D01*
X74652380Y-63182857D01*
X73652380Y-63182857D01*
X97327619Y-66135238D02*
X97280000Y-66230476D01*
X97184761Y-66325714D01*
X97041904Y-66468571D01*
X96994285Y-66563809D01*
X96994285Y-66659047D01*
X97232380Y-66611428D02*
X97184761Y-66706666D01*
X97089523Y-66801904D01*
X96899047Y-66849523D01*
X96565714Y-66849523D01*
X96375238Y-66801904D01*
X96280000Y-66706666D01*
X96232380Y-66611428D01*
X96232380Y-66420952D01*
X96280000Y-66325714D01*
X96375238Y-66230476D01*
X96565714Y-66182857D01*
X96899047Y-66182857D01*
X97089523Y-66230476D01*
X97184761Y-66325714D01*
X97232380Y-66420952D01*
X97232380Y-66611428D01*
X96232380Y-65278095D02*
X96232380Y-65754285D01*
X96708571Y-65801904D01*
X96660952Y-65754285D01*
X96613333Y-65659047D01*
X96613333Y-65420952D01*
X96660952Y-65325714D01*
X96708571Y-65278095D01*
X96803809Y-65230476D01*
X97041904Y-65230476D01*
X97137142Y-65278095D01*
X97184761Y-65325714D01*
X97232380Y-65420952D01*
X97232380Y-65659047D01*
X97184761Y-65754285D01*
X97137142Y-65801904D01*
X67032380Y-114617142D02*
X66032380Y-114617142D01*
X67032380Y-113569523D02*
X66556190Y-113902857D01*
X67032380Y-114140952D02*
X66032380Y-114140952D01*
X66032380Y-113760000D01*
X66080000Y-113664761D01*
X66127619Y-113617142D01*
X66222857Y-113569523D01*
X66365714Y-113569523D01*
X66460952Y-113617142D01*
X66508571Y-113664761D01*
X66556190Y-113760000D01*
X66556190Y-114140952D01*
X67032380Y-112664761D02*
X67032380Y-113140952D01*
X66032380Y-113140952D01*
X66032380Y-112426666D02*
X66032380Y-111760000D01*
X67032380Y-112426666D01*
X67032380Y-111760000D01*
X66365714Y-110950476D02*
X67032380Y-110950476D01*
X65984761Y-111188571D02*
X66699047Y-111426666D01*
X66699047Y-110807619D01*
X66365714Y-109998095D02*
X67032380Y-109998095D01*
X65984761Y-110236190D02*
X66699047Y-110474285D01*
X66699047Y-109855238D01*
X67032380Y-109474285D02*
X66032380Y-109474285D01*
X67032380Y-108902857D01*
X66032380Y-108902857D01*
X89707619Y-111855238D02*
X89660000Y-111950476D01*
X89564761Y-112045714D01*
X89421904Y-112188571D01*
X89374285Y-112283809D01*
X89374285Y-112379047D01*
X89612380Y-112331428D02*
X89564761Y-112426666D01*
X89469523Y-112521904D01*
X89279047Y-112569523D01*
X88945714Y-112569523D01*
X88755238Y-112521904D01*
X88660000Y-112426666D01*
X88612380Y-112331428D01*
X88612380Y-112140952D01*
X88660000Y-112045714D01*
X88755238Y-111950476D01*
X88945714Y-111902857D01*
X89279047Y-111902857D01*
X89469523Y-111950476D01*
X89564761Y-112045714D01*
X89612380Y-112140952D01*
X89612380Y-112331428D01*
X88945714Y-111045714D02*
X89612380Y-111045714D01*
X88564761Y-111283809D02*
X89279047Y-111521904D01*
X89279047Y-110902857D01*
X61952380Y-99377142D02*
X60952380Y-99377142D01*
X61952380Y-98329523D02*
X61476190Y-98662857D01*
X61952380Y-98900952D02*
X60952380Y-98900952D01*
X60952380Y-98520000D01*
X61000000Y-98424761D01*
X61047619Y-98377142D01*
X61142857Y-98329523D01*
X61285714Y-98329523D01*
X61380952Y-98377142D01*
X61428571Y-98424761D01*
X61476190Y-98520000D01*
X61476190Y-98900952D01*
X61952380Y-97424761D02*
X61952380Y-97900952D01*
X60952380Y-97900952D01*
X60952380Y-97186666D02*
X60952380Y-96520000D01*
X61952380Y-97186666D01*
X61952380Y-96520000D01*
X61285714Y-95710476D02*
X61952380Y-95710476D01*
X60904761Y-95948571D02*
X61619047Y-96186666D01*
X61619047Y-95567619D01*
X61285714Y-94758095D02*
X61952380Y-94758095D01*
X60904761Y-94996190D02*
X61619047Y-95234285D01*
X61619047Y-94615238D01*
X61952380Y-94234285D02*
X60952380Y-94234285D01*
X61952380Y-93662857D01*
X60952380Y-93662857D01*
X84627619Y-96615238D02*
X84580000Y-96710476D01*
X84484761Y-96805714D01*
X84341904Y-96948571D01*
X84294285Y-97043809D01*
X84294285Y-97139047D01*
X84532380Y-97091428D02*
X84484761Y-97186666D01*
X84389523Y-97281904D01*
X84199047Y-97329523D01*
X83865714Y-97329523D01*
X83675238Y-97281904D01*
X83580000Y-97186666D01*
X83532380Y-97091428D01*
X83532380Y-96900952D01*
X83580000Y-96805714D01*
X83675238Y-96710476D01*
X83865714Y-96662857D01*
X84199047Y-96662857D01*
X84389523Y-96710476D01*
X84484761Y-96805714D01*
X84532380Y-96900952D01*
X84532380Y-97091428D01*
X83532380Y-96329523D02*
X83532380Y-95710476D01*
X83913333Y-96043809D01*
X83913333Y-95900952D01*
X83960952Y-95805714D01*
X84008571Y-95758095D01*
X84103809Y-95710476D01*
X84341904Y-95710476D01*
X84437142Y-95758095D01*
X84484761Y-95805714D01*
X84532380Y-95900952D01*
X84532380Y-96186666D01*
X84484761Y-96281904D01*
X84437142Y-96329523D01*
X56872380Y-84137142D02*
X55872380Y-84137142D01*
X56872380Y-83089523D02*
X56396190Y-83422857D01*
X56872380Y-83660952D02*
X55872380Y-83660952D01*
X55872380Y-83280000D01*
X55920000Y-83184761D01*
X55967619Y-83137142D01*
X56062857Y-83089523D01*
X56205714Y-83089523D01*
X56300952Y-83137142D01*
X56348571Y-83184761D01*
X56396190Y-83280000D01*
X56396190Y-83660952D01*
X56872380Y-82184761D02*
X56872380Y-82660952D01*
X55872380Y-82660952D01*
X55872380Y-81946666D02*
X55872380Y-81280000D01*
X56872380Y-81946666D01*
X56872380Y-81280000D01*
X56205714Y-80470476D02*
X56872380Y-80470476D01*
X55824761Y-80708571D02*
X56539047Y-80946666D01*
X56539047Y-80327619D01*
X56205714Y-79518095D02*
X56872380Y-79518095D01*
X55824761Y-79756190D02*
X56539047Y-79994285D01*
X56539047Y-79375238D01*
X56872380Y-78994285D02*
X55872380Y-78994285D01*
X56872380Y-78422857D01*
X55872380Y-78422857D01*
X79547619Y-81375238D02*
X79500000Y-81470476D01*
X79404761Y-81565714D01*
X79261904Y-81708571D01*
X79214285Y-81803809D01*
X79214285Y-81899047D01*
X79452380Y-81851428D02*
X79404761Y-81946666D01*
X79309523Y-82041904D01*
X79119047Y-82089523D01*
X78785714Y-82089523D01*
X78595238Y-82041904D01*
X78500000Y-81946666D01*
X78452380Y-81851428D01*
X78452380Y-81660952D01*
X78500000Y-81565714D01*
X78595238Y-81470476D01*
X78785714Y-81422857D01*
X79119047Y-81422857D01*
X79309523Y-81470476D01*
X79404761Y-81565714D01*
X79452380Y-81660952D01*
X79452380Y-81851428D01*
X78547619Y-81041904D02*
X78500000Y-80994285D01*
X78452380Y-80899047D01*
X78452380Y-80660952D01*
X78500000Y-80565714D01*
X78547619Y-80518095D01*
X78642857Y-80470476D01*
X78738095Y-80470476D01*
X78880952Y-80518095D01*
X79452380Y-81089523D01*
X79452380Y-80470476D01*
X51792380Y-68897142D02*
X50792380Y-68897142D01*
X51792380Y-67849523D02*
X51316190Y-68182857D01*
X51792380Y-68420952D02*
X50792380Y-68420952D01*
X50792380Y-68040000D01*
X50840000Y-67944761D01*
X50887619Y-67897142D01*
X50982857Y-67849523D01*
X51125714Y-67849523D01*
X51220952Y-67897142D01*
X51268571Y-67944761D01*
X51316190Y-68040000D01*
X51316190Y-68420952D01*
X51792380Y-66944761D02*
X51792380Y-67420952D01*
X50792380Y-67420952D01*
X50792380Y-66706666D02*
X50792380Y-66040000D01*
X51792380Y-66706666D01*
X51792380Y-66040000D01*
X51125714Y-65230476D02*
X51792380Y-65230476D01*
X50744761Y-65468571D02*
X51459047Y-65706666D01*
X51459047Y-65087619D01*
X51125714Y-64278095D02*
X51792380Y-64278095D01*
X50744761Y-64516190D02*
X51459047Y-64754285D01*
X51459047Y-64135238D01*
X51792380Y-63754285D02*
X50792380Y-63754285D01*
X51792380Y-63182857D01*
X50792380Y-63182857D01*
X74467619Y-66135238D02*
X74420000Y-66230476D01*
X74324761Y-66325714D01*
X74181904Y-66468571D01*
X74134285Y-66563809D01*
X74134285Y-66659047D01*
X74372380Y-66611428D02*
X74324761Y-66706666D01*
X74229523Y-66801904D01*
X74039047Y-66849523D01*
X73705714Y-66849523D01*
X73515238Y-66801904D01*
X73420000Y-66706666D01*
X73372380Y-66611428D01*
X73372380Y-66420952D01*
X73420000Y-66325714D01*
X73515238Y-66230476D01*
X73705714Y-66182857D01*
X74039047Y-66182857D01*
X74229523Y-66230476D01*
X74324761Y-66325714D01*
X74372380Y-66420952D01*
X74372380Y-66611428D01*
X74372380Y-65230476D02*
X74372380Y-65801904D01*
X74372380Y-65516190D02*
X73372380Y-65516190D01*
X73515238Y-65611428D01*
X73610476Y-65706666D01*
X73658095Y-65801904D01*
X192603904Y-143002142D02*
X192556285Y-143049761D01*
X192413428Y-143097380D01*
X192318190Y-143097380D01*
X192175333Y-143049761D01*
X192080095Y-142954523D01*
X192032476Y-142859285D01*
X191984857Y-142668809D01*
X191984857Y-142525952D01*
X192032476Y-142335476D01*
X192080095Y-142240238D01*
X192175333Y-142145000D01*
X192318190Y-142097380D01*
X192413428Y-142097380D01*
X192556285Y-142145000D01*
X192603904Y-142192619D01*
X193175333Y-143097380D02*
X193080095Y-143049761D01*
X193032476Y-143002142D01*
X192984857Y-142906904D01*
X192984857Y-142621190D01*
X193032476Y-142525952D01*
X193080095Y-142478333D01*
X193175333Y-142430714D01*
X193318190Y-142430714D01*
X193413428Y-142478333D01*
X193461047Y-142525952D01*
X193508666Y-142621190D01*
X193508666Y-142906904D01*
X193461047Y-143002142D01*
X193413428Y-143049761D01*
X193318190Y-143097380D01*
X193175333Y-143097380D01*
X193937238Y-142430714D02*
X193937238Y-143097380D01*
X193937238Y-142525952D02*
X193984857Y-142478333D01*
X194080095Y-142430714D01*
X194222952Y-142430714D01*
X194318190Y-142478333D01*
X194365809Y-142573571D01*
X194365809Y-143097380D01*
X194842000Y-142430714D02*
X194842000Y-143097380D01*
X194842000Y-142525952D02*
X194889619Y-142478333D01*
X194984857Y-142430714D01*
X195127714Y-142430714D01*
X195222952Y-142478333D01*
X195270571Y-142573571D01*
X195270571Y-143097380D01*
X195508666Y-143192619D02*
X196270571Y-143192619D01*
X196699142Y-142097380D02*
X196794380Y-142097380D01*
X196889619Y-142145000D01*
X196937238Y-142192619D01*
X196984857Y-142287857D01*
X197032476Y-142478333D01*
X197032476Y-142716428D01*
X196984857Y-142906904D01*
X196937238Y-143002142D01*
X196889619Y-143049761D01*
X196794380Y-143097380D01*
X196699142Y-143097380D01*
X196603904Y-143049761D01*
X196556285Y-143002142D01*
X196508666Y-142906904D01*
X196461047Y-142716428D01*
X196461047Y-142478333D01*
X196508666Y-142287857D01*
X196556285Y-142192619D01*
X196603904Y-142145000D01*
X196699142Y-142097380D01*
X197984857Y-143097380D02*
X197413428Y-143097380D01*
X197699142Y-143097380D02*
X197699142Y-142097380D01*
X197603904Y-142240238D01*
X197508666Y-142335476D01*
X197413428Y-142383095D01*
X198318190Y-143097380D02*
X198842000Y-142430714D01*
X198318190Y-142430714D02*
X198842000Y-143097380D01*
X199413428Y-142097380D02*
X199508666Y-142097380D01*
X199603904Y-142145000D01*
X199651523Y-142192619D01*
X199699142Y-142287857D01*
X199746761Y-142478333D01*
X199746761Y-142716428D01*
X199699142Y-142906904D01*
X199651523Y-143002142D01*
X199603904Y-143049761D01*
X199508666Y-143097380D01*
X199413428Y-143097380D01*
X199318190Y-143049761D01*
X199270571Y-143002142D01*
X199222952Y-142906904D01*
X199175333Y-142716428D01*
X199175333Y-142478333D01*
X199222952Y-142287857D01*
X199270571Y-142192619D01*
X199318190Y-142145000D01*
X199413428Y-142097380D01*
X200127714Y-142192619D02*
X200175333Y-142145000D01*
X200270571Y-142097380D01*
X200508666Y-142097380D01*
X200603904Y-142145000D01*
X200651523Y-142192619D01*
X200699142Y-142287857D01*
X200699142Y-142383095D01*
X200651523Y-142525952D01*
X200080095Y-143097380D01*
X200699142Y-143097380D01*
X195532476Y-129597380D02*
X195532476Y-130311666D01*
X195484857Y-130454523D01*
X195389619Y-130549761D01*
X195246761Y-130597380D01*
X195151523Y-130597380D01*
X196532476Y-130597380D02*
X195961047Y-130597380D01*
X196246761Y-130597380D02*
X196246761Y-129597380D01*
X196151523Y-129740238D01*
X196056285Y-129835476D01*
X195961047Y-129883095D01*
X197151523Y-129597380D02*
X197246761Y-129597380D01*
X197342000Y-129645000D01*
X197389619Y-129692619D01*
X197437238Y-129787857D01*
X197484857Y-129978333D01*
X197484857Y-130216428D01*
X197437238Y-130406904D01*
X197389619Y-130502142D01*
X197342000Y-130549761D01*
X197246761Y-130597380D01*
X197151523Y-130597380D01*
X197056285Y-130549761D01*
X197008666Y-130502142D01*
X196961047Y-130406904D01*
X196913428Y-130216428D01*
X196913428Y-129978333D01*
X196961047Y-129787857D01*
X197008666Y-129692619D01*
X197056285Y-129645000D01*
X197151523Y-129597380D01*
D12*
X104424166Y-134270714D02*
X104386071Y-134308809D01*
X104271785Y-134346904D01*
X104195595Y-134346904D01*
X104081309Y-134308809D01*
X104005119Y-134232619D01*
X103967023Y-134156428D01*
X103928928Y-134004047D01*
X103928928Y-133889761D01*
X103967023Y-133737380D01*
X104005119Y-133661190D01*
X104081309Y-133585000D01*
X104195595Y-133546904D01*
X104271785Y-133546904D01*
X104386071Y-133585000D01*
X104424166Y-133623095D01*
X105186071Y-134346904D02*
X104728928Y-134346904D01*
X104957500Y-134346904D02*
X104957500Y-133546904D01*
X104881309Y-133661190D01*
X104805119Y-133737380D01*
X104728928Y-133775476D01*
D11*
X124928333Y-132437142D02*
X124880714Y-132484761D01*
X124737857Y-132532380D01*
X124642619Y-132532380D01*
X124499761Y-132484761D01*
X124404523Y-132389523D01*
X124356904Y-132294285D01*
X124309285Y-132103809D01*
X124309285Y-131960952D01*
X124356904Y-131770476D01*
X124404523Y-131675238D01*
X124499761Y-131580000D01*
X124642619Y-131532380D01*
X124737857Y-131532380D01*
X124880714Y-131580000D01*
X124928333Y-131627619D01*
X125309285Y-131627619D02*
X125356904Y-131580000D01*
X125452142Y-131532380D01*
X125690238Y-131532380D01*
X125785476Y-131580000D01*
X125833095Y-131627619D01*
X125880714Y-131722857D01*
X125880714Y-131818095D01*
X125833095Y-131960952D01*
X125261666Y-132532380D01*
X125880714Y-132532380D01*
D12*
X146769166Y-126015714D02*
X146731071Y-126053809D01*
X146616785Y-126091904D01*
X146540595Y-126091904D01*
X146426309Y-126053809D01*
X146350119Y-125977619D01*
X146312023Y-125901428D01*
X146273928Y-125749047D01*
X146273928Y-125634761D01*
X146312023Y-125482380D01*
X146350119Y-125406190D01*
X146426309Y-125330000D01*
X146540595Y-125291904D01*
X146616785Y-125291904D01*
X146731071Y-125330000D01*
X146769166Y-125368095D01*
X147035833Y-125291904D02*
X147531071Y-125291904D01*
X147264404Y-125596666D01*
X147378690Y-125596666D01*
X147454880Y-125634761D01*
X147492976Y-125672857D01*
X147531071Y-125749047D01*
X147531071Y-125939523D01*
X147492976Y-126015714D01*
X147454880Y-126053809D01*
X147378690Y-126091904D01*
X147150119Y-126091904D01*
X147073928Y-126053809D01*
X147035833Y-126015714D01*
D11*
X147153333Y-132437142D02*
X147105714Y-132484761D01*
X146962857Y-132532380D01*
X146867619Y-132532380D01*
X146724761Y-132484761D01*
X146629523Y-132389523D01*
X146581904Y-132294285D01*
X146534285Y-132103809D01*
X146534285Y-131960952D01*
X146581904Y-131770476D01*
X146629523Y-131675238D01*
X146724761Y-131580000D01*
X146867619Y-131532380D01*
X146962857Y-131532380D01*
X147105714Y-131580000D01*
X147153333Y-131627619D01*
X148010476Y-131865714D02*
X148010476Y-132532380D01*
X147772380Y-131484761D02*
X147534285Y-132199047D01*
X148153333Y-132199047D01*
X71191904Y-45037142D02*
X71144285Y-45084761D01*
X71001428Y-45132380D01*
X70906190Y-45132380D01*
X70763333Y-45084761D01*
X70668095Y-44989523D01*
X70620476Y-44894285D01*
X70572857Y-44703809D01*
X70572857Y-44560952D01*
X70620476Y-44370476D01*
X70668095Y-44275238D01*
X70763333Y-44180000D01*
X70906190Y-44132380D01*
X71001428Y-44132380D01*
X71144285Y-44180000D01*
X71191904Y-44227619D01*
X71763333Y-45132380D02*
X71668095Y-45084761D01*
X71620476Y-45037142D01*
X71572857Y-44941904D01*
X71572857Y-44656190D01*
X71620476Y-44560952D01*
X71668095Y-44513333D01*
X71763333Y-44465714D01*
X71906190Y-44465714D01*
X72001428Y-44513333D01*
X72049047Y-44560952D01*
X72096666Y-44656190D01*
X72096666Y-44941904D01*
X72049047Y-45037142D01*
X72001428Y-45084761D01*
X71906190Y-45132380D01*
X71763333Y-45132380D01*
X72525238Y-44465714D02*
X72525238Y-45132380D01*
X72525238Y-44560952D02*
X72572857Y-44513333D01*
X72668095Y-44465714D01*
X72810952Y-44465714D01*
X72906190Y-44513333D01*
X72953809Y-44608571D01*
X72953809Y-45132380D01*
X73430000Y-44465714D02*
X73430000Y-45132380D01*
X73430000Y-44560952D02*
X73477619Y-44513333D01*
X73572857Y-44465714D01*
X73715714Y-44465714D01*
X73810952Y-44513333D01*
X73858571Y-44608571D01*
X73858571Y-45132380D01*
X74096666Y-45227619D02*
X74858571Y-45227619D01*
X75287142Y-44132380D02*
X75382380Y-44132380D01*
X75477619Y-44180000D01*
X75525238Y-44227619D01*
X75572857Y-44322857D01*
X75620476Y-44513333D01*
X75620476Y-44751428D01*
X75572857Y-44941904D01*
X75525238Y-45037142D01*
X75477619Y-45084761D01*
X75382380Y-45132380D01*
X75287142Y-45132380D01*
X75191904Y-45084761D01*
X75144285Y-45037142D01*
X75096666Y-44941904D01*
X75049047Y-44751428D01*
X75049047Y-44513333D01*
X75096666Y-44322857D01*
X75144285Y-44227619D01*
X75191904Y-44180000D01*
X75287142Y-44132380D01*
X76572857Y-45132380D02*
X76001428Y-45132380D01*
X76287142Y-45132380D02*
X76287142Y-44132380D01*
X76191904Y-44275238D01*
X76096666Y-44370476D01*
X76001428Y-44418095D01*
X76906190Y-45132380D02*
X77430000Y-44465714D01*
X76906190Y-44465714D02*
X77430000Y-45132380D01*
X78001428Y-44132380D02*
X78096666Y-44132380D01*
X78191904Y-44180000D01*
X78239523Y-44227619D01*
X78287142Y-44322857D01*
X78334761Y-44513333D01*
X78334761Y-44751428D01*
X78287142Y-44941904D01*
X78239523Y-45037142D01*
X78191904Y-45084761D01*
X78096666Y-45132380D01*
X78001428Y-45132380D01*
X77906190Y-45084761D01*
X77858571Y-45037142D01*
X77810952Y-44941904D01*
X77763333Y-44751428D01*
X77763333Y-44513333D01*
X77810952Y-44322857D01*
X77858571Y-44227619D01*
X77906190Y-44180000D01*
X78001428Y-44132380D01*
X78906190Y-44560952D02*
X78810952Y-44513333D01*
X78763333Y-44465714D01*
X78715714Y-44370476D01*
X78715714Y-44322857D01*
X78763333Y-44227619D01*
X78810952Y-44180000D01*
X78906190Y-44132380D01*
X79096666Y-44132380D01*
X79191904Y-44180000D01*
X79239523Y-44227619D01*
X79287142Y-44322857D01*
X79287142Y-44370476D01*
X79239523Y-44465714D01*
X79191904Y-44513333D01*
X79096666Y-44560952D01*
X78906190Y-44560952D01*
X78810952Y-44608571D01*
X78763333Y-44656190D01*
X78715714Y-44751428D01*
X78715714Y-44941904D01*
X78763333Y-45037142D01*
X78810952Y-45084761D01*
X78906190Y-45132380D01*
X79096666Y-45132380D01*
X79191904Y-45084761D01*
X79239523Y-45037142D01*
X79287142Y-44941904D01*
X79287142Y-44751428D01*
X79239523Y-44656190D01*
X79191904Y-44608571D01*
X79096666Y-44560952D01*
X74596666Y-56632380D02*
X74596666Y-57346666D01*
X74549047Y-57489523D01*
X74453809Y-57584761D01*
X74310952Y-57632380D01*
X74215714Y-57632380D01*
X75596666Y-57632380D02*
X75025238Y-57632380D01*
X75310952Y-57632380D02*
X75310952Y-56632380D01*
X75215714Y-56775238D01*
X75120476Y-56870476D01*
X75025238Y-56918095D01*
X114371904Y-45037142D02*
X114324285Y-45084761D01*
X114181428Y-45132380D01*
X114086190Y-45132380D01*
X113943333Y-45084761D01*
X113848095Y-44989523D01*
X113800476Y-44894285D01*
X113752857Y-44703809D01*
X113752857Y-44560952D01*
X113800476Y-44370476D01*
X113848095Y-44275238D01*
X113943333Y-44180000D01*
X114086190Y-44132380D01*
X114181428Y-44132380D01*
X114324285Y-44180000D01*
X114371904Y-44227619D01*
X114943333Y-45132380D02*
X114848095Y-45084761D01*
X114800476Y-45037142D01*
X114752857Y-44941904D01*
X114752857Y-44656190D01*
X114800476Y-44560952D01*
X114848095Y-44513333D01*
X114943333Y-44465714D01*
X115086190Y-44465714D01*
X115181428Y-44513333D01*
X115229047Y-44560952D01*
X115276666Y-44656190D01*
X115276666Y-44941904D01*
X115229047Y-45037142D01*
X115181428Y-45084761D01*
X115086190Y-45132380D01*
X114943333Y-45132380D01*
X115705238Y-44465714D02*
X115705238Y-45132380D01*
X115705238Y-44560952D02*
X115752857Y-44513333D01*
X115848095Y-44465714D01*
X115990952Y-44465714D01*
X116086190Y-44513333D01*
X116133809Y-44608571D01*
X116133809Y-45132380D01*
X116610000Y-44465714D02*
X116610000Y-45132380D01*
X116610000Y-44560952D02*
X116657619Y-44513333D01*
X116752857Y-44465714D01*
X116895714Y-44465714D01*
X116990952Y-44513333D01*
X117038571Y-44608571D01*
X117038571Y-45132380D01*
X117276666Y-45227619D02*
X118038571Y-45227619D01*
X118467142Y-44132380D02*
X118562380Y-44132380D01*
X118657619Y-44180000D01*
X118705238Y-44227619D01*
X118752857Y-44322857D01*
X118800476Y-44513333D01*
X118800476Y-44751428D01*
X118752857Y-44941904D01*
X118705238Y-45037142D01*
X118657619Y-45084761D01*
X118562380Y-45132380D01*
X118467142Y-45132380D01*
X118371904Y-45084761D01*
X118324285Y-45037142D01*
X118276666Y-44941904D01*
X118229047Y-44751428D01*
X118229047Y-44513333D01*
X118276666Y-44322857D01*
X118324285Y-44227619D01*
X118371904Y-44180000D01*
X118467142Y-44132380D01*
X119752857Y-45132380D02*
X119181428Y-45132380D01*
X119467142Y-45132380D02*
X119467142Y-44132380D01*
X119371904Y-44275238D01*
X119276666Y-44370476D01*
X119181428Y-44418095D01*
X120086190Y-45132380D02*
X120610000Y-44465714D01*
X120086190Y-44465714D02*
X120610000Y-45132380D01*
X121181428Y-44132380D02*
X121276666Y-44132380D01*
X121371904Y-44180000D01*
X121419523Y-44227619D01*
X121467142Y-44322857D01*
X121514761Y-44513333D01*
X121514761Y-44751428D01*
X121467142Y-44941904D01*
X121419523Y-45037142D01*
X121371904Y-45084761D01*
X121276666Y-45132380D01*
X121181428Y-45132380D01*
X121086190Y-45084761D01*
X121038571Y-45037142D01*
X120990952Y-44941904D01*
X120943333Y-44751428D01*
X120943333Y-44513333D01*
X120990952Y-44322857D01*
X121038571Y-44227619D01*
X121086190Y-44180000D01*
X121181428Y-44132380D01*
X122086190Y-44560952D02*
X121990952Y-44513333D01*
X121943333Y-44465714D01*
X121895714Y-44370476D01*
X121895714Y-44322857D01*
X121943333Y-44227619D01*
X121990952Y-44180000D01*
X122086190Y-44132380D01*
X122276666Y-44132380D01*
X122371904Y-44180000D01*
X122419523Y-44227619D01*
X122467142Y-44322857D01*
X122467142Y-44370476D01*
X122419523Y-44465714D01*
X122371904Y-44513333D01*
X122276666Y-44560952D01*
X122086190Y-44560952D01*
X121990952Y-44608571D01*
X121943333Y-44656190D01*
X121895714Y-44751428D01*
X121895714Y-44941904D01*
X121943333Y-45037142D01*
X121990952Y-45084761D01*
X122086190Y-45132380D01*
X122276666Y-45132380D01*
X122371904Y-45084761D01*
X122419523Y-45037142D01*
X122467142Y-44941904D01*
X122467142Y-44751428D01*
X122419523Y-44656190D01*
X122371904Y-44608571D01*
X122276666Y-44560952D01*
X117776666Y-56632380D02*
X117776666Y-57346666D01*
X117729047Y-57489523D01*
X117633809Y-57584761D01*
X117490952Y-57632380D01*
X117395714Y-57632380D01*
X118205238Y-56727619D02*
X118252857Y-56680000D01*
X118348095Y-56632380D01*
X118586190Y-56632380D01*
X118681428Y-56680000D01*
X118729047Y-56727619D01*
X118776666Y-56822857D01*
X118776666Y-56918095D01*
X118729047Y-57060952D01*
X118157619Y-57632380D01*
X118776666Y-57632380D01*
X157551904Y-45037142D02*
X157504285Y-45084761D01*
X157361428Y-45132380D01*
X157266190Y-45132380D01*
X157123333Y-45084761D01*
X157028095Y-44989523D01*
X156980476Y-44894285D01*
X156932857Y-44703809D01*
X156932857Y-44560952D01*
X156980476Y-44370476D01*
X157028095Y-44275238D01*
X157123333Y-44180000D01*
X157266190Y-44132380D01*
X157361428Y-44132380D01*
X157504285Y-44180000D01*
X157551904Y-44227619D01*
X158123333Y-45132380D02*
X158028095Y-45084761D01*
X157980476Y-45037142D01*
X157932857Y-44941904D01*
X157932857Y-44656190D01*
X157980476Y-44560952D01*
X158028095Y-44513333D01*
X158123333Y-44465714D01*
X158266190Y-44465714D01*
X158361428Y-44513333D01*
X158409047Y-44560952D01*
X158456666Y-44656190D01*
X158456666Y-44941904D01*
X158409047Y-45037142D01*
X158361428Y-45084761D01*
X158266190Y-45132380D01*
X158123333Y-45132380D01*
X158885238Y-44465714D02*
X158885238Y-45132380D01*
X158885238Y-44560952D02*
X158932857Y-44513333D01*
X159028095Y-44465714D01*
X159170952Y-44465714D01*
X159266190Y-44513333D01*
X159313809Y-44608571D01*
X159313809Y-45132380D01*
X159790000Y-44465714D02*
X159790000Y-45132380D01*
X159790000Y-44560952D02*
X159837619Y-44513333D01*
X159932857Y-44465714D01*
X160075714Y-44465714D01*
X160170952Y-44513333D01*
X160218571Y-44608571D01*
X160218571Y-45132380D01*
X160456666Y-45227619D02*
X161218571Y-45227619D01*
X161647142Y-44132380D02*
X161742380Y-44132380D01*
X161837619Y-44180000D01*
X161885238Y-44227619D01*
X161932857Y-44322857D01*
X161980476Y-44513333D01*
X161980476Y-44751428D01*
X161932857Y-44941904D01*
X161885238Y-45037142D01*
X161837619Y-45084761D01*
X161742380Y-45132380D01*
X161647142Y-45132380D01*
X161551904Y-45084761D01*
X161504285Y-45037142D01*
X161456666Y-44941904D01*
X161409047Y-44751428D01*
X161409047Y-44513333D01*
X161456666Y-44322857D01*
X161504285Y-44227619D01*
X161551904Y-44180000D01*
X161647142Y-44132380D01*
X162932857Y-45132380D02*
X162361428Y-45132380D01*
X162647142Y-45132380D02*
X162647142Y-44132380D01*
X162551904Y-44275238D01*
X162456666Y-44370476D01*
X162361428Y-44418095D01*
X163266190Y-45132380D02*
X163790000Y-44465714D01*
X163266190Y-44465714D02*
X163790000Y-45132380D01*
X164361428Y-44132380D02*
X164456666Y-44132380D01*
X164551904Y-44180000D01*
X164599523Y-44227619D01*
X164647142Y-44322857D01*
X164694761Y-44513333D01*
X164694761Y-44751428D01*
X164647142Y-44941904D01*
X164599523Y-45037142D01*
X164551904Y-45084761D01*
X164456666Y-45132380D01*
X164361428Y-45132380D01*
X164266190Y-45084761D01*
X164218571Y-45037142D01*
X164170952Y-44941904D01*
X164123333Y-44751428D01*
X164123333Y-44513333D01*
X164170952Y-44322857D01*
X164218571Y-44227619D01*
X164266190Y-44180000D01*
X164361428Y-44132380D01*
X165266190Y-44560952D02*
X165170952Y-44513333D01*
X165123333Y-44465714D01*
X165075714Y-44370476D01*
X165075714Y-44322857D01*
X165123333Y-44227619D01*
X165170952Y-44180000D01*
X165266190Y-44132380D01*
X165456666Y-44132380D01*
X165551904Y-44180000D01*
X165599523Y-44227619D01*
X165647142Y-44322857D01*
X165647142Y-44370476D01*
X165599523Y-44465714D01*
X165551904Y-44513333D01*
X165456666Y-44560952D01*
X165266190Y-44560952D01*
X165170952Y-44608571D01*
X165123333Y-44656190D01*
X165075714Y-44751428D01*
X165075714Y-44941904D01*
X165123333Y-45037142D01*
X165170952Y-45084761D01*
X165266190Y-45132380D01*
X165456666Y-45132380D01*
X165551904Y-45084761D01*
X165599523Y-45037142D01*
X165647142Y-44941904D01*
X165647142Y-44751428D01*
X165599523Y-44656190D01*
X165551904Y-44608571D01*
X165456666Y-44560952D01*
X160956666Y-56632380D02*
X160956666Y-57346666D01*
X160909047Y-57489523D01*
X160813809Y-57584761D01*
X160670952Y-57632380D01*
X160575714Y-57632380D01*
X161337619Y-56632380D02*
X161956666Y-56632380D01*
X161623333Y-57013333D01*
X161766190Y-57013333D01*
X161861428Y-57060952D01*
X161909047Y-57108571D01*
X161956666Y-57203809D01*
X161956666Y-57441904D01*
X161909047Y-57537142D01*
X161861428Y-57584761D01*
X161766190Y-57632380D01*
X161480476Y-57632380D01*
X161385238Y-57584761D01*
X161337619Y-57537142D01*
X61031904Y-143002142D02*
X60984285Y-143049761D01*
X60841428Y-143097380D01*
X60746190Y-143097380D01*
X60603333Y-143049761D01*
X60508095Y-142954523D01*
X60460476Y-142859285D01*
X60412857Y-142668809D01*
X60412857Y-142525952D01*
X60460476Y-142335476D01*
X60508095Y-142240238D01*
X60603333Y-142145000D01*
X60746190Y-142097380D01*
X60841428Y-142097380D01*
X60984285Y-142145000D01*
X61031904Y-142192619D01*
X61603333Y-143097380D02*
X61508095Y-143049761D01*
X61460476Y-143002142D01*
X61412857Y-142906904D01*
X61412857Y-142621190D01*
X61460476Y-142525952D01*
X61508095Y-142478333D01*
X61603333Y-142430714D01*
X61746190Y-142430714D01*
X61841428Y-142478333D01*
X61889047Y-142525952D01*
X61936666Y-142621190D01*
X61936666Y-142906904D01*
X61889047Y-143002142D01*
X61841428Y-143049761D01*
X61746190Y-143097380D01*
X61603333Y-143097380D01*
X62365238Y-142430714D02*
X62365238Y-143097380D01*
X62365238Y-142525952D02*
X62412857Y-142478333D01*
X62508095Y-142430714D01*
X62650952Y-142430714D01*
X62746190Y-142478333D01*
X62793809Y-142573571D01*
X62793809Y-143097380D01*
X63270000Y-142430714D02*
X63270000Y-143097380D01*
X63270000Y-142525952D02*
X63317619Y-142478333D01*
X63412857Y-142430714D01*
X63555714Y-142430714D01*
X63650952Y-142478333D01*
X63698571Y-142573571D01*
X63698571Y-143097380D01*
X63936666Y-143192619D02*
X64698571Y-143192619D01*
X65127142Y-142097380D02*
X65222380Y-142097380D01*
X65317619Y-142145000D01*
X65365238Y-142192619D01*
X65412857Y-142287857D01*
X65460476Y-142478333D01*
X65460476Y-142716428D01*
X65412857Y-142906904D01*
X65365238Y-143002142D01*
X65317619Y-143049761D01*
X65222380Y-143097380D01*
X65127142Y-143097380D01*
X65031904Y-143049761D01*
X64984285Y-143002142D01*
X64936666Y-142906904D01*
X64889047Y-142716428D01*
X64889047Y-142478333D01*
X64936666Y-142287857D01*
X64984285Y-142192619D01*
X65031904Y-142145000D01*
X65127142Y-142097380D01*
X66412857Y-143097380D02*
X65841428Y-143097380D01*
X66127142Y-143097380D02*
X66127142Y-142097380D01*
X66031904Y-142240238D01*
X65936666Y-142335476D01*
X65841428Y-142383095D01*
X66746190Y-143097380D02*
X67270000Y-142430714D01*
X66746190Y-142430714D02*
X67270000Y-143097380D01*
X67841428Y-142097380D02*
X67936666Y-142097380D01*
X68031904Y-142145000D01*
X68079523Y-142192619D01*
X68127142Y-142287857D01*
X68174761Y-142478333D01*
X68174761Y-142716428D01*
X68127142Y-142906904D01*
X68079523Y-143002142D01*
X68031904Y-143049761D01*
X67936666Y-143097380D01*
X67841428Y-143097380D01*
X67746190Y-143049761D01*
X67698571Y-143002142D01*
X67650952Y-142906904D01*
X67603333Y-142716428D01*
X67603333Y-142478333D01*
X67650952Y-142287857D01*
X67698571Y-142192619D01*
X67746190Y-142145000D01*
X67841428Y-142097380D01*
X69031904Y-142430714D02*
X69031904Y-143097380D01*
X68793809Y-142049761D02*
X68555714Y-142764047D01*
X69174761Y-142764047D01*
X64436666Y-129597380D02*
X64436666Y-130311666D01*
X64389047Y-130454523D01*
X64293809Y-130549761D01*
X64150952Y-130597380D01*
X64055714Y-130597380D01*
X64960476Y-130597380D02*
X65150952Y-130597380D01*
X65246190Y-130549761D01*
X65293809Y-130502142D01*
X65389047Y-130359285D01*
X65436666Y-130168809D01*
X65436666Y-129787857D01*
X65389047Y-129692619D01*
X65341428Y-129645000D01*
X65246190Y-129597380D01*
X65055714Y-129597380D01*
X64960476Y-129645000D01*
X64912857Y-129692619D01*
X64865238Y-129787857D01*
X64865238Y-130025952D01*
X64912857Y-130121190D01*
X64960476Y-130168809D01*
X65055714Y-130216428D01*
X65246190Y-130216428D01*
X65341428Y-130168809D01*
X65389047Y-130121190D01*
X65436666Y-130025952D01*
X201442142Y-130293333D02*
X201489761Y-130340952D01*
X201537380Y-130483809D01*
X201537380Y-130579047D01*
X201489761Y-130721904D01*
X201394523Y-130817142D01*
X201299285Y-130864761D01*
X201108809Y-130912380D01*
X200965952Y-130912380D01*
X200775476Y-130864761D01*
X200680238Y-130817142D01*
X200585000Y-130721904D01*
X200537380Y-130579047D01*
X200537380Y-130483809D01*
X200585000Y-130340952D01*
X200632619Y-130293333D01*
X201537380Y-129721904D02*
X201489761Y-129817142D01*
X201442142Y-129864761D01*
X201346904Y-129912380D01*
X201061190Y-129912380D01*
X200965952Y-129864761D01*
X200918333Y-129817142D01*
X200870714Y-129721904D01*
X200870714Y-129579047D01*
X200918333Y-129483809D01*
X200965952Y-129436190D01*
X201061190Y-129388571D01*
X201346904Y-129388571D01*
X201442142Y-129436190D01*
X201489761Y-129483809D01*
X201537380Y-129579047D01*
X201537380Y-129721904D01*
X200870714Y-128960000D02*
X201537380Y-128960000D01*
X200965952Y-128960000D02*
X200918333Y-128912380D01*
X200870714Y-128817142D01*
X200870714Y-128674285D01*
X200918333Y-128579047D01*
X201013571Y-128531428D01*
X201537380Y-128531428D01*
X200870714Y-128055238D02*
X201537380Y-128055238D01*
X200965952Y-128055238D02*
X200918333Y-128007619D01*
X200870714Y-127912380D01*
X200870714Y-127769523D01*
X200918333Y-127674285D01*
X201013571Y-127626666D01*
X201537380Y-127626666D01*
X201632619Y-127388571D02*
X201632619Y-126626666D01*
X200537380Y-126198095D02*
X200537380Y-126102857D01*
X200585000Y-126007619D01*
X200632619Y-125960000D01*
X200727857Y-125912380D01*
X200918333Y-125864761D01*
X201156428Y-125864761D01*
X201346904Y-125912380D01*
X201442142Y-125960000D01*
X201489761Y-126007619D01*
X201537380Y-126102857D01*
X201537380Y-126198095D01*
X201489761Y-126293333D01*
X201442142Y-126340952D01*
X201346904Y-126388571D01*
X201156428Y-126436190D01*
X200918333Y-126436190D01*
X200727857Y-126388571D01*
X200632619Y-126340952D01*
X200585000Y-126293333D01*
X200537380Y-126198095D01*
X201537380Y-124912380D02*
X201537380Y-125483809D01*
X201537380Y-125198095D02*
X200537380Y-125198095D01*
X200680238Y-125293333D01*
X200775476Y-125388571D01*
X200823095Y-125483809D01*
X201537380Y-124579047D02*
X200870714Y-124055238D01*
X200870714Y-124579047D02*
X201537380Y-124055238D01*
X200537380Y-123483809D02*
X200537380Y-123388571D01*
X200585000Y-123293333D01*
X200632619Y-123245714D01*
X200727857Y-123198095D01*
X200918333Y-123150476D01*
X201156428Y-123150476D01*
X201346904Y-123198095D01*
X201442142Y-123245714D01*
X201489761Y-123293333D01*
X201537380Y-123388571D01*
X201537380Y-123483809D01*
X201489761Y-123579047D01*
X201442142Y-123626666D01*
X201346904Y-123674285D01*
X201156428Y-123721904D01*
X200918333Y-123721904D01*
X200727857Y-123674285D01*
X200632619Y-123626666D01*
X200585000Y-123579047D01*
X200537380Y-123483809D01*
X200632619Y-122769523D02*
X200585000Y-122721904D01*
X200537380Y-122626666D01*
X200537380Y-122388571D01*
X200585000Y-122293333D01*
X200632619Y-122245714D01*
X200727857Y-122198095D01*
X200823095Y-122198095D01*
X200965952Y-122245714D01*
X201537380Y-122817142D01*
X201537380Y-122198095D01*
X201632619Y-122007619D02*
X201632619Y-121245714D01*
X201537380Y-121007619D02*
X200537380Y-121007619D01*
X201251666Y-120674285D01*
X200537380Y-120340952D01*
X201537380Y-120340952D01*
X201537380Y-119436190D02*
X201013571Y-119436190D01*
X200918333Y-119483809D01*
X200870714Y-119579047D01*
X200870714Y-119769523D01*
X200918333Y-119864761D01*
X201489761Y-119436190D02*
X201537380Y-119531428D01*
X201537380Y-119769523D01*
X201489761Y-119864761D01*
X201394523Y-119912380D01*
X201299285Y-119912380D01*
X201204047Y-119864761D01*
X201156428Y-119769523D01*
X201156428Y-119531428D01*
X201108809Y-119436190D01*
X201537380Y-118817142D02*
X201489761Y-118912380D01*
X201394523Y-118960000D01*
X200537380Y-118960000D01*
X201489761Y-118055238D02*
X201537380Y-118150476D01*
X201537380Y-118340952D01*
X201489761Y-118436190D01*
X201394523Y-118483809D01*
X201013571Y-118483809D01*
X200918333Y-118436190D01*
X200870714Y-118340952D01*
X200870714Y-118150476D01*
X200918333Y-118055238D01*
X201013571Y-118007619D01*
X201108809Y-118007619D01*
X201204047Y-118483809D01*
X196199285Y-123912380D02*
X196199285Y-124626666D01*
X196151666Y-124769523D01*
X196056428Y-124864761D01*
X195913571Y-124912380D01*
X195818333Y-124912380D01*
X197199285Y-124912380D02*
X196627857Y-124912380D01*
X196913571Y-124912380D02*
X196913571Y-123912380D01*
X196818333Y-124055238D01*
X196723095Y-124150476D01*
X196627857Y-124198095D01*
X197818333Y-123912380D02*
X197913571Y-123912380D01*
X198008809Y-123960000D01*
X198056428Y-124007619D01*
X198104047Y-124102857D01*
X198151666Y-124293333D01*
X198151666Y-124531428D01*
X198104047Y-124721904D01*
X198056428Y-124817142D01*
X198008809Y-124864761D01*
X197913571Y-124912380D01*
X197818333Y-124912380D01*
X197723095Y-124864761D01*
X197675476Y-124817142D01*
X197627857Y-124721904D01*
X197580238Y-124531428D01*
X197580238Y-124293333D01*
X197627857Y-124102857D01*
X197675476Y-124007619D01*
X197723095Y-123960000D01*
X197818333Y-123912380D01*
X198770714Y-123912380D02*
X198865952Y-123912380D01*
X198961190Y-123960000D01*
X199008809Y-124007619D01*
X199056428Y-124102857D01*
X199104047Y-124293333D01*
X199104047Y-124531428D01*
X199056428Y-124721904D01*
X199008809Y-124817142D01*
X198961190Y-124864761D01*
X198865952Y-124912380D01*
X198770714Y-124912380D01*
X198675476Y-124864761D01*
X198627857Y-124817142D01*
X198580238Y-124721904D01*
X198532619Y-124531428D01*
X198532619Y-124293333D01*
X198580238Y-124102857D01*
X198627857Y-124007619D01*
X198675476Y-123960000D01*
X198770714Y-123912380D01*
D12*
X103789166Y-127361904D02*
X103522500Y-126980952D01*
X103332023Y-127361904D02*
X103332023Y-126561904D01*
X103636785Y-126561904D01*
X103712976Y-126600000D01*
X103751071Y-126638095D01*
X103789166Y-126714285D01*
X103789166Y-126828571D01*
X103751071Y-126904761D01*
X103712976Y-126942857D01*
X103636785Y-126980952D01*
X103332023Y-126980952D01*
X104551071Y-127361904D02*
X104093928Y-127361904D01*
X104322500Y-127361904D02*
X104322500Y-126561904D01*
X104246309Y-126676190D01*
X104170119Y-126752380D01*
X104093928Y-126790476D01*
X146769166Y-121011904D02*
X146502500Y-120630952D01*
X146312023Y-121011904D02*
X146312023Y-120211904D01*
X146616785Y-120211904D01*
X146692976Y-120250000D01*
X146731071Y-120288095D01*
X146769166Y-120364285D01*
X146769166Y-120478571D01*
X146731071Y-120554761D01*
X146692976Y-120592857D01*
X146616785Y-120630952D01*
X146312023Y-120630952D01*
X147073928Y-120288095D02*
X147112023Y-120250000D01*
X147188214Y-120211904D01*
X147378690Y-120211904D01*
X147454880Y-120250000D01*
X147492976Y-120288095D01*
X147531071Y-120364285D01*
X147531071Y-120440476D01*
X147492976Y-120554761D01*
X147035833Y-121011904D01*
X147531071Y-121011904D01*
D11*
X55612380Y-73474166D02*
X55612380Y-74045595D01*
X55612380Y-73759880D02*
X54612380Y-73759880D01*
X54755238Y-73855119D01*
X54850476Y-73950357D01*
X54898095Y-74045595D01*
X54612380Y-72855119D02*
X54612380Y-72759880D01*
X54660000Y-72664642D01*
X54707619Y-72617023D01*
X54802857Y-72569404D01*
X54993333Y-72521785D01*
X55231428Y-72521785D01*
X55421904Y-72569404D01*
X55517142Y-72617023D01*
X55564761Y-72664642D01*
X55612380Y-72759880D01*
X55612380Y-72855119D01*
X55564761Y-72950357D01*
X55517142Y-72997976D01*
X55421904Y-73045595D01*
X55231428Y-73093214D01*
X54993333Y-73093214D01*
X54802857Y-73045595D01*
X54707619Y-72997976D01*
X54660000Y-72950357D01*
X54612380Y-72855119D01*
X54612380Y-71902738D02*
X54612380Y-71807500D01*
X54660000Y-71712261D01*
X54707619Y-71664642D01*
X54802857Y-71617023D01*
X54993333Y-71569404D01*
X55231428Y-71569404D01*
X55421904Y-71617023D01*
X55517142Y-71664642D01*
X55564761Y-71712261D01*
X55612380Y-71807500D01*
X55612380Y-71902738D01*
X55564761Y-71997976D01*
X55517142Y-72045595D01*
X55421904Y-72093214D01*
X55231428Y-72140833D01*
X54993333Y-72140833D01*
X54802857Y-72093214D01*
X54707619Y-72045595D01*
X54660000Y-71997976D01*
X54612380Y-71902738D01*
D12*
X53701904Y-73702738D02*
X53320952Y-73969404D01*
X53701904Y-74159880D02*
X52901904Y-74159880D01*
X52901904Y-73855119D01*
X52940000Y-73778928D01*
X52978095Y-73740833D01*
X53054285Y-73702738D01*
X53168571Y-73702738D01*
X53244761Y-73740833D01*
X53282857Y-73778928D01*
X53320952Y-73855119D01*
X53320952Y-74159880D01*
X53701904Y-72940833D02*
X53701904Y-73397976D01*
X53701904Y-73169404D02*
X52901904Y-73169404D01*
X53016190Y-73245595D01*
X53092380Y-73321785D01*
X53130476Y-73397976D01*
X52901904Y-72445595D02*
X52901904Y-72369404D01*
X52940000Y-72293214D01*
X52978095Y-72255119D01*
X53054285Y-72217023D01*
X53206666Y-72178928D01*
X53397142Y-72178928D01*
X53549523Y-72217023D01*
X53625714Y-72255119D01*
X53663809Y-72293214D01*
X53701904Y-72369404D01*
X53701904Y-72445595D01*
X53663809Y-72521785D01*
X53625714Y-72559880D01*
X53549523Y-72597976D01*
X53397142Y-72636071D01*
X53206666Y-72636071D01*
X53054285Y-72597976D01*
X52978095Y-72559880D01*
X52940000Y-72521785D01*
X52901904Y-72445595D01*
X53701904Y-71417023D02*
X53701904Y-71874166D01*
X53701904Y-71645595D02*
X52901904Y-71645595D01*
X53016190Y-71721785D01*
X53092380Y-71797976D01*
X53130476Y-71874166D01*
D11*
X60692380Y-88714166D02*
X60692380Y-89285595D01*
X60692380Y-88999880D02*
X59692380Y-88999880D01*
X59835238Y-89095119D01*
X59930476Y-89190357D01*
X59978095Y-89285595D01*
X59692380Y-88095119D02*
X59692380Y-87999880D01*
X59740000Y-87904642D01*
X59787619Y-87857023D01*
X59882857Y-87809404D01*
X60073333Y-87761785D01*
X60311428Y-87761785D01*
X60501904Y-87809404D01*
X60597142Y-87857023D01*
X60644761Y-87904642D01*
X60692380Y-87999880D01*
X60692380Y-88095119D01*
X60644761Y-88190357D01*
X60597142Y-88237976D01*
X60501904Y-88285595D01*
X60311428Y-88333214D01*
X60073333Y-88333214D01*
X59882857Y-88285595D01*
X59787619Y-88237976D01*
X59740000Y-88190357D01*
X59692380Y-88095119D01*
X59692380Y-87142738D02*
X59692380Y-87047500D01*
X59740000Y-86952261D01*
X59787619Y-86904642D01*
X59882857Y-86857023D01*
X60073333Y-86809404D01*
X60311428Y-86809404D01*
X60501904Y-86857023D01*
X60597142Y-86904642D01*
X60644761Y-86952261D01*
X60692380Y-87047500D01*
X60692380Y-87142738D01*
X60644761Y-87237976D01*
X60597142Y-87285595D01*
X60501904Y-87333214D01*
X60311428Y-87380833D01*
X60073333Y-87380833D01*
X59882857Y-87333214D01*
X59787619Y-87285595D01*
X59740000Y-87237976D01*
X59692380Y-87142738D01*
D12*
X58781904Y-88942738D02*
X58400952Y-89209404D01*
X58781904Y-89399880D02*
X57981904Y-89399880D01*
X57981904Y-89095119D01*
X58020000Y-89018928D01*
X58058095Y-88980833D01*
X58134285Y-88942738D01*
X58248571Y-88942738D01*
X58324761Y-88980833D01*
X58362857Y-89018928D01*
X58400952Y-89095119D01*
X58400952Y-89399880D01*
X58781904Y-88180833D02*
X58781904Y-88637976D01*
X58781904Y-88409404D02*
X57981904Y-88409404D01*
X58096190Y-88485595D01*
X58172380Y-88561785D01*
X58210476Y-88637976D01*
X57981904Y-87685595D02*
X57981904Y-87609404D01*
X58020000Y-87533214D01*
X58058095Y-87495119D01*
X58134285Y-87457023D01*
X58286666Y-87418928D01*
X58477142Y-87418928D01*
X58629523Y-87457023D01*
X58705714Y-87495119D01*
X58743809Y-87533214D01*
X58781904Y-87609404D01*
X58781904Y-87685595D01*
X58743809Y-87761785D01*
X58705714Y-87799880D01*
X58629523Y-87837976D01*
X58477142Y-87876071D01*
X58286666Y-87876071D01*
X58134285Y-87837976D01*
X58058095Y-87799880D01*
X58020000Y-87761785D01*
X57981904Y-87685595D01*
X58058095Y-87114166D02*
X58020000Y-87076071D01*
X57981904Y-86999880D01*
X57981904Y-86809404D01*
X58020000Y-86733214D01*
X58058095Y-86695119D01*
X58134285Y-86657023D01*
X58210476Y-86657023D01*
X58324761Y-86695119D01*
X58781904Y-87152261D01*
X58781904Y-86657023D01*
D11*
X65772380Y-103954166D02*
X65772380Y-104525595D01*
X65772380Y-104239880D02*
X64772380Y-104239880D01*
X64915238Y-104335119D01*
X65010476Y-104430357D01*
X65058095Y-104525595D01*
X64772380Y-103335119D02*
X64772380Y-103239880D01*
X64820000Y-103144642D01*
X64867619Y-103097023D01*
X64962857Y-103049404D01*
X65153333Y-103001785D01*
X65391428Y-103001785D01*
X65581904Y-103049404D01*
X65677142Y-103097023D01*
X65724761Y-103144642D01*
X65772380Y-103239880D01*
X65772380Y-103335119D01*
X65724761Y-103430357D01*
X65677142Y-103477976D01*
X65581904Y-103525595D01*
X65391428Y-103573214D01*
X65153333Y-103573214D01*
X64962857Y-103525595D01*
X64867619Y-103477976D01*
X64820000Y-103430357D01*
X64772380Y-103335119D01*
X64772380Y-102382738D02*
X64772380Y-102287500D01*
X64820000Y-102192261D01*
X64867619Y-102144642D01*
X64962857Y-102097023D01*
X65153333Y-102049404D01*
X65391428Y-102049404D01*
X65581904Y-102097023D01*
X65677142Y-102144642D01*
X65724761Y-102192261D01*
X65772380Y-102287500D01*
X65772380Y-102382738D01*
X65724761Y-102477976D01*
X65677142Y-102525595D01*
X65581904Y-102573214D01*
X65391428Y-102620833D01*
X65153333Y-102620833D01*
X64962857Y-102573214D01*
X64867619Y-102525595D01*
X64820000Y-102477976D01*
X64772380Y-102382738D01*
D12*
X63861904Y-104182738D02*
X63480952Y-104449404D01*
X63861904Y-104639880D02*
X63061904Y-104639880D01*
X63061904Y-104335119D01*
X63100000Y-104258928D01*
X63138095Y-104220833D01*
X63214285Y-104182738D01*
X63328571Y-104182738D01*
X63404761Y-104220833D01*
X63442857Y-104258928D01*
X63480952Y-104335119D01*
X63480952Y-104639880D01*
X63861904Y-103420833D02*
X63861904Y-103877976D01*
X63861904Y-103649404D02*
X63061904Y-103649404D01*
X63176190Y-103725595D01*
X63252380Y-103801785D01*
X63290476Y-103877976D01*
X63061904Y-102925595D02*
X63061904Y-102849404D01*
X63100000Y-102773214D01*
X63138095Y-102735119D01*
X63214285Y-102697023D01*
X63366666Y-102658928D01*
X63557142Y-102658928D01*
X63709523Y-102697023D01*
X63785714Y-102735119D01*
X63823809Y-102773214D01*
X63861904Y-102849404D01*
X63861904Y-102925595D01*
X63823809Y-103001785D01*
X63785714Y-103039880D01*
X63709523Y-103077976D01*
X63557142Y-103116071D01*
X63366666Y-103116071D01*
X63214285Y-103077976D01*
X63138095Y-103039880D01*
X63100000Y-103001785D01*
X63061904Y-102925595D01*
X63061904Y-102392261D02*
X63061904Y-101897023D01*
X63366666Y-102163690D01*
X63366666Y-102049404D01*
X63404761Y-101973214D01*
X63442857Y-101935119D01*
X63519047Y-101897023D01*
X63709523Y-101897023D01*
X63785714Y-101935119D01*
X63823809Y-101973214D01*
X63861904Y-102049404D01*
X63861904Y-102277976D01*
X63823809Y-102354166D01*
X63785714Y-102392261D01*
D11*
X70852380Y-119194166D02*
X70852380Y-119765595D01*
X70852380Y-119479880D02*
X69852380Y-119479880D01*
X69995238Y-119575119D01*
X70090476Y-119670357D01*
X70138095Y-119765595D01*
X69852380Y-118575119D02*
X69852380Y-118479880D01*
X69900000Y-118384642D01*
X69947619Y-118337023D01*
X70042857Y-118289404D01*
X70233333Y-118241785D01*
X70471428Y-118241785D01*
X70661904Y-118289404D01*
X70757142Y-118337023D01*
X70804761Y-118384642D01*
X70852380Y-118479880D01*
X70852380Y-118575119D01*
X70804761Y-118670357D01*
X70757142Y-118717976D01*
X70661904Y-118765595D01*
X70471428Y-118813214D01*
X70233333Y-118813214D01*
X70042857Y-118765595D01*
X69947619Y-118717976D01*
X69900000Y-118670357D01*
X69852380Y-118575119D01*
X69852380Y-117622738D02*
X69852380Y-117527500D01*
X69900000Y-117432261D01*
X69947619Y-117384642D01*
X70042857Y-117337023D01*
X70233333Y-117289404D01*
X70471428Y-117289404D01*
X70661904Y-117337023D01*
X70757142Y-117384642D01*
X70804761Y-117432261D01*
X70852380Y-117527500D01*
X70852380Y-117622738D01*
X70804761Y-117717976D01*
X70757142Y-117765595D01*
X70661904Y-117813214D01*
X70471428Y-117860833D01*
X70233333Y-117860833D01*
X70042857Y-117813214D01*
X69947619Y-117765595D01*
X69900000Y-117717976D01*
X69852380Y-117622738D01*
D12*
X68941904Y-119422738D02*
X68560952Y-119689404D01*
X68941904Y-119879880D02*
X68141904Y-119879880D01*
X68141904Y-119575119D01*
X68180000Y-119498928D01*
X68218095Y-119460833D01*
X68294285Y-119422738D01*
X68408571Y-119422738D01*
X68484761Y-119460833D01*
X68522857Y-119498928D01*
X68560952Y-119575119D01*
X68560952Y-119879880D01*
X68941904Y-118660833D02*
X68941904Y-119117976D01*
X68941904Y-118889404D02*
X68141904Y-118889404D01*
X68256190Y-118965595D01*
X68332380Y-119041785D01*
X68370476Y-119117976D01*
X68141904Y-118165595D02*
X68141904Y-118089404D01*
X68180000Y-118013214D01*
X68218095Y-117975119D01*
X68294285Y-117937023D01*
X68446666Y-117898928D01*
X68637142Y-117898928D01*
X68789523Y-117937023D01*
X68865714Y-117975119D01*
X68903809Y-118013214D01*
X68941904Y-118089404D01*
X68941904Y-118165595D01*
X68903809Y-118241785D01*
X68865714Y-118279880D01*
X68789523Y-118317976D01*
X68637142Y-118356071D01*
X68446666Y-118356071D01*
X68294285Y-118317976D01*
X68218095Y-118279880D01*
X68180000Y-118241785D01*
X68141904Y-118165595D01*
X68408571Y-117213214D02*
X68941904Y-117213214D01*
X68103809Y-117403690D02*
X68675238Y-117594166D01*
X68675238Y-117098928D01*
D11*
X78472380Y-73474166D02*
X78472380Y-74045595D01*
X78472380Y-73759880D02*
X77472380Y-73759880D01*
X77615238Y-73855119D01*
X77710476Y-73950357D01*
X77758095Y-74045595D01*
X77472380Y-72855119D02*
X77472380Y-72759880D01*
X77520000Y-72664642D01*
X77567619Y-72617023D01*
X77662857Y-72569404D01*
X77853333Y-72521785D01*
X78091428Y-72521785D01*
X78281904Y-72569404D01*
X78377142Y-72617023D01*
X78424761Y-72664642D01*
X78472380Y-72759880D01*
X78472380Y-72855119D01*
X78424761Y-72950357D01*
X78377142Y-72997976D01*
X78281904Y-73045595D01*
X78091428Y-73093214D01*
X77853333Y-73093214D01*
X77662857Y-73045595D01*
X77567619Y-72997976D01*
X77520000Y-72950357D01*
X77472380Y-72855119D01*
X77472380Y-71902738D02*
X77472380Y-71807500D01*
X77520000Y-71712261D01*
X77567619Y-71664642D01*
X77662857Y-71617023D01*
X77853333Y-71569404D01*
X78091428Y-71569404D01*
X78281904Y-71617023D01*
X78377142Y-71664642D01*
X78424761Y-71712261D01*
X78472380Y-71807500D01*
X78472380Y-71902738D01*
X78424761Y-71997976D01*
X78377142Y-72045595D01*
X78281904Y-72093214D01*
X78091428Y-72140833D01*
X77853333Y-72140833D01*
X77662857Y-72093214D01*
X77567619Y-72045595D01*
X77520000Y-71997976D01*
X77472380Y-71902738D01*
D12*
X76561904Y-73702738D02*
X76180952Y-73969404D01*
X76561904Y-74159880D02*
X75761904Y-74159880D01*
X75761904Y-73855119D01*
X75800000Y-73778928D01*
X75838095Y-73740833D01*
X75914285Y-73702738D01*
X76028571Y-73702738D01*
X76104761Y-73740833D01*
X76142857Y-73778928D01*
X76180952Y-73855119D01*
X76180952Y-74159880D01*
X76561904Y-72940833D02*
X76561904Y-73397976D01*
X76561904Y-73169404D02*
X75761904Y-73169404D01*
X75876190Y-73245595D01*
X75952380Y-73321785D01*
X75990476Y-73397976D01*
X75761904Y-72445595D02*
X75761904Y-72369404D01*
X75800000Y-72293214D01*
X75838095Y-72255119D01*
X75914285Y-72217023D01*
X76066666Y-72178928D01*
X76257142Y-72178928D01*
X76409523Y-72217023D01*
X76485714Y-72255119D01*
X76523809Y-72293214D01*
X76561904Y-72369404D01*
X76561904Y-72445595D01*
X76523809Y-72521785D01*
X76485714Y-72559880D01*
X76409523Y-72597976D01*
X76257142Y-72636071D01*
X76066666Y-72636071D01*
X75914285Y-72597976D01*
X75838095Y-72559880D01*
X75800000Y-72521785D01*
X75761904Y-72445595D01*
X75761904Y-71455119D02*
X75761904Y-71836071D01*
X76142857Y-71874166D01*
X76104761Y-71836071D01*
X76066666Y-71759880D01*
X76066666Y-71569404D01*
X76104761Y-71493214D01*
X76142857Y-71455119D01*
X76219047Y-71417023D01*
X76409523Y-71417023D01*
X76485714Y-71455119D01*
X76523809Y-71493214D01*
X76561904Y-71569404D01*
X76561904Y-71759880D01*
X76523809Y-71836071D01*
X76485714Y-71874166D01*
D11*
X83552380Y-88714166D02*
X83552380Y-89285595D01*
X83552380Y-88999880D02*
X82552380Y-88999880D01*
X82695238Y-89095119D01*
X82790476Y-89190357D01*
X82838095Y-89285595D01*
X82552380Y-88095119D02*
X82552380Y-87999880D01*
X82600000Y-87904642D01*
X82647619Y-87857023D01*
X82742857Y-87809404D01*
X82933333Y-87761785D01*
X83171428Y-87761785D01*
X83361904Y-87809404D01*
X83457142Y-87857023D01*
X83504761Y-87904642D01*
X83552380Y-87999880D01*
X83552380Y-88095119D01*
X83504761Y-88190357D01*
X83457142Y-88237976D01*
X83361904Y-88285595D01*
X83171428Y-88333214D01*
X82933333Y-88333214D01*
X82742857Y-88285595D01*
X82647619Y-88237976D01*
X82600000Y-88190357D01*
X82552380Y-88095119D01*
X82552380Y-87142738D02*
X82552380Y-87047500D01*
X82600000Y-86952261D01*
X82647619Y-86904642D01*
X82742857Y-86857023D01*
X82933333Y-86809404D01*
X83171428Y-86809404D01*
X83361904Y-86857023D01*
X83457142Y-86904642D01*
X83504761Y-86952261D01*
X83552380Y-87047500D01*
X83552380Y-87142738D01*
X83504761Y-87237976D01*
X83457142Y-87285595D01*
X83361904Y-87333214D01*
X83171428Y-87380833D01*
X82933333Y-87380833D01*
X82742857Y-87333214D01*
X82647619Y-87285595D01*
X82600000Y-87237976D01*
X82552380Y-87142738D01*
D12*
X81641904Y-88942738D02*
X81260952Y-89209404D01*
X81641904Y-89399880D02*
X80841904Y-89399880D01*
X80841904Y-89095119D01*
X80880000Y-89018928D01*
X80918095Y-88980833D01*
X80994285Y-88942738D01*
X81108571Y-88942738D01*
X81184761Y-88980833D01*
X81222857Y-89018928D01*
X81260952Y-89095119D01*
X81260952Y-89399880D01*
X81641904Y-88180833D02*
X81641904Y-88637976D01*
X81641904Y-88409404D02*
X80841904Y-88409404D01*
X80956190Y-88485595D01*
X81032380Y-88561785D01*
X81070476Y-88637976D01*
X80841904Y-87685595D02*
X80841904Y-87609404D01*
X80880000Y-87533214D01*
X80918095Y-87495119D01*
X80994285Y-87457023D01*
X81146666Y-87418928D01*
X81337142Y-87418928D01*
X81489523Y-87457023D01*
X81565714Y-87495119D01*
X81603809Y-87533214D01*
X81641904Y-87609404D01*
X81641904Y-87685595D01*
X81603809Y-87761785D01*
X81565714Y-87799880D01*
X81489523Y-87837976D01*
X81337142Y-87876071D01*
X81146666Y-87876071D01*
X80994285Y-87837976D01*
X80918095Y-87799880D01*
X80880000Y-87761785D01*
X80841904Y-87685595D01*
X80841904Y-86733214D02*
X80841904Y-86885595D01*
X80880000Y-86961785D01*
X80918095Y-86999880D01*
X81032380Y-87076071D01*
X81184761Y-87114166D01*
X81489523Y-87114166D01*
X81565714Y-87076071D01*
X81603809Y-87037976D01*
X81641904Y-86961785D01*
X81641904Y-86809404D01*
X81603809Y-86733214D01*
X81565714Y-86695119D01*
X81489523Y-86657023D01*
X81299047Y-86657023D01*
X81222857Y-86695119D01*
X81184761Y-86733214D01*
X81146666Y-86809404D01*
X81146666Y-86961785D01*
X81184761Y-87037976D01*
X81222857Y-87076071D01*
X81299047Y-87114166D01*
D11*
X88632380Y-103954166D02*
X88632380Y-104525595D01*
X88632380Y-104239880D02*
X87632380Y-104239880D01*
X87775238Y-104335119D01*
X87870476Y-104430357D01*
X87918095Y-104525595D01*
X87632380Y-103335119D02*
X87632380Y-103239880D01*
X87680000Y-103144642D01*
X87727619Y-103097023D01*
X87822857Y-103049404D01*
X88013333Y-103001785D01*
X88251428Y-103001785D01*
X88441904Y-103049404D01*
X88537142Y-103097023D01*
X88584761Y-103144642D01*
X88632380Y-103239880D01*
X88632380Y-103335119D01*
X88584761Y-103430357D01*
X88537142Y-103477976D01*
X88441904Y-103525595D01*
X88251428Y-103573214D01*
X88013333Y-103573214D01*
X87822857Y-103525595D01*
X87727619Y-103477976D01*
X87680000Y-103430357D01*
X87632380Y-103335119D01*
X87632380Y-102382738D02*
X87632380Y-102287500D01*
X87680000Y-102192261D01*
X87727619Y-102144642D01*
X87822857Y-102097023D01*
X88013333Y-102049404D01*
X88251428Y-102049404D01*
X88441904Y-102097023D01*
X88537142Y-102144642D01*
X88584761Y-102192261D01*
X88632380Y-102287500D01*
X88632380Y-102382738D01*
X88584761Y-102477976D01*
X88537142Y-102525595D01*
X88441904Y-102573214D01*
X88251428Y-102620833D01*
X88013333Y-102620833D01*
X87822857Y-102573214D01*
X87727619Y-102525595D01*
X87680000Y-102477976D01*
X87632380Y-102382738D01*
D12*
X86721904Y-104182738D02*
X86340952Y-104449404D01*
X86721904Y-104639880D02*
X85921904Y-104639880D01*
X85921904Y-104335119D01*
X85960000Y-104258928D01*
X85998095Y-104220833D01*
X86074285Y-104182738D01*
X86188571Y-104182738D01*
X86264761Y-104220833D01*
X86302857Y-104258928D01*
X86340952Y-104335119D01*
X86340952Y-104639880D01*
X86721904Y-103420833D02*
X86721904Y-103877976D01*
X86721904Y-103649404D02*
X85921904Y-103649404D01*
X86036190Y-103725595D01*
X86112380Y-103801785D01*
X86150476Y-103877976D01*
X85921904Y-102925595D02*
X85921904Y-102849404D01*
X85960000Y-102773214D01*
X85998095Y-102735119D01*
X86074285Y-102697023D01*
X86226666Y-102658928D01*
X86417142Y-102658928D01*
X86569523Y-102697023D01*
X86645714Y-102735119D01*
X86683809Y-102773214D01*
X86721904Y-102849404D01*
X86721904Y-102925595D01*
X86683809Y-103001785D01*
X86645714Y-103039880D01*
X86569523Y-103077976D01*
X86417142Y-103116071D01*
X86226666Y-103116071D01*
X86074285Y-103077976D01*
X85998095Y-103039880D01*
X85960000Y-103001785D01*
X85921904Y-102925595D01*
X85921904Y-102392261D02*
X85921904Y-101858928D01*
X86721904Y-102201785D01*
D11*
X93712380Y-119194166D02*
X93712380Y-119765595D01*
X93712380Y-119479880D02*
X92712380Y-119479880D01*
X92855238Y-119575119D01*
X92950476Y-119670357D01*
X92998095Y-119765595D01*
X92712380Y-118575119D02*
X92712380Y-118479880D01*
X92760000Y-118384642D01*
X92807619Y-118337023D01*
X92902857Y-118289404D01*
X93093333Y-118241785D01*
X93331428Y-118241785D01*
X93521904Y-118289404D01*
X93617142Y-118337023D01*
X93664761Y-118384642D01*
X93712380Y-118479880D01*
X93712380Y-118575119D01*
X93664761Y-118670357D01*
X93617142Y-118717976D01*
X93521904Y-118765595D01*
X93331428Y-118813214D01*
X93093333Y-118813214D01*
X92902857Y-118765595D01*
X92807619Y-118717976D01*
X92760000Y-118670357D01*
X92712380Y-118575119D01*
X92712380Y-117622738D02*
X92712380Y-117527500D01*
X92760000Y-117432261D01*
X92807619Y-117384642D01*
X92902857Y-117337023D01*
X93093333Y-117289404D01*
X93331428Y-117289404D01*
X93521904Y-117337023D01*
X93617142Y-117384642D01*
X93664761Y-117432261D01*
X93712380Y-117527500D01*
X93712380Y-117622738D01*
X93664761Y-117717976D01*
X93617142Y-117765595D01*
X93521904Y-117813214D01*
X93331428Y-117860833D01*
X93093333Y-117860833D01*
X92902857Y-117813214D01*
X92807619Y-117765595D01*
X92760000Y-117717976D01*
X92712380Y-117622738D01*
D12*
X91801904Y-119422738D02*
X91420952Y-119689404D01*
X91801904Y-119879880D02*
X91001904Y-119879880D01*
X91001904Y-119575119D01*
X91040000Y-119498928D01*
X91078095Y-119460833D01*
X91154285Y-119422738D01*
X91268571Y-119422738D01*
X91344761Y-119460833D01*
X91382857Y-119498928D01*
X91420952Y-119575119D01*
X91420952Y-119879880D01*
X91801904Y-118660833D02*
X91801904Y-119117976D01*
X91801904Y-118889404D02*
X91001904Y-118889404D01*
X91116190Y-118965595D01*
X91192380Y-119041785D01*
X91230476Y-119117976D01*
X91001904Y-118165595D02*
X91001904Y-118089404D01*
X91040000Y-118013214D01*
X91078095Y-117975119D01*
X91154285Y-117937023D01*
X91306666Y-117898928D01*
X91497142Y-117898928D01*
X91649523Y-117937023D01*
X91725714Y-117975119D01*
X91763809Y-118013214D01*
X91801904Y-118089404D01*
X91801904Y-118165595D01*
X91763809Y-118241785D01*
X91725714Y-118279880D01*
X91649523Y-118317976D01*
X91497142Y-118356071D01*
X91306666Y-118356071D01*
X91154285Y-118317976D01*
X91078095Y-118279880D01*
X91040000Y-118241785D01*
X91001904Y-118165595D01*
X91344761Y-117441785D02*
X91306666Y-117517976D01*
X91268571Y-117556071D01*
X91192380Y-117594166D01*
X91154285Y-117594166D01*
X91078095Y-117556071D01*
X91040000Y-117517976D01*
X91001904Y-117441785D01*
X91001904Y-117289404D01*
X91040000Y-117213214D01*
X91078095Y-117175119D01*
X91154285Y-117137023D01*
X91192380Y-117137023D01*
X91268571Y-117175119D01*
X91306666Y-117213214D01*
X91344761Y-117289404D01*
X91344761Y-117441785D01*
X91382857Y-117517976D01*
X91420952Y-117556071D01*
X91497142Y-117594166D01*
X91649523Y-117594166D01*
X91725714Y-117556071D01*
X91763809Y-117517976D01*
X91801904Y-117441785D01*
X91801904Y-117289404D01*
X91763809Y-117213214D01*
X91725714Y-117175119D01*
X91649523Y-117137023D01*
X91497142Y-117137023D01*
X91420952Y-117175119D01*
X91382857Y-117213214D01*
X91344761Y-117289404D01*
D11*
X101332380Y-73474166D02*
X101332380Y-74045595D01*
X101332380Y-73759880D02*
X100332380Y-73759880D01*
X100475238Y-73855119D01*
X100570476Y-73950357D01*
X100618095Y-74045595D01*
X100332380Y-72855119D02*
X100332380Y-72759880D01*
X100380000Y-72664642D01*
X100427619Y-72617023D01*
X100522857Y-72569404D01*
X100713333Y-72521785D01*
X100951428Y-72521785D01*
X101141904Y-72569404D01*
X101237142Y-72617023D01*
X101284761Y-72664642D01*
X101332380Y-72759880D01*
X101332380Y-72855119D01*
X101284761Y-72950357D01*
X101237142Y-72997976D01*
X101141904Y-73045595D01*
X100951428Y-73093214D01*
X100713333Y-73093214D01*
X100522857Y-73045595D01*
X100427619Y-72997976D01*
X100380000Y-72950357D01*
X100332380Y-72855119D01*
X100332380Y-71902738D02*
X100332380Y-71807500D01*
X100380000Y-71712261D01*
X100427619Y-71664642D01*
X100522857Y-71617023D01*
X100713333Y-71569404D01*
X100951428Y-71569404D01*
X101141904Y-71617023D01*
X101237142Y-71664642D01*
X101284761Y-71712261D01*
X101332380Y-71807500D01*
X101332380Y-71902738D01*
X101284761Y-71997976D01*
X101237142Y-72045595D01*
X101141904Y-72093214D01*
X100951428Y-72140833D01*
X100713333Y-72140833D01*
X100522857Y-72093214D01*
X100427619Y-72045595D01*
X100380000Y-71997976D01*
X100332380Y-71902738D01*
D12*
X99421904Y-73702738D02*
X99040952Y-73969404D01*
X99421904Y-74159880D02*
X98621904Y-74159880D01*
X98621904Y-73855119D01*
X98660000Y-73778928D01*
X98698095Y-73740833D01*
X98774285Y-73702738D01*
X98888571Y-73702738D01*
X98964761Y-73740833D01*
X99002857Y-73778928D01*
X99040952Y-73855119D01*
X99040952Y-74159880D01*
X99421904Y-72940833D02*
X99421904Y-73397976D01*
X99421904Y-73169404D02*
X98621904Y-73169404D01*
X98736190Y-73245595D01*
X98812380Y-73321785D01*
X98850476Y-73397976D01*
X98621904Y-72445595D02*
X98621904Y-72369404D01*
X98660000Y-72293214D01*
X98698095Y-72255119D01*
X98774285Y-72217023D01*
X98926666Y-72178928D01*
X99117142Y-72178928D01*
X99269523Y-72217023D01*
X99345714Y-72255119D01*
X99383809Y-72293214D01*
X99421904Y-72369404D01*
X99421904Y-72445595D01*
X99383809Y-72521785D01*
X99345714Y-72559880D01*
X99269523Y-72597976D01*
X99117142Y-72636071D01*
X98926666Y-72636071D01*
X98774285Y-72597976D01*
X98698095Y-72559880D01*
X98660000Y-72521785D01*
X98621904Y-72445595D01*
X99421904Y-71797976D02*
X99421904Y-71645595D01*
X99383809Y-71569404D01*
X99345714Y-71531309D01*
X99231428Y-71455119D01*
X99079047Y-71417023D01*
X98774285Y-71417023D01*
X98698095Y-71455119D01*
X98660000Y-71493214D01*
X98621904Y-71569404D01*
X98621904Y-71721785D01*
X98660000Y-71797976D01*
X98698095Y-71836071D01*
X98774285Y-71874166D01*
X98964761Y-71874166D01*
X99040952Y-71836071D01*
X99079047Y-71797976D01*
X99117142Y-71721785D01*
X99117142Y-71569404D01*
X99079047Y-71493214D01*
X99040952Y-71455119D01*
X98964761Y-71417023D01*
D11*
X106412380Y-88714166D02*
X106412380Y-89285595D01*
X106412380Y-88999880D02*
X105412380Y-88999880D01*
X105555238Y-89095119D01*
X105650476Y-89190357D01*
X105698095Y-89285595D01*
X105412380Y-88095119D02*
X105412380Y-87999880D01*
X105460000Y-87904642D01*
X105507619Y-87857023D01*
X105602857Y-87809404D01*
X105793333Y-87761785D01*
X106031428Y-87761785D01*
X106221904Y-87809404D01*
X106317142Y-87857023D01*
X106364761Y-87904642D01*
X106412380Y-87999880D01*
X106412380Y-88095119D01*
X106364761Y-88190357D01*
X106317142Y-88237976D01*
X106221904Y-88285595D01*
X106031428Y-88333214D01*
X105793333Y-88333214D01*
X105602857Y-88285595D01*
X105507619Y-88237976D01*
X105460000Y-88190357D01*
X105412380Y-88095119D01*
X105412380Y-87142738D02*
X105412380Y-87047500D01*
X105460000Y-86952261D01*
X105507619Y-86904642D01*
X105602857Y-86857023D01*
X105793333Y-86809404D01*
X106031428Y-86809404D01*
X106221904Y-86857023D01*
X106317142Y-86904642D01*
X106364761Y-86952261D01*
X106412380Y-87047500D01*
X106412380Y-87142738D01*
X106364761Y-87237976D01*
X106317142Y-87285595D01*
X106221904Y-87333214D01*
X106031428Y-87380833D01*
X105793333Y-87380833D01*
X105602857Y-87333214D01*
X105507619Y-87285595D01*
X105460000Y-87237976D01*
X105412380Y-87142738D01*
D12*
X104501904Y-88942738D02*
X104120952Y-89209404D01*
X104501904Y-89399880D02*
X103701904Y-89399880D01*
X103701904Y-89095119D01*
X103740000Y-89018928D01*
X103778095Y-88980833D01*
X103854285Y-88942738D01*
X103968571Y-88942738D01*
X104044761Y-88980833D01*
X104082857Y-89018928D01*
X104120952Y-89095119D01*
X104120952Y-89399880D01*
X104501904Y-88180833D02*
X104501904Y-88637976D01*
X104501904Y-88409404D02*
X103701904Y-88409404D01*
X103816190Y-88485595D01*
X103892380Y-88561785D01*
X103930476Y-88637976D01*
X104501904Y-87418928D02*
X104501904Y-87876071D01*
X104501904Y-87647500D02*
X103701904Y-87647500D01*
X103816190Y-87723690D01*
X103892380Y-87799880D01*
X103930476Y-87876071D01*
X103701904Y-86923690D02*
X103701904Y-86847500D01*
X103740000Y-86771309D01*
X103778095Y-86733214D01*
X103854285Y-86695119D01*
X104006666Y-86657023D01*
X104197142Y-86657023D01*
X104349523Y-86695119D01*
X104425714Y-86733214D01*
X104463809Y-86771309D01*
X104501904Y-86847500D01*
X104501904Y-86923690D01*
X104463809Y-86999880D01*
X104425714Y-87037976D01*
X104349523Y-87076071D01*
X104197142Y-87114166D01*
X104006666Y-87114166D01*
X103854285Y-87076071D01*
X103778095Y-87037976D01*
X103740000Y-86999880D01*
X103701904Y-86923690D01*
D11*
X111492380Y-103954166D02*
X111492380Y-104525595D01*
X111492380Y-104239880D02*
X110492380Y-104239880D01*
X110635238Y-104335119D01*
X110730476Y-104430357D01*
X110778095Y-104525595D01*
X110492380Y-103335119D02*
X110492380Y-103239880D01*
X110540000Y-103144642D01*
X110587619Y-103097023D01*
X110682857Y-103049404D01*
X110873333Y-103001785D01*
X111111428Y-103001785D01*
X111301904Y-103049404D01*
X111397142Y-103097023D01*
X111444761Y-103144642D01*
X111492380Y-103239880D01*
X111492380Y-103335119D01*
X111444761Y-103430357D01*
X111397142Y-103477976D01*
X111301904Y-103525595D01*
X111111428Y-103573214D01*
X110873333Y-103573214D01*
X110682857Y-103525595D01*
X110587619Y-103477976D01*
X110540000Y-103430357D01*
X110492380Y-103335119D01*
X110492380Y-102382738D02*
X110492380Y-102287500D01*
X110540000Y-102192261D01*
X110587619Y-102144642D01*
X110682857Y-102097023D01*
X110873333Y-102049404D01*
X111111428Y-102049404D01*
X111301904Y-102097023D01*
X111397142Y-102144642D01*
X111444761Y-102192261D01*
X111492380Y-102287500D01*
X111492380Y-102382738D01*
X111444761Y-102477976D01*
X111397142Y-102525595D01*
X111301904Y-102573214D01*
X111111428Y-102620833D01*
X110873333Y-102620833D01*
X110682857Y-102573214D01*
X110587619Y-102525595D01*
X110540000Y-102477976D01*
X110492380Y-102382738D01*
D12*
X109581904Y-104182738D02*
X109200952Y-104449404D01*
X109581904Y-104639880D02*
X108781904Y-104639880D01*
X108781904Y-104335119D01*
X108820000Y-104258928D01*
X108858095Y-104220833D01*
X108934285Y-104182738D01*
X109048571Y-104182738D01*
X109124761Y-104220833D01*
X109162857Y-104258928D01*
X109200952Y-104335119D01*
X109200952Y-104639880D01*
X109581904Y-103420833D02*
X109581904Y-103877976D01*
X109581904Y-103649404D02*
X108781904Y-103649404D01*
X108896190Y-103725595D01*
X108972380Y-103801785D01*
X109010476Y-103877976D01*
X109581904Y-102658928D02*
X109581904Y-103116071D01*
X109581904Y-102887500D02*
X108781904Y-102887500D01*
X108896190Y-102963690D01*
X108972380Y-103039880D01*
X109010476Y-103116071D01*
X109581904Y-101897023D02*
X109581904Y-102354166D01*
X109581904Y-102125595D02*
X108781904Y-102125595D01*
X108896190Y-102201785D01*
X108972380Y-102277976D01*
X109010476Y-102354166D01*
D11*
X116572380Y-119194166D02*
X116572380Y-119765595D01*
X116572380Y-119479880D02*
X115572380Y-119479880D01*
X115715238Y-119575119D01*
X115810476Y-119670357D01*
X115858095Y-119765595D01*
X115572380Y-118575119D02*
X115572380Y-118479880D01*
X115620000Y-118384642D01*
X115667619Y-118337023D01*
X115762857Y-118289404D01*
X115953333Y-118241785D01*
X116191428Y-118241785D01*
X116381904Y-118289404D01*
X116477142Y-118337023D01*
X116524761Y-118384642D01*
X116572380Y-118479880D01*
X116572380Y-118575119D01*
X116524761Y-118670357D01*
X116477142Y-118717976D01*
X116381904Y-118765595D01*
X116191428Y-118813214D01*
X115953333Y-118813214D01*
X115762857Y-118765595D01*
X115667619Y-118717976D01*
X115620000Y-118670357D01*
X115572380Y-118575119D01*
X115572380Y-117622738D02*
X115572380Y-117527500D01*
X115620000Y-117432261D01*
X115667619Y-117384642D01*
X115762857Y-117337023D01*
X115953333Y-117289404D01*
X116191428Y-117289404D01*
X116381904Y-117337023D01*
X116477142Y-117384642D01*
X116524761Y-117432261D01*
X116572380Y-117527500D01*
X116572380Y-117622738D01*
X116524761Y-117717976D01*
X116477142Y-117765595D01*
X116381904Y-117813214D01*
X116191428Y-117860833D01*
X115953333Y-117860833D01*
X115762857Y-117813214D01*
X115667619Y-117765595D01*
X115620000Y-117717976D01*
X115572380Y-117622738D01*
D12*
X114661904Y-119422738D02*
X114280952Y-119689404D01*
X114661904Y-119879880D02*
X113861904Y-119879880D01*
X113861904Y-119575119D01*
X113900000Y-119498928D01*
X113938095Y-119460833D01*
X114014285Y-119422738D01*
X114128571Y-119422738D01*
X114204761Y-119460833D01*
X114242857Y-119498928D01*
X114280952Y-119575119D01*
X114280952Y-119879880D01*
X114661904Y-118660833D02*
X114661904Y-119117976D01*
X114661904Y-118889404D02*
X113861904Y-118889404D01*
X113976190Y-118965595D01*
X114052380Y-119041785D01*
X114090476Y-119117976D01*
X114661904Y-117898928D02*
X114661904Y-118356071D01*
X114661904Y-118127500D02*
X113861904Y-118127500D01*
X113976190Y-118203690D01*
X114052380Y-118279880D01*
X114090476Y-118356071D01*
X113938095Y-117594166D02*
X113900000Y-117556071D01*
X113861904Y-117479880D01*
X113861904Y-117289404D01*
X113900000Y-117213214D01*
X113938095Y-117175119D01*
X114014285Y-117137023D01*
X114090476Y-117137023D01*
X114204761Y-117175119D01*
X114661904Y-117632261D01*
X114661904Y-117137023D01*
D11*
X124192380Y-73474166D02*
X124192380Y-74045595D01*
X124192380Y-73759880D02*
X123192380Y-73759880D01*
X123335238Y-73855119D01*
X123430476Y-73950357D01*
X123478095Y-74045595D01*
X123192380Y-72855119D02*
X123192380Y-72759880D01*
X123240000Y-72664642D01*
X123287619Y-72617023D01*
X123382857Y-72569404D01*
X123573333Y-72521785D01*
X123811428Y-72521785D01*
X124001904Y-72569404D01*
X124097142Y-72617023D01*
X124144761Y-72664642D01*
X124192380Y-72759880D01*
X124192380Y-72855119D01*
X124144761Y-72950357D01*
X124097142Y-72997976D01*
X124001904Y-73045595D01*
X123811428Y-73093214D01*
X123573333Y-73093214D01*
X123382857Y-73045595D01*
X123287619Y-72997976D01*
X123240000Y-72950357D01*
X123192380Y-72855119D01*
X123192380Y-71902738D02*
X123192380Y-71807500D01*
X123240000Y-71712261D01*
X123287619Y-71664642D01*
X123382857Y-71617023D01*
X123573333Y-71569404D01*
X123811428Y-71569404D01*
X124001904Y-71617023D01*
X124097142Y-71664642D01*
X124144761Y-71712261D01*
X124192380Y-71807500D01*
X124192380Y-71902738D01*
X124144761Y-71997976D01*
X124097142Y-72045595D01*
X124001904Y-72093214D01*
X123811428Y-72140833D01*
X123573333Y-72140833D01*
X123382857Y-72093214D01*
X123287619Y-72045595D01*
X123240000Y-71997976D01*
X123192380Y-71902738D01*
D12*
X122281904Y-73702738D02*
X121900952Y-73969404D01*
X122281904Y-74159880D02*
X121481904Y-74159880D01*
X121481904Y-73855119D01*
X121520000Y-73778928D01*
X121558095Y-73740833D01*
X121634285Y-73702738D01*
X121748571Y-73702738D01*
X121824761Y-73740833D01*
X121862857Y-73778928D01*
X121900952Y-73855119D01*
X121900952Y-74159880D01*
X122281904Y-72940833D02*
X122281904Y-73397976D01*
X122281904Y-73169404D02*
X121481904Y-73169404D01*
X121596190Y-73245595D01*
X121672380Y-73321785D01*
X121710476Y-73397976D01*
X122281904Y-72178928D02*
X122281904Y-72636071D01*
X122281904Y-72407500D02*
X121481904Y-72407500D01*
X121596190Y-72483690D01*
X121672380Y-72559880D01*
X121710476Y-72636071D01*
X121481904Y-71912261D02*
X121481904Y-71417023D01*
X121786666Y-71683690D01*
X121786666Y-71569404D01*
X121824761Y-71493214D01*
X121862857Y-71455119D01*
X121939047Y-71417023D01*
X122129523Y-71417023D01*
X122205714Y-71455119D01*
X122243809Y-71493214D01*
X122281904Y-71569404D01*
X122281904Y-71797976D01*
X122243809Y-71874166D01*
X122205714Y-71912261D01*
D11*
X129272380Y-88714166D02*
X129272380Y-89285595D01*
X129272380Y-88999880D02*
X128272380Y-88999880D01*
X128415238Y-89095119D01*
X128510476Y-89190357D01*
X128558095Y-89285595D01*
X128272380Y-88095119D02*
X128272380Y-87999880D01*
X128320000Y-87904642D01*
X128367619Y-87857023D01*
X128462857Y-87809404D01*
X128653333Y-87761785D01*
X128891428Y-87761785D01*
X129081904Y-87809404D01*
X129177142Y-87857023D01*
X129224761Y-87904642D01*
X129272380Y-87999880D01*
X129272380Y-88095119D01*
X129224761Y-88190357D01*
X129177142Y-88237976D01*
X129081904Y-88285595D01*
X128891428Y-88333214D01*
X128653333Y-88333214D01*
X128462857Y-88285595D01*
X128367619Y-88237976D01*
X128320000Y-88190357D01*
X128272380Y-88095119D01*
X128272380Y-87142738D02*
X128272380Y-87047500D01*
X128320000Y-86952261D01*
X128367619Y-86904642D01*
X128462857Y-86857023D01*
X128653333Y-86809404D01*
X128891428Y-86809404D01*
X129081904Y-86857023D01*
X129177142Y-86904642D01*
X129224761Y-86952261D01*
X129272380Y-87047500D01*
X129272380Y-87142738D01*
X129224761Y-87237976D01*
X129177142Y-87285595D01*
X129081904Y-87333214D01*
X128891428Y-87380833D01*
X128653333Y-87380833D01*
X128462857Y-87333214D01*
X128367619Y-87285595D01*
X128320000Y-87237976D01*
X128272380Y-87142738D01*
D12*
X127361904Y-88942738D02*
X126980952Y-89209404D01*
X127361904Y-89399880D02*
X126561904Y-89399880D01*
X126561904Y-89095119D01*
X126600000Y-89018928D01*
X126638095Y-88980833D01*
X126714285Y-88942738D01*
X126828571Y-88942738D01*
X126904761Y-88980833D01*
X126942857Y-89018928D01*
X126980952Y-89095119D01*
X126980952Y-89399880D01*
X127361904Y-88180833D02*
X127361904Y-88637976D01*
X127361904Y-88409404D02*
X126561904Y-88409404D01*
X126676190Y-88485595D01*
X126752380Y-88561785D01*
X126790476Y-88637976D01*
X127361904Y-87418928D02*
X127361904Y-87876071D01*
X127361904Y-87647500D02*
X126561904Y-87647500D01*
X126676190Y-87723690D01*
X126752380Y-87799880D01*
X126790476Y-87876071D01*
X126828571Y-86733214D02*
X127361904Y-86733214D01*
X126523809Y-86923690D02*
X127095238Y-87114166D01*
X127095238Y-86618928D01*
D11*
X134352380Y-103954166D02*
X134352380Y-104525595D01*
X134352380Y-104239880D02*
X133352380Y-104239880D01*
X133495238Y-104335119D01*
X133590476Y-104430357D01*
X133638095Y-104525595D01*
X133352380Y-103335119D02*
X133352380Y-103239880D01*
X133400000Y-103144642D01*
X133447619Y-103097023D01*
X133542857Y-103049404D01*
X133733333Y-103001785D01*
X133971428Y-103001785D01*
X134161904Y-103049404D01*
X134257142Y-103097023D01*
X134304761Y-103144642D01*
X134352380Y-103239880D01*
X134352380Y-103335119D01*
X134304761Y-103430357D01*
X134257142Y-103477976D01*
X134161904Y-103525595D01*
X133971428Y-103573214D01*
X133733333Y-103573214D01*
X133542857Y-103525595D01*
X133447619Y-103477976D01*
X133400000Y-103430357D01*
X133352380Y-103335119D01*
X133352380Y-102382738D02*
X133352380Y-102287500D01*
X133400000Y-102192261D01*
X133447619Y-102144642D01*
X133542857Y-102097023D01*
X133733333Y-102049404D01*
X133971428Y-102049404D01*
X134161904Y-102097023D01*
X134257142Y-102144642D01*
X134304761Y-102192261D01*
X134352380Y-102287500D01*
X134352380Y-102382738D01*
X134304761Y-102477976D01*
X134257142Y-102525595D01*
X134161904Y-102573214D01*
X133971428Y-102620833D01*
X133733333Y-102620833D01*
X133542857Y-102573214D01*
X133447619Y-102525595D01*
X133400000Y-102477976D01*
X133352380Y-102382738D01*
D12*
X132441904Y-104182738D02*
X132060952Y-104449404D01*
X132441904Y-104639880D02*
X131641904Y-104639880D01*
X131641904Y-104335119D01*
X131680000Y-104258928D01*
X131718095Y-104220833D01*
X131794285Y-104182738D01*
X131908571Y-104182738D01*
X131984761Y-104220833D01*
X132022857Y-104258928D01*
X132060952Y-104335119D01*
X132060952Y-104639880D01*
X132441904Y-103420833D02*
X132441904Y-103877976D01*
X132441904Y-103649404D02*
X131641904Y-103649404D01*
X131756190Y-103725595D01*
X131832380Y-103801785D01*
X131870476Y-103877976D01*
X132441904Y-102658928D02*
X132441904Y-103116071D01*
X132441904Y-102887500D02*
X131641904Y-102887500D01*
X131756190Y-102963690D01*
X131832380Y-103039880D01*
X131870476Y-103116071D01*
X131641904Y-101935119D02*
X131641904Y-102316071D01*
X132022857Y-102354166D01*
X131984761Y-102316071D01*
X131946666Y-102239880D01*
X131946666Y-102049404D01*
X131984761Y-101973214D01*
X132022857Y-101935119D01*
X132099047Y-101897023D01*
X132289523Y-101897023D01*
X132365714Y-101935119D01*
X132403809Y-101973214D01*
X132441904Y-102049404D01*
X132441904Y-102239880D01*
X132403809Y-102316071D01*
X132365714Y-102354166D01*
D11*
X139432380Y-119194166D02*
X139432380Y-119765595D01*
X139432380Y-119479880D02*
X138432380Y-119479880D01*
X138575238Y-119575119D01*
X138670476Y-119670357D01*
X138718095Y-119765595D01*
X138432380Y-118575119D02*
X138432380Y-118479880D01*
X138480000Y-118384642D01*
X138527619Y-118337023D01*
X138622857Y-118289404D01*
X138813333Y-118241785D01*
X139051428Y-118241785D01*
X139241904Y-118289404D01*
X139337142Y-118337023D01*
X139384761Y-118384642D01*
X139432380Y-118479880D01*
X139432380Y-118575119D01*
X139384761Y-118670357D01*
X139337142Y-118717976D01*
X139241904Y-118765595D01*
X139051428Y-118813214D01*
X138813333Y-118813214D01*
X138622857Y-118765595D01*
X138527619Y-118717976D01*
X138480000Y-118670357D01*
X138432380Y-118575119D01*
X138432380Y-117622738D02*
X138432380Y-117527500D01*
X138480000Y-117432261D01*
X138527619Y-117384642D01*
X138622857Y-117337023D01*
X138813333Y-117289404D01*
X139051428Y-117289404D01*
X139241904Y-117337023D01*
X139337142Y-117384642D01*
X139384761Y-117432261D01*
X139432380Y-117527500D01*
X139432380Y-117622738D01*
X139384761Y-117717976D01*
X139337142Y-117765595D01*
X139241904Y-117813214D01*
X139051428Y-117860833D01*
X138813333Y-117860833D01*
X138622857Y-117813214D01*
X138527619Y-117765595D01*
X138480000Y-117717976D01*
X138432380Y-117622738D01*
D12*
X137521904Y-119422738D02*
X137140952Y-119689404D01*
X137521904Y-119879880D02*
X136721904Y-119879880D01*
X136721904Y-119575119D01*
X136760000Y-119498928D01*
X136798095Y-119460833D01*
X136874285Y-119422738D01*
X136988571Y-119422738D01*
X137064761Y-119460833D01*
X137102857Y-119498928D01*
X137140952Y-119575119D01*
X137140952Y-119879880D01*
X137521904Y-118660833D02*
X137521904Y-119117976D01*
X137521904Y-118889404D02*
X136721904Y-118889404D01*
X136836190Y-118965595D01*
X136912380Y-119041785D01*
X136950476Y-119117976D01*
X137521904Y-117898928D02*
X137521904Y-118356071D01*
X137521904Y-118127500D02*
X136721904Y-118127500D01*
X136836190Y-118203690D01*
X136912380Y-118279880D01*
X136950476Y-118356071D01*
X136721904Y-117213214D02*
X136721904Y-117365595D01*
X136760000Y-117441785D01*
X136798095Y-117479880D01*
X136912380Y-117556071D01*
X137064761Y-117594166D01*
X137369523Y-117594166D01*
X137445714Y-117556071D01*
X137483809Y-117517976D01*
X137521904Y-117441785D01*
X137521904Y-117289404D01*
X137483809Y-117213214D01*
X137445714Y-117175119D01*
X137369523Y-117137023D01*
X137179047Y-117137023D01*
X137102857Y-117175119D01*
X137064761Y-117213214D01*
X137026666Y-117289404D01*
X137026666Y-117441785D01*
X137064761Y-117517976D01*
X137102857Y-117556071D01*
X137179047Y-117594166D01*
D11*
X147052380Y-73474166D02*
X147052380Y-74045595D01*
X147052380Y-73759880D02*
X146052380Y-73759880D01*
X146195238Y-73855119D01*
X146290476Y-73950357D01*
X146338095Y-74045595D01*
X146052380Y-72855119D02*
X146052380Y-72759880D01*
X146100000Y-72664642D01*
X146147619Y-72617023D01*
X146242857Y-72569404D01*
X146433333Y-72521785D01*
X146671428Y-72521785D01*
X146861904Y-72569404D01*
X146957142Y-72617023D01*
X147004761Y-72664642D01*
X147052380Y-72759880D01*
X147052380Y-72855119D01*
X147004761Y-72950357D01*
X146957142Y-72997976D01*
X146861904Y-73045595D01*
X146671428Y-73093214D01*
X146433333Y-73093214D01*
X146242857Y-73045595D01*
X146147619Y-72997976D01*
X146100000Y-72950357D01*
X146052380Y-72855119D01*
X146052380Y-71902738D02*
X146052380Y-71807500D01*
X146100000Y-71712261D01*
X146147619Y-71664642D01*
X146242857Y-71617023D01*
X146433333Y-71569404D01*
X146671428Y-71569404D01*
X146861904Y-71617023D01*
X146957142Y-71664642D01*
X147004761Y-71712261D01*
X147052380Y-71807500D01*
X147052380Y-71902738D01*
X147004761Y-71997976D01*
X146957142Y-72045595D01*
X146861904Y-72093214D01*
X146671428Y-72140833D01*
X146433333Y-72140833D01*
X146242857Y-72093214D01*
X146147619Y-72045595D01*
X146100000Y-71997976D01*
X146052380Y-71902738D01*
D12*
X145141904Y-73702738D02*
X144760952Y-73969404D01*
X145141904Y-74159880D02*
X144341904Y-74159880D01*
X144341904Y-73855119D01*
X144380000Y-73778928D01*
X144418095Y-73740833D01*
X144494285Y-73702738D01*
X144608571Y-73702738D01*
X144684761Y-73740833D01*
X144722857Y-73778928D01*
X144760952Y-73855119D01*
X144760952Y-74159880D01*
X145141904Y-72940833D02*
X145141904Y-73397976D01*
X145141904Y-73169404D02*
X144341904Y-73169404D01*
X144456190Y-73245595D01*
X144532380Y-73321785D01*
X144570476Y-73397976D01*
X145141904Y-72178928D02*
X145141904Y-72636071D01*
X145141904Y-72407500D02*
X144341904Y-72407500D01*
X144456190Y-72483690D01*
X144532380Y-72559880D01*
X144570476Y-72636071D01*
X144341904Y-71912261D02*
X144341904Y-71378928D01*
X145141904Y-71721785D01*
D11*
X152132380Y-88714166D02*
X152132380Y-89285595D01*
X152132380Y-88999880D02*
X151132380Y-88999880D01*
X151275238Y-89095119D01*
X151370476Y-89190357D01*
X151418095Y-89285595D01*
X151132380Y-88095119D02*
X151132380Y-87999880D01*
X151180000Y-87904642D01*
X151227619Y-87857023D01*
X151322857Y-87809404D01*
X151513333Y-87761785D01*
X151751428Y-87761785D01*
X151941904Y-87809404D01*
X152037142Y-87857023D01*
X152084761Y-87904642D01*
X152132380Y-87999880D01*
X152132380Y-88095119D01*
X152084761Y-88190357D01*
X152037142Y-88237976D01*
X151941904Y-88285595D01*
X151751428Y-88333214D01*
X151513333Y-88333214D01*
X151322857Y-88285595D01*
X151227619Y-88237976D01*
X151180000Y-88190357D01*
X151132380Y-88095119D01*
X151132380Y-87142738D02*
X151132380Y-87047500D01*
X151180000Y-86952261D01*
X151227619Y-86904642D01*
X151322857Y-86857023D01*
X151513333Y-86809404D01*
X151751428Y-86809404D01*
X151941904Y-86857023D01*
X152037142Y-86904642D01*
X152084761Y-86952261D01*
X152132380Y-87047500D01*
X152132380Y-87142738D01*
X152084761Y-87237976D01*
X152037142Y-87285595D01*
X151941904Y-87333214D01*
X151751428Y-87380833D01*
X151513333Y-87380833D01*
X151322857Y-87333214D01*
X151227619Y-87285595D01*
X151180000Y-87237976D01*
X151132380Y-87142738D01*
D12*
X150221904Y-88942738D02*
X149840952Y-89209404D01*
X150221904Y-89399880D02*
X149421904Y-89399880D01*
X149421904Y-89095119D01*
X149460000Y-89018928D01*
X149498095Y-88980833D01*
X149574285Y-88942738D01*
X149688571Y-88942738D01*
X149764761Y-88980833D01*
X149802857Y-89018928D01*
X149840952Y-89095119D01*
X149840952Y-89399880D01*
X150221904Y-88180833D02*
X150221904Y-88637976D01*
X150221904Y-88409404D02*
X149421904Y-88409404D01*
X149536190Y-88485595D01*
X149612380Y-88561785D01*
X149650476Y-88637976D01*
X150221904Y-87418928D02*
X150221904Y-87876071D01*
X150221904Y-87647500D02*
X149421904Y-87647500D01*
X149536190Y-87723690D01*
X149612380Y-87799880D01*
X149650476Y-87876071D01*
X149764761Y-86961785D02*
X149726666Y-87037976D01*
X149688571Y-87076071D01*
X149612380Y-87114166D01*
X149574285Y-87114166D01*
X149498095Y-87076071D01*
X149460000Y-87037976D01*
X149421904Y-86961785D01*
X149421904Y-86809404D01*
X149460000Y-86733214D01*
X149498095Y-86695119D01*
X149574285Y-86657023D01*
X149612380Y-86657023D01*
X149688571Y-86695119D01*
X149726666Y-86733214D01*
X149764761Y-86809404D01*
X149764761Y-86961785D01*
X149802857Y-87037976D01*
X149840952Y-87076071D01*
X149917142Y-87114166D01*
X150069523Y-87114166D01*
X150145714Y-87076071D01*
X150183809Y-87037976D01*
X150221904Y-86961785D01*
X150221904Y-86809404D01*
X150183809Y-86733214D01*
X150145714Y-86695119D01*
X150069523Y-86657023D01*
X149917142Y-86657023D01*
X149840952Y-86695119D01*
X149802857Y-86733214D01*
X149764761Y-86809404D01*
D11*
X157212380Y-103954166D02*
X157212380Y-104525595D01*
X157212380Y-104239880D02*
X156212380Y-104239880D01*
X156355238Y-104335119D01*
X156450476Y-104430357D01*
X156498095Y-104525595D01*
X156212380Y-103335119D02*
X156212380Y-103239880D01*
X156260000Y-103144642D01*
X156307619Y-103097023D01*
X156402857Y-103049404D01*
X156593333Y-103001785D01*
X156831428Y-103001785D01*
X157021904Y-103049404D01*
X157117142Y-103097023D01*
X157164761Y-103144642D01*
X157212380Y-103239880D01*
X157212380Y-103335119D01*
X157164761Y-103430357D01*
X157117142Y-103477976D01*
X157021904Y-103525595D01*
X156831428Y-103573214D01*
X156593333Y-103573214D01*
X156402857Y-103525595D01*
X156307619Y-103477976D01*
X156260000Y-103430357D01*
X156212380Y-103335119D01*
X156212380Y-102382738D02*
X156212380Y-102287500D01*
X156260000Y-102192261D01*
X156307619Y-102144642D01*
X156402857Y-102097023D01*
X156593333Y-102049404D01*
X156831428Y-102049404D01*
X157021904Y-102097023D01*
X157117142Y-102144642D01*
X157164761Y-102192261D01*
X157212380Y-102287500D01*
X157212380Y-102382738D01*
X157164761Y-102477976D01*
X157117142Y-102525595D01*
X157021904Y-102573214D01*
X156831428Y-102620833D01*
X156593333Y-102620833D01*
X156402857Y-102573214D01*
X156307619Y-102525595D01*
X156260000Y-102477976D01*
X156212380Y-102382738D01*
D12*
X155301904Y-104182738D02*
X154920952Y-104449404D01*
X155301904Y-104639880D02*
X154501904Y-104639880D01*
X154501904Y-104335119D01*
X154540000Y-104258928D01*
X154578095Y-104220833D01*
X154654285Y-104182738D01*
X154768571Y-104182738D01*
X154844761Y-104220833D01*
X154882857Y-104258928D01*
X154920952Y-104335119D01*
X154920952Y-104639880D01*
X155301904Y-103420833D02*
X155301904Y-103877976D01*
X155301904Y-103649404D02*
X154501904Y-103649404D01*
X154616190Y-103725595D01*
X154692380Y-103801785D01*
X154730476Y-103877976D01*
X155301904Y-102658928D02*
X155301904Y-103116071D01*
X155301904Y-102887500D02*
X154501904Y-102887500D01*
X154616190Y-102963690D01*
X154692380Y-103039880D01*
X154730476Y-103116071D01*
X155301904Y-102277976D02*
X155301904Y-102125595D01*
X155263809Y-102049404D01*
X155225714Y-102011309D01*
X155111428Y-101935119D01*
X154959047Y-101897023D01*
X154654285Y-101897023D01*
X154578095Y-101935119D01*
X154540000Y-101973214D01*
X154501904Y-102049404D01*
X154501904Y-102201785D01*
X154540000Y-102277976D01*
X154578095Y-102316071D01*
X154654285Y-102354166D01*
X154844761Y-102354166D01*
X154920952Y-102316071D01*
X154959047Y-102277976D01*
X154997142Y-102201785D01*
X154997142Y-102049404D01*
X154959047Y-101973214D01*
X154920952Y-101935119D01*
X154844761Y-101897023D01*
D11*
X162292380Y-119194166D02*
X162292380Y-119765595D01*
X162292380Y-119479880D02*
X161292380Y-119479880D01*
X161435238Y-119575119D01*
X161530476Y-119670357D01*
X161578095Y-119765595D01*
X161292380Y-118575119D02*
X161292380Y-118479880D01*
X161340000Y-118384642D01*
X161387619Y-118337023D01*
X161482857Y-118289404D01*
X161673333Y-118241785D01*
X161911428Y-118241785D01*
X162101904Y-118289404D01*
X162197142Y-118337023D01*
X162244761Y-118384642D01*
X162292380Y-118479880D01*
X162292380Y-118575119D01*
X162244761Y-118670357D01*
X162197142Y-118717976D01*
X162101904Y-118765595D01*
X161911428Y-118813214D01*
X161673333Y-118813214D01*
X161482857Y-118765595D01*
X161387619Y-118717976D01*
X161340000Y-118670357D01*
X161292380Y-118575119D01*
X161292380Y-117622738D02*
X161292380Y-117527500D01*
X161340000Y-117432261D01*
X161387619Y-117384642D01*
X161482857Y-117337023D01*
X161673333Y-117289404D01*
X161911428Y-117289404D01*
X162101904Y-117337023D01*
X162197142Y-117384642D01*
X162244761Y-117432261D01*
X162292380Y-117527500D01*
X162292380Y-117622738D01*
X162244761Y-117717976D01*
X162197142Y-117765595D01*
X162101904Y-117813214D01*
X161911428Y-117860833D01*
X161673333Y-117860833D01*
X161482857Y-117813214D01*
X161387619Y-117765595D01*
X161340000Y-117717976D01*
X161292380Y-117622738D01*
D12*
X160381904Y-119422738D02*
X160000952Y-119689404D01*
X160381904Y-119879880D02*
X159581904Y-119879880D01*
X159581904Y-119575119D01*
X159620000Y-119498928D01*
X159658095Y-119460833D01*
X159734285Y-119422738D01*
X159848571Y-119422738D01*
X159924761Y-119460833D01*
X159962857Y-119498928D01*
X160000952Y-119575119D01*
X160000952Y-119879880D01*
X160381904Y-118660833D02*
X160381904Y-119117976D01*
X160381904Y-118889404D02*
X159581904Y-118889404D01*
X159696190Y-118965595D01*
X159772380Y-119041785D01*
X159810476Y-119117976D01*
X159658095Y-118356071D02*
X159620000Y-118317976D01*
X159581904Y-118241785D01*
X159581904Y-118051309D01*
X159620000Y-117975119D01*
X159658095Y-117937023D01*
X159734285Y-117898928D01*
X159810476Y-117898928D01*
X159924761Y-117937023D01*
X160381904Y-118394166D01*
X160381904Y-117898928D01*
X159581904Y-117403690D02*
X159581904Y-117327500D01*
X159620000Y-117251309D01*
X159658095Y-117213214D01*
X159734285Y-117175119D01*
X159886666Y-117137023D01*
X160077142Y-117137023D01*
X160229523Y-117175119D01*
X160305714Y-117213214D01*
X160343809Y-117251309D01*
X160381904Y-117327500D01*
X160381904Y-117403690D01*
X160343809Y-117479880D01*
X160305714Y-117517976D01*
X160229523Y-117556071D01*
X160077142Y-117594166D01*
X159886666Y-117594166D01*
X159734285Y-117556071D01*
X159658095Y-117517976D01*
X159620000Y-117479880D01*
X159581904Y-117403690D01*
D11*
X169912380Y-73474166D02*
X169912380Y-74045595D01*
X169912380Y-73759880D02*
X168912380Y-73759880D01*
X169055238Y-73855119D01*
X169150476Y-73950357D01*
X169198095Y-74045595D01*
X168912380Y-72855119D02*
X168912380Y-72759880D01*
X168960000Y-72664642D01*
X169007619Y-72617023D01*
X169102857Y-72569404D01*
X169293333Y-72521785D01*
X169531428Y-72521785D01*
X169721904Y-72569404D01*
X169817142Y-72617023D01*
X169864761Y-72664642D01*
X169912380Y-72759880D01*
X169912380Y-72855119D01*
X169864761Y-72950357D01*
X169817142Y-72997976D01*
X169721904Y-73045595D01*
X169531428Y-73093214D01*
X169293333Y-73093214D01*
X169102857Y-73045595D01*
X169007619Y-72997976D01*
X168960000Y-72950357D01*
X168912380Y-72855119D01*
X168912380Y-71902738D02*
X168912380Y-71807500D01*
X168960000Y-71712261D01*
X169007619Y-71664642D01*
X169102857Y-71617023D01*
X169293333Y-71569404D01*
X169531428Y-71569404D01*
X169721904Y-71617023D01*
X169817142Y-71664642D01*
X169864761Y-71712261D01*
X169912380Y-71807500D01*
X169912380Y-71902738D01*
X169864761Y-71997976D01*
X169817142Y-72045595D01*
X169721904Y-72093214D01*
X169531428Y-72140833D01*
X169293333Y-72140833D01*
X169102857Y-72093214D01*
X169007619Y-72045595D01*
X168960000Y-71997976D01*
X168912380Y-71902738D01*
D12*
X168001904Y-73702738D02*
X167620952Y-73969404D01*
X168001904Y-74159880D02*
X167201904Y-74159880D01*
X167201904Y-73855119D01*
X167240000Y-73778928D01*
X167278095Y-73740833D01*
X167354285Y-73702738D01*
X167468571Y-73702738D01*
X167544761Y-73740833D01*
X167582857Y-73778928D01*
X167620952Y-73855119D01*
X167620952Y-74159880D01*
X168001904Y-72940833D02*
X168001904Y-73397976D01*
X168001904Y-73169404D02*
X167201904Y-73169404D01*
X167316190Y-73245595D01*
X167392380Y-73321785D01*
X167430476Y-73397976D01*
X167278095Y-72636071D02*
X167240000Y-72597976D01*
X167201904Y-72521785D01*
X167201904Y-72331309D01*
X167240000Y-72255119D01*
X167278095Y-72217023D01*
X167354285Y-72178928D01*
X167430476Y-72178928D01*
X167544761Y-72217023D01*
X168001904Y-72674166D01*
X168001904Y-72178928D01*
X168001904Y-71417023D02*
X168001904Y-71874166D01*
X168001904Y-71645595D02*
X167201904Y-71645595D01*
X167316190Y-71721785D01*
X167392380Y-71797976D01*
X167430476Y-71874166D01*
D11*
X174087619Y-87380833D02*
X174087619Y-86809404D01*
X174087619Y-87095119D02*
X175087619Y-87095119D01*
X174944761Y-86999880D01*
X174849523Y-86904642D01*
X174801904Y-86809404D01*
X175087619Y-87999880D02*
X175087619Y-88095119D01*
X175040000Y-88190357D01*
X174992380Y-88237976D01*
X174897142Y-88285595D01*
X174706666Y-88333214D01*
X174468571Y-88333214D01*
X174278095Y-88285595D01*
X174182857Y-88237976D01*
X174135238Y-88190357D01*
X174087619Y-88095119D01*
X174087619Y-87999880D01*
X174135238Y-87904642D01*
X174182857Y-87857023D01*
X174278095Y-87809404D01*
X174468571Y-87761785D01*
X174706666Y-87761785D01*
X174897142Y-87809404D01*
X174992380Y-87857023D01*
X175040000Y-87904642D01*
X175087619Y-87999880D01*
X175087619Y-88952261D02*
X175087619Y-89047500D01*
X175040000Y-89142738D01*
X174992380Y-89190357D01*
X174897142Y-89237976D01*
X174706666Y-89285595D01*
X174468571Y-89285595D01*
X174278095Y-89237976D01*
X174182857Y-89190357D01*
X174135238Y-89142738D01*
X174087619Y-89047500D01*
X174087619Y-88952261D01*
X174135238Y-88857023D01*
X174182857Y-88809404D01*
X174278095Y-88761785D01*
X174468571Y-88714166D01*
X174706666Y-88714166D01*
X174897142Y-88761785D01*
X174992380Y-88809404D01*
X175040000Y-88857023D01*
X175087619Y-88952261D01*
D12*
X172358095Y-87152261D02*
X172739047Y-86885595D01*
X172358095Y-86695119D02*
X173158095Y-86695119D01*
X173158095Y-86999880D01*
X173120000Y-87076071D01*
X173081904Y-87114166D01*
X173005714Y-87152261D01*
X172891428Y-87152261D01*
X172815238Y-87114166D01*
X172777142Y-87076071D01*
X172739047Y-86999880D01*
X172739047Y-86695119D01*
X172358095Y-87914166D02*
X172358095Y-87457023D01*
X172358095Y-87685595D02*
X173158095Y-87685595D01*
X173043809Y-87609404D01*
X172967619Y-87533214D01*
X172929523Y-87457023D01*
X173081904Y-88218928D02*
X173120000Y-88257023D01*
X173158095Y-88333214D01*
X173158095Y-88523690D01*
X173120000Y-88599880D01*
X173081904Y-88637976D01*
X173005714Y-88676071D01*
X172929523Y-88676071D01*
X172815238Y-88637976D01*
X172358095Y-88180833D01*
X172358095Y-88676071D01*
X173081904Y-88980833D02*
X173120000Y-89018928D01*
X173158095Y-89095119D01*
X173158095Y-89285595D01*
X173120000Y-89361785D01*
X173081904Y-89399880D01*
X173005714Y-89437976D01*
X172929523Y-89437976D01*
X172815238Y-89399880D01*
X172358095Y-88942738D01*
X172358095Y-89437976D01*
D11*
X180072380Y-103954166D02*
X180072380Y-104525595D01*
X180072380Y-104239880D02*
X179072380Y-104239880D01*
X179215238Y-104335119D01*
X179310476Y-104430357D01*
X179358095Y-104525595D01*
X179072380Y-103335119D02*
X179072380Y-103239880D01*
X179120000Y-103144642D01*
X179167619Y-103097023D01*
X179262857Y-103049404D01*
X179453333Y-103001785D01*
X179691428Y-103001785D01*
X179881904Y-103049404D01*
X179977142Y-103097023D01*
X180024761Y-103144642D01*
X180072380Y-103239880D01*
X180072380Y-103335119D01*
X180024761Y-103430357D01*
X179977142Y-103477976D01*
X179881904Y-103525595D01*
X179691428Y-103573214D01*
X179453333Y-103573214D01*
X179262857Y-103525595D01*
X179167619Y-103477976D01*
X179120000Y-103430357D01*
X179072380Y-103335119D01*
X179072380Y-102382738D02*
X179072380Y-102287500D01*
X179120000Y-102192261D01*
X179167619Y-102144642D01*
X179262857Y-102097023D01*
X179453333Y-102049404D01*
X179691428Y-102049404D01*
X179881904Y-102097023D01*
X179977142Y-102144642D01*
X180024761Y-102192261D01*
X180072380Y-102287500D01*
X180072380Y-102382738D01*
X180024761Y-102477976D01*
X179977142Y-102525595D01*
X179881904Y-102573214D01*
X179691428Y-102620833D01*
X179453333Y-102620833D01*
X179262857Y-102573214D01*
X179167619Y-102525595D01*
X179120000Y-102477976D01*
X179072380Y-102382738D01*
D12*
X178161904Y-104182738D02*
X177780952Y-104449404D01*
X178161904Y-104639880D02*
X177361904Y-104639880D01*
X177361904Y-104335119D01*
X177400000Y-104258928D01*
X177438095Y-104220833D01*
X177514285Y-104182738D01*
X177628571Y-104182738D01*
X177704761Y-104220833D01*
X177742857Y-104258928D01*
X177780952Y-104335119D01*
X177780952Y-104639880D01*
X178161904Y-103420833D02*
X178161904Y-103877976D01*
X178161904Y-103649404D02*
X177361904Y-103649404D01*
X177476190Y-103725595D01*
X177552380Y-103801785D01*
X177590476Y-103877976D01*
X177438095Y-103116071D02*
X177400000Y-103077976D01*
X177361904Y-103001785D01*
X177361904Y-102811309D01*
X177400000Y-102735119D01*
X177438095Y-102697023D01*
X177514285Y-102658928D01*
X177590476Y-102658928D01*
X177704761Y-102697023D01*
X178161904Y-103154166D01*
X178161904Y-102658928D01*
X177361904Y-102392261D02*
X177361904Y-101897023D01*
X177666666Y-102163690D01*
X177666666Y-102049404D01*
X177704761Y-101973214D01*
X177742857Y-101935119D01*
X177819047Y-101897023D01*
X178009523Y-101897023D01*
X178085714Y-101935119D01*
X178123809Y-101973214D01*
X178161904Y-102049404D01*
X178161904Y-102277976D01*
X178123809Y-102354166D01*
X178085714Y-102392261D01*
D11*
X185152380Y-119194166D02*
X185152380Y-119765595D01*
X185152380Y-119479880D02*
X184152380Y-119479880D01*
X184295238Y-119575119D01*
X184390476Y-119670357D01*
X184438095Y-119765595D01*
X184152380Y-118575119D02*
X184152380Y-118479880D01*
X184200000Y-118384642D01*
X184247619Y-118337023D01*
X184342857Y-118289404D01*
X184533333Y-118241785D01*
X184771428Y-118241785D01*
X184961904Y-118289404D01*
X185057142Y-118337023D01*
X185104761Y-118384642D01*
X185152380Y-118479880D01*
X185152380Y-118575119D01*
X185104761Y-118670357D01*
X185057142Y-118717976D01*
X184961904Y-118765595D01*
X184771428Y-118813214D01*
X184533333Y-118813214D01*
X184342857Y-118765595D01*
X184247619Y-118717976D01*
X184200000Y-118670357D01*
X184152380Y-118575119D01*
X184152380Y-117622738D02*
X184152380Y-117527500D01*
X184200000Y-117432261D01*
X184247619Y-117384642D01*
X184342857Y-117337023D01*
X184533333Y-117289404D01*
X184771428Y-117289404D01*
X184961904Y-117337023D01*
X185057142Y-117384642D01*
X185104761Y-117432261D01*
X185152380Y-117527500D01*
X185152380Y-117622738D01*
X185104761Y-117717976D01*
X185057142Y-117765595D01*
X184961904Y-117813214D01*
X184771428Y-117860833D01*
X184533333Y-117860833D01*
X184342857Y-117813214D01*
X184247619Y-117765595D01*
X184200000Y-117717976D01*
X184152380Y-117622738D01*
D12*
X183241904Y-119422738D02*
X182860952Y-119689404D01*
X183241904Y-119879880D02*
X182441904Y-119879880D01*
X182441904Y-119575119D01*
X182480000Y-119498928D01*
X182518095Y-119460833D01*
X182594285Y-119422738D01*
X182708571Y-119422738D01*
X182784761Y-119460833D01*
X182822857Y-119498928D01*
X182860952Y-119575119D01*
X182860952Y-119879880D01*
X183241904Y-118660833D02*
X183241904Y-119117976D01*
X183241904Y-118889404D02*
X182441904Y-118889404D01*
X182556190Y-118965595D01*
X182632380Y-119041785D01*
X182670476Y-119117976D01*
X182518095Y-118356071D02*
X182480000Y-118317976D01*
X182441904Y-118241785D01*
X182441904Y-118051309D01*
X182480000Y-117975119D01*
X182518095Y-117937023D01*
X182594285Y-117898928D01*
X182670476Y-117898928D01*
X182784761Y-117937023D01*
X183241904Y-118394166D01*
X183241904Y-117898928D01*
X182708571Y-117213214D02*
X183241904Y-117213214D01*
X182403809Y-117403690D02*
X182975238Y-117594166D01*
X182975238Y-117098928D01*
D11*
X113226904Y-130784523D02*
X113874523Y-130784523D01*
X113950714Y-130746428D01*
X113988809Y-130708333D01*
X114026904Y-130632142D01*
X114026904Y-130479761D01*
X113988809Y-130403571D01*
X113950714Y-130365476D01*
X113874523Y-130327380D01*
X113226904Y-130327380D01*
X114026904Y-129527380D02*
X114026904Y-129984523D01*
X114026904Y-129755952D02*
X113226904Y-129755952D01*
X113341190Y-129832142D01*
X113417380Y-129908333D01*
X113455476Y-129984523D01*
X158946904Y-130784523D02*
X159594523Y-130784523D01*
X159670714Y-130746428D01*
X159708809Y-130708333D01*
X159746904Y-130632142D01*
X159746904Y-130479761D01*
X159708809Y-130403571D01*
X159670714Y-130365476D01*
X159594523Y-130327380D01*
X158946904Y-130327380D01*
X159023095Y-129984523D02*
X158985000Y-129946428D01*
X158946904Y-129870238D01*
X158946904Y-129679761D01*
X158985000Y-129603571D01*
X159023095Y-129565476D01*
X159099285Y-129527380D01*
X159175476Y-129527380D01*
X159289761Y-129565476D01*
X159746904Y-130022619D01*
X159746904Y-129527380D01*
X96027333Y-131081053D02*
X96027333Y-131874386D01*
X96074000Y-131967720D01*
X96120666Y-132014386D01*
X96214000Y-132061053D01*
X96400666Y-132061053D01*
X96494000Y-132014386D01*
X96540666Y-131967720D01*
X96587333Y-131874386D01*
X96587333Y-131081053D01*
X96960666Y-131081053D02*
X97567333Y-131081053D01*
X97240666Y-131454386D01*
X97380666Y-131454386D01*
X97474000Y-131501053D01*
X97520666Y-131547720D01*
X97567333Y-131641053D01*
X97567333Y-131874386D01*
X97520666Y-131967720D01*
X97474000Y-132014386D01*
X97380666Y-132061053D01*
X97100666Y-132061053D01*
X97007333Y-132014386D01*
X96960666Y-131967720D01*
M02*
