M48
; DRILL file {KiCad (5.1.4)-1} date 10/01/2020 15:49:48
; FORMAT={-:-/ absolute / inch / decimal}
; #@! TF.CreationDate,2020-01-10T15:49:48+01:00
; #@! TF.GenerationSoftware,Kicad,Pcbnew,(5.1.4)-1
; #@! TF.FileFunction,Plated,1,2,PTH
FMAT,2
INCH
T1C0.0118
T2C0.0157
T3C0.0394
T4C0.0400
T5C0.0433
T6C0.0551
%
G90
G05
T1
X2.0484Y-3.1362
X2.2319Y-3.752
X2.2587Y-2.8913
X2.3685Y-4.4197
X2.6665Y-4.0846
X2.9161Y-4.7465
X2.9327Y-3.8598
X3.1118Y-4.0894
X3.1201Y-4.7193
X3.1803Y-2.9067
X3.3165Y-4.7087
X3.4614Y-4.6736
X3.7Y-5.11
X3.71Y-5.26
X3.8213Y-4.7008
X3.8232Y-3.8461
X3.9803Y-5.1577
X3.981Y-5.208
X4.0343Y-4.1031
X4.0409Y-2.9181
X4.0472Y-4.6819
X4.2083Y-4.6846
X4.3827Y-4.7031
X4.6783Y-4.7626
X4.7181Y-3.8598
X4.9122Y-4.7031
X4.9854Y-2.8724
X5.076Y-4.6551
X5.189Y-4.7008
X5.452Y-4.8457
X5.6453Y-3.8508
X5.8362Y-4.4268
X5.8425Y-3.924
X5.8614Y-2.8992
X6.09Y-2.6575
X6.1047Y-4.6575
X6.4811Y-4.7409
X6.5445Y-3.3366
X6.5539Y-3.8551
X6.5992Y-5.235
X6.7012Y-4.0665
X6.7335Y-4.3972
X6.7638Y-2.8992
X6.8945Y-4.0988
X6.9106Y-4.5366
X7.0787Y-4.3
X7.1531Y-5.1307
X7.8921Y-2.1457
X7.9087Y-3.3902
X7.9331Y-4.45
T2
X3.975Y-5.0
X3.981Y-5.275
X4.25Y-5.1965
X4.425Y-5.3
X4.475Y-5.225
X4.5622Y-4.8372
X4.725Y-5.125
X4.725Y-5.25
X5.2Y-5.05
X5.2Y-5.25
X5.575Y-5.25
X5.5887Y-5.0965
X6.0593Y-5.2657
X6.225Y-5.2959
X6.2604Y-5.2146
X6.3622Y-4.8878
T3
X2.1693Y-4.2358
X2.1693Y-4.3358
X2.1693Y-4.4358
X2.1693Y-4.5358
X7.725Y-4.9
X7.825Y-4.9
T4
X3.23Y-5.1299
X3.23Y-5.2299
X3.33Y-5.1299
X3.33Y-5.2299
X3.43Y-5.1299
X3.43Y-5.2299
T5
X4.8Y-2.5
X4.8Y-2.6
X4.8Y-2.7
X2.3Y-3.1
X2.3Y-3.2
X2.3Y-3.3
X2.5Y-3.7
X2.5Y-3.8
X2.5Y-3.9
X6.3Y-4.3
X6.3Y-4.4
X6.3Y-4.5
X3.6Y-4.3
X3.6Y-4.4
X3.6Y-4.5
X5.9Y-3.1
X5.9Y-3.2
X5.9Y-3.3
X6.8Y-3.1
X6.8Y-3.2
X6.8Y-3.3
X2.1Y-2.5
X2.1Y-2.6
X2.1Y-2.7
X5.2Y-3.7
X5.2Y-3.8
X5.2Y-3.9
X4.3Y-3.7
X4.3Y-3.8
X4.3Y-3.9
X2.7Y-4.3
X2.7Y-4.4
X2.7Y-4.5
X4.5Y-4.3
X4.5Y-4.4
X4.5Y-4.5
X5.7Y-2.5
X5.7Y-2.6
X5.7Y-2.7
X5.4Y-4.3
X5.4Y-4.4
X5.4Y-4.5
X3.4Y-3.7
X3.4Y-3.8
X3.4Y-3.9
X4.1Y-3.1
X4.1Y-3.2
X4.1Y-3.3
X7.2Y-4.3
X7.2Y-4.4
X7.2Y-4.5
X6.1Y-3.7
X6.1Y-3.8
X6.1Y-3.9
X7.0Y-3.7
X7.0Y-3.8
X7.0Y-3.9
X3.2Y-3.1
X3.2Y-3.2
X3.2Y-3.3
X6.6Y-2.5
X6.6Y-2.6
X6.6Y-2.7
X5.0Y-3.1
X5.0Y-3.2
X5.0Y-3.3
X3.9Y-2.5
X3.9Y-2.6
X3.9Y-2.7
X3.0Y-2.5
X3.0Y-2.6
X3.0Y-2.7
T6
X2.25Y-5.175
X2.45Y-5.175
X2.65Y-5.175
X2.85Y-5.175
X5.65Y-2.2
X5.85Y-2.2
X6.05Y-2.2
X6.25Y-2.2
X6.45Y-2.2
X6.65Y-2.2
X6.85Y-2.2
X7.05Y-2.2
X2.25Y-2.2
X2.45Y-2.2
X2.65Y-2.2
X2.85Y-2.2
X3.05Y-2.2
X3.25Y-2.2
X3.45Y-2.2
X3.65Y-2.2
X7.63Y-5.175
X7.83Y-5.175
X3.95Y-2.2
X4.15Y-2.2
X4.35Y-2.2
X4.55Y-2.2
X4.75Y-2.2
X4.95Y-2.2
X5.15Y-2.2
X5.35Y-2.2
T0
M30
